<svg xmlns="http://www.w3.org/2000/svg" viewBox="0 0 2812 3000" width="2812" height="3000"><g transform="translate(555.0 11.25) rotate(0.0 1021.875 954.375) scale(3.746686416783689 3.746819987751064)"><svg width="545.482" height="509.432" viewBox="0 0 545.482 509.432"><path d="M216.86 74.866c4.564 5.194 13.465 16.593 20.268 21.716 15.6 11.747 46.232 22.926 53.242 37.705 5.161 10.881 3.032 24.063-2.653 32.211s6.063.758 10.042-13.453c2.171-7.753 2.447-15.174 2.082-22.187s-30.882-40.339-46.229-48.486-40.824-12.14-36.752-7.506z" fill="#1b57b8"/><path d="M286.527 170.629c-.392 0-.727-.176-.919-.489-.312-.508-.377-1.389 1.494-4.071 5.021-7.197 7.974-20.111 2.59-31.46-4.469-9.422-18.884-17.415-32.825-25.146-7.572-4.199-14.724-8.165-20.191-12.281-5.391-4.061-12.021-11.938-16.863-17.691-1.333-1.584-2.527-3.003-3.517-4.13-.986-1.122-.555-1.924-.324-2.216 2.727-3.447 26.575 2.505 37.991 8.564 8.294 4.402 20.382 15.707 28.928 24.817 8.026 8.557 17.478 20.053 17.698 24.292.446 8.572-.224 15.699-2.109 22.429-2.851 10.184-9.57 17.062-11.763 17.368-.064.01-.128.014-.19.014zm.415-1.119h.01zm-69.769-95.462c.028.016.083.132.25.322.996 1.134 2.197 2.561 3.538 4.154 4.795 5.697 11.362 13.501 16.617 17.459 5.383 4.054 12.491 7.994 20.016 12.167 14.147 7.846 28.777 15.958 33.453 25.815 5.64 11.89 2.546 25.42-2.715 32.96-.615.882-.958 1.484-1.149 1.886 2.118-1.414 7.455-7.398 9.854-15.969 1.839-6.568 2.492-13.542 2.055-21.946-.322-6.183-29.909-39.41-45.832-47.863-14.11-7.49-34.476-10.651-36.087-8.985z" fill="#1b57b8"/><path d="M199.801 39.74c-1.56 1.137 5.684 9.663 4.926 16.105-.67 5.695.189 14.211 5.305 16.295s10.042 2.726 18.007 11.987c7.776 9.041 22.73 14.35 37.319 21.171 12.377 5.787 31.263 15.537 33.726 24.442s-.55-37.857-17.242-52.863c-18.758-16.863-28.025-13.608-39.032-22.168-8.526-6.632-15.401-12.695-24.469-15.726-9.066-3.032-15.973-1.114-18.54.757z" fill="#52fffe"/><g fill="#1b57b8"><path d="M299.591 131.608a.803.803 0 0 1-.05-.002c-.677-.043-.925-.749-1.178-1.666-1.768-6.39-12.978-14.452-33.321-23.962-2.834-1.325-5.711-2.606-8.494-3.845-11.676-5.198-22.704-10.108-29.076-17.517-6.606-7.682-11.039-9.304-15.325-10.872a68.614 68.614 0 0 1-2.396-.91c-5.858-2.386-6.381-11.857-5.767-17.077.412-3.501-1.784-7.841-3.388-11.01-1.502-2.967-2.408-4.759-1.235-5.614 2.372-1.727 9.441-4.132 19.221-.862 7.98 2.668 14.179 7.561 21.357 13.227 1.088.858 2.197 1.733 3.335 2.619 4.334 3.371 8.334 4.849 12.964 6.561 6.931 2.562 14.787 5.465 26.108 15.643 14.649 13.169 19.353 51.614 18.048 54.717-.179.422-.523.57-.803.57zm-99.265-91.321c-.027.556.876 2.34 1.607 3.784 1.69 3.339 4.004 7.911 3.539 11.862-.732 6.223.471 13.731 4.843 15.513.782.318 1.561.603 2.346.891 4.467 1.634 9.086 3.324 15.947 11.302 6.152 7.153 17.031 11.997 28.549 17.124 2.789 1.242 5.673 2.525 8.519 3.856 19.054 8.908 30.008 16.432 33.336 22.917-.621-9.512-5.23-38.917-17.671-50.101-11.108-9.986-18.821-12.836-25.625-15.351-4.55-1.682-8.847-3.271-13.365-6.784-1.141-.887-2.252-1.765-3.343-2.626-7.067-5.578-13.171-10.396-20.903-12.981-9.084-3.037-15.543-.971-17.779.594zm-.083.059c.001-.001.001-.001 0 0zm-158.28 260.52c7.178 12.616 189.291 207.816 189.291 207.816V359.138c0-21.221-46.336-64.646-21.986-78.577 14.916-8.534 23.684-31.642 26.267-29.368s5.944 3.979 8.596 11.747c2.653 7.768-2.084 46.232-3.979 51.347-1.895 5.116 4.737 11.937 9.853 1.137s3.411-48.884 2.722-51.726.688-6.063 2.583-13.074-7.011-16.484-7.768-20.274c-.758-3.789-1.326-6.063-2.084-3.221s-2.653 11.558-3.789 7.389c-1.137-4.168-21.411-28.611-29.149-39.221l-.03-70.611c.758-7.579-13.137-24.758-18.442-33.6s-15.158-24.758-17.937-27.789c-2.779-3.032-12.556 34.45-17.356 35.081-4.8.632-18.517-17.65-25.844-19.418-7.326-1.768-29.811-10.105-34.863-8.842-5.053 1.263 0 45.586 0 45.586s-13.389 17.067-16.926 19.593-27.032 3.032-32.842 10.105z"/><path d="M231.254 509.432a.751.751 0 0 1-.549-.238C223.267 501.221 48.45 313.786 41.31 301.238a.743.743 0 0 1-.097-.401l6.316-155.464a.748.748 0 0 1 .17-.445c3.896-4.743 14.747-6.562 23.466-8.024 4.313-.724 8.387-1.406 9.52-2.216 3.186-2.274 14.942-17.124 16.583-19.205-.207-1.869-1.297-11.957-1.864-22.055-1.298-23.096 1.337-23.755 2.462-24.036 3.451-.861 13.085 2.021 25.322 5.882 4.132 1.303 7.7 2.429 9.899 2.959 3.86.932 9.125 5.949 14.217 10.801 4.364 4.159 9.297 8.854 11.353 8.604 2.045-.27 6.364-11.83 9.222-19.48 4.086-10.938 5.921-15.425 7.643-15.76.422-.084.836.062 1.141.395 2.933 3.2 13.074 19.656 18.027 27.911 1.382 2.303 3.388 5.229 5.512 8.328 6.384 9.314 13.619 19.871 13.033 25.731l.033 70.291c2.649 3.619 6.681 8.763 10.946 14.202 8.549 10.905 17.39 22.182 18.177 25.067.022.081.043.152.063.215.675-1.263 1.581-4.856 1.952-6.33.123-.488.233-.923.325-1.271.186-.696.514-1.877 1.419-1.832.974.031 1.328 1.114 2.125 5.099.227 1.137 1.368 3.002 2.69 5.161 2.857 4.668 6.413 10.479 5.067 15.456a242.042 242.042 0 0 1-1.199 4.252c-1.202 4.157-1.864 6.448-1.379 8.449.771 3.186 2.448 41.2-2.774 52.225-3.432 7.243-7.265 6.305-8.358 5.845-2.616-1.102-3.96-4.636-2.876-7.563 1.742-4.702 6.579-43.21 3.973-50.845-2.177-6.376-4.805-8.503-7.124-10.38a39.512 39.512 0 0 1-1.209-1.004c-.823.256-2.991 3.607-4.908 6.573-4.531 7.008-11.378 17.599-20.539 22.841-3.35 1.916-5.393 4.432-6.245 7.689-2.558 9.769 6.183 24.384 14.635 38.518 7.186 12.016 13.973 23.364 13.973 31.719v149.544a.749.749 0 0 1-.748.748zM42.721 300.675c8.185 13.329 171.465 188.599 187.783 206.103v-147.64c0-7.939-6.684-19.116-13.76-30.948-8.612-14.4-17.517-29.29-14.799-39.668.947-3.617 3.286-6.515 6.951-8.612 8.845-5.061 15.573-15.467 20.025-22.353 3.163-4.893 4.621-7.064 6.018-7.257.404-.062.784.057 1.093.33.387.341.792.668 1.21 1.006 2.354 1.905 5.283 4.276 7.6 11.062 2.699 7.903-2.015 46.529-3.985 51.851-.88 2.374.358 4.946 2.052 5.66 2.09.872 4.489-1.029 6.42-5.105 5.095-10.757 3.24-48.881 2.671-51.229-.578-2.389.165-4.96 1.396-9.22.358-1.239.762-2.635 1.192-4.226 1.177-4.354-2.192-9.859-4.899-14.283-1.453-2.375-2.601-4.251-2.881-5.648-.143-.713-.411-2.053-.669-3.005-.081.31-.174.677-.275 1.081-1.542 6.115-2.289 7.793-3.478 7.805h-.011c-.975 0-1.304-1.207-1.428-1.662-.707-2.593-10.246-14.76-17.91-24.536-4.351-5.55-8.46-10.792-11.122-14.44a.749.749 0 0 1-.144-.442l-.03-70.61c.535-5.391-6.845-16.157-12.774-24.809-2.137-3.118-4.156-6.063-5.561-8.405-5.632-9.387-14.897-24.293-17.714-27.521-1.299 1.056-4.238 8.924-6.407 14.729-4.662 12.479-7.69 20.081-10.432 20.441-2.75.379-7.309-3.979-12.583-9.004-4.718-4.496-10.065-9.591-13.534-10.428-2.249-.543-5.84-1.676-9.998-2.987-8.944-2.821-21.193-6.682-24.507-5.857-2.727.682-1.831 23.771.563 44.773a.75.75 0 0 1-.155.548c-.549.7-13.497 17.182-17.081 19.74-1.415 1.011-5.076 1.625-10.143 2.475-7.908 1.326-18.696 3.135-22.396 7.31zm210.007-131.586c6.941 10.672 26.835 45.725 27.783 72.441.452 12.738 2.084 61.958-.379 72.189-2.463 10.232 5.521 15.347 6.266 1.326s.775-65.141 0-74.653c-2.287-28.08-20.476-63.521-29.002-73.895-3.367-4.094-7.636-1.971-4.668 2.592z"/><path d="M282.766 324.381c-.596 0-1.192-.228-1.72-.672-1.639-1.377-2.853-5.146-1.644-10.166 2.29-9.515 1.014-53.513.358-71.987-.876-24.699-18.478-57.936-27.662-72.059-1.78-2.736-1.152-4.63-.074-5.42 1.349-.988 3.827-.639 5.949 1.943 8.709 10.598 26.9 46.432 29.171 74.311.764 9.38.765 60.381.001 74.754-.267 5.021-1.483 8.252-3.426 9.095a2.371 2.371 0 0 1-.953.201zm-29.079-159.319c-.307 0-.573.077-.776.226-.594.436-.686 1.652.445 3.392 9.263 14.244 27.016 47.796 27.904 72.824.657 18.536 1.934 62.696-.399 72.392-1.012 4.204-.188 7.542 1.15 8.666.569.479.979.301 1.112.243 1.044-.453 2.256-2.74 2.525-7.799.762-14.341.763-65.204.001-74.553-2.246-27.575-20.226-63.005-28.834-73.479-1.076-1.309-2.266-1.912-3.128-1.912z"/><path d="M239.205 195.298c8.748 3.894 36.947 40.8 42.821 57.411 10.989 31.074 11.197 63.095 9.871 74.274s-9.86 14.092-9.86-1.26c0-22.424 4.36-43.266-8.348-74.34-5.17-12.641-21.961-35.778-35.621-48.354-5.024-4.626-7.611-11.625 1.137-7.731z"/><path d="M286.26 337.061c-.062 0-.123-.002-.185-.006-2.999-.177-4.789-4.414-4.789-11.333 0-4.545.182-9.108.358-13.522.703-17.644 1.43-35.888-8.65-60.533-5.309-12.981-22.198-35.901-35.435-48.086-3.185-2.932-5.842-7.155-4.494-9.205.887-1.352 3.055-1.271 6.444.236 5.082 2.263 15.101 13.97 22.782 24.172 7.777 10.328 17.231 24.598 20.441 33.675 11.524 32.585 11.06 64.907 9.908 74.611-.681 5.754-3.405 9.991-6.38 9.991zm-51.076-142.153c-.471 0-.75.116-.865.291-.548.833.871 4.161 4.257 7.278 13.365 12.303 30.432 35.478 35.807 48.621 10.203 24.948 9.469 43.357 8.76 61.162-.175 4.398-.356 8.947-.356 13.462 0 7.112 1.819 9.743 3.377 9.836 1.88.102 4.336-3.169 4.988-8.664 1.14-9.608 1.595-41.621-9.833-73.936-5.951-16.826-34.003-53.227-42.419-56.976-1.775-.789-2.979-1.074-3.716-1.074z"/><path d="M303.247 215.193c-11.937 20.905-16.863 75.6-18.379 98.716s7.871 21.415 7.2 1.516c-.568-16.863 4.394-79.24 16.484-95.914 7.095-9.785-.477-12.773-5.305-4.318z"/><path d="M288.138 331.547c-.376 0-.751-.11-1.104-.329-2.438-1.516-3.527-8.004-2.914-17.358.665-10.145 2.237-30.162 5.289-50.251 3.529-23.228 7.965-39.643 13.188-48.788 2.291-4.012 5.003-5.362 6.786-5.327 1.093.034 1.987.597 2.451 1.544.972 1.98-.003 5.229-2.674 8.913-11.856 16.351-16.908 78.651-16.342 95.448.276 8.199-1.14 14.419-3.607 15.846a2.133 2.133 0 0 1-1.073.302zm21.134-120.555c-1.386 0-3.563 1.403-5.374 4.573-12.401 21.719-17.128 80.802-18.282 98.393-.729 11.107 1.126 15.313 2.208 15.986.219.137.402.136.634.003 1.32-.764 3.171-5.254 2.859-14.497-.589-17.472 4.37-79.477 16.627-96.38 2.708-3.734 3.088-6.257 2.541-7.372-.221-.45-.608-.688-1.151-.705l-.062-.001zm-6.025 4.201h.01zm1.899 95.26h28.676v198.229h-28.676z"/><path d="M333.822 509.432h-28.676a.75.75 0 0 1-.75-.75V310.453a.75.75 0 0 1 .75-.75h28.676a.75.75 0 0 1 .75.75v198.229a.75.75 0 0 1-.75.75zm-27.926-1.5h27.176V311.203h-27.176z"/></g><path d="M231.254 310.453h73.892v198.229h-73.892z" fill="#73bdfd"/><path d="M305.146 509.432h-73.892a.75.75 0 0 1-.75-.75V310.453a.75.75 0 0 1 .75-.75h73.892a.75.75 0 0 1 .75.75v198.229a.75.75 0 0 1-.75.75zm-73.142-1.5h72.392V311.203h-72.392zm305.818-241.847c-4.042 7.15-18.063 17.255-27.916 15.487-2.735-.491-6.157-1.552-2.905-3.916 15.916-11.571 19.832-32.842 23.747-48.126 3.916-15.285 10.758 30.04 7.074 36.555z" fill="#1b57b8"/><path d="M512.306 282.527c-.865 0-1.711-.069-2.532-.217-3.005-.54-4.533-1.347-4.806-2.539-.308-1.341 1.123-2.38 1.592-2.722 14.21-10.332 18.727-28.603 22.356-43.282.375-1.519.741-2.997 1.106-4.424.604-2.354 1.309-3.486 2.287-3.669.67-.125 1.305.218 1.88 1.022 2.108 2.95 3.835 12.501 4.673 19.783.892 7.747 1.258 17.062-.388 19.974-3.899 6.901-16.255 16.074-26.168 16.074zm20.246-55.378c.004.016-.496.299-1.077 2.567a545.626 545.626 0 0 0-1.103 4.41c-3.688 14.917-8.276 33.482-22.93 44.136-.867.631-1.044 1.034-1.012 1.174.007.031.219.789 3.609 1.397 9.311 1.673 23.08-7.952 27.13-15.118 2.489-4.402-.259-29.121-3.461-36.737-.687-1.633-1.122-1.816-1.156-1.829zm-190.266 6.233c3.047 17.521 14.809 28.042 24.821 32.703 7.336 3.415 12.126 3.676 16.863 9.361s7.389 6.351 13.832 11.228 15.537 12.456 16.105 16.814 4.323-3.065 2.976-10.8c-1.65-9.474-.568-24.063-.702-31.453-.134-7.389-6.213-22.663-24.253-34.835-20.759-14.007-36.161-13.893-41.305-11.586-5.145 2.306-9.853 9.852-8.337 18.568z" fill="#1b57b8"/><path d="M414.592 305.532c-.171 0-.313-.039-.413-.079-.73-.291-.929-1.206-1.016-1.868-.405-3.106-6.021-8.899-15.814-16.313-2.002-1.516-3.641-2.625-5.086-3.604-3.221-2.181-5.547-3.757-8.869-7.741-3.254-3.905-6.591-5.174-10.816-6.78-1.716-.652-3.661-1.392-5.787-2.382-4.967-2.312-21.468-11.542-25.244-33.253-1.56-8.972 3.233-16.899 8.769-19.382 5.146-2.307 20.554-2.842 42.031 11.648 19.172 12.937 24.463 28.841 24.583 35.443.039 2.136-.021 4.797-.092 7.879-.169 7.474-.38 16.775.783 23.458.997 5.726-.654 11.401-2.184 12.643-.314.255-.608.331-.845.331zm-71.568-72.279c3.651 20.995 19.599 29.917 24.399 32.151 2.077.967 3.912 1.664 5.687 2.339 4.431 1.685 7.93 3.015 11.436 7.222 3.185 3.822 5.438 5.348 8.558 7.46 1.461.989 3.117 2.11 5.15 3.65 10.409 7.88 15.926 13.705 16.396 17.315.022.171.048.306.074.41.889-1.192 2.302-5.918 1.42-10.985-1.189-6.828-.976-16.211-.805-23.75.07-3.065.13-5.712.091-7.817-.115-6.333-5.262-21.637-23.922-34.227-19.415-13.1-34.904-14.067-40.579-11.523-5.012 2.248-9.339 9.505-7.905 17.755z" fill="#1b57b8"/><path d="M332.054 147.172c-7.283-5.26-7.2-20.842-3.789-34.863s1.137-39.789 6.821-49.263 26.905-44.716 36-51.158 29.95-15.537 35.817-8.716 8.899 9.095 10.414 18.568c1.516 9.474 5.305 49.263 6.063 60.253s-51.916 59.116-62.147 61.389-22.358 8.716-29.179 3.79z" fill="#52fffe"/><path d="M338.437 149.723c-2.556 0-4.881-.541-6.822-1.943-8.005-5.781-7.201-22.817-4.079-35.649 1.405-5.777 1.845-13.767 2.27-21.493.603-10.961 1.226-22.294 4.636-27.978 17.57-29.282 30.091-47.051 36.209-51.385 9.588-6.79 30.682-15.725 36.819-8.593.762.886 1.476 1.694 2.145 2.452 4.571 5.179 7.089 8.032 8.442 16.487 1.529 9.56 5.305 49.212 6.07 60.319.519 7.514-20.675 28.351-27.183 34.558-13.392 12.773-29.904 26.361-35.55 27.616-2.722.604-5.645 1.528-8.471 2.422-4.983 1.577-10.077 3.186-14.486 3.187zM400.064 1.465c-8.455 0-21.777 6.24-28.545 11.034-4.149 2.938-13.726 14.161-35.791 50.932-3.219 5.365-3.832 16.51-4.425 27.289-.429 7.794-.872 15.853-2.311 21.766-3.011 12.379-3.901 28.732 3.5 34.077 4.68 3.381 12.458.921 19.979-1.457 2.857-.902 5.812-1.837 8.598-2.456 4.67-1.037 19.648-12.747 34.84-27.236 16.543-15.779 27.032-28.877 26.722-33.369-.765-11.089-4.531-50.656-6.056-60.187-1.284-8.025-3.7-10.763-8.086-15.731-.672-.762-1.39-1.575-2.156-2.466-1.331-1.549-3.548-2.196-6.269-2.196z" fill="#1b57b8"/><path d="M352.236 35.686c-7.311 10.997-14.251 22.528-17.15 27.36-5.684 9.474-3.411 35.242-6.821 49.263s-3.493 29.603 3.789 34.863c6.562 4.739 18.031-1.04 28.002-3.511-.043-5.379-.351-11.69.345-18.648 2.021-20.211-19.828-12.704-19.828-16.747 0-5.832-3.789-25.011-.758-37.642 2.218-9.24 8.896-25.234 12.421-34.938z" fill="#1b57b8"/><path d="M338.439 149.723c-2.556 0-4.882-.541-6.824-1.943-8.005-5.781-7.201-22.817-4.079-35.649 1.405-5.777 1.845-13.767 2.27-21.493.603-10.961 1.226-22.294 4.636-27.978 2.382-3.971 9.633-16.054 17.169-27.389a.75.75 0 0 1 1.329.671c-.999 2.749-2.25 6.004-3.576 9.451-3.394 8.824-7.24 18.825-8.819 25.406-2.166 9.021-.783 21.605.132 29.933.361 3.288.646 5.885.646 7.534 0 .548 2.423.722 4.193.848 4.105.294 9.728.697 13.073 4.67 2.188 2.599 3.049 6.402 2.559 11.304-.554 5.545-.466 10.715-.388 15.277.019 1.131.038 2.229.046 3.29a.748.748 0 0 1-.57.733c-2.372.588-4.882 1.382-7.31 2.149-4.985 1.576-10.078 3.186-14.487 3.186zm10.708-107.948c-6.081 9.428-11.437 18.354-13.419 21.656-3.219 5.365-3.832 16.51-4.425 27.289-.429 7.794-.872 15.853-2.311 21.766-3.011 12.379-3.901 28.732 3.5 34.077 4.68 3.381 12.458.922 19.981-1.456 2.256-.713 4.583-1.448 6.826-2.028-.009-.873-.025-1.77-.041-2.688-.079-4.603-.168-9.82.396-15.451.448-4.484-.297-7.912-2.214-10.188-2.937-3.488-8.194-3.865-12.033-4.141-3.121-.223-5.585-.399-5.585-2.344 0-1.567-.281-4.128-.638-7.37-.926-8.431-2.326-21.172-.1-30.446 1.603-6.678 5.468-16.729 8.878-25.596.406-1.048.801-2.077 1.185-3.08z" fill="#1b57b8"/><path d="M326.026 161.951c7.796-12.968 46.577-49.714 57.944-56.463 12.126-7.2 22.933-5.684 31.453-1.516 14.767 7.225 75.411 60.632 77.684 67.074 2.274 6.442-7.914 3.464-15.158 0-8.716-4.168-15.914-18.159-20.084-19.326-10.608-2.97-47.368 21.979-78.821 24.632s-58.532-5.23-53.018-14.401z" fill="#52fffe"/><path d="M366.833 177.615c-20.089 0-37.484-4.177-41.437-10.525-1.11-1.782-1.114-3.693-.013-5.525 7.711-12.828 46.269-49.636 58.203-56.721 10.588-6.288 21.41-6.808 32.165-1.545 7.947 3.889 27.78 20.081 43.69 33.938 16.189 14.101 33.097 29.946 34.372 33.559.62 1.756.458 3.074-.482 3.918-3.126 2.81-13.632-1.999-15.707-2.991-5.057-2.418-9.605-8.028-13.261-12.535-2.627-3.239-5.108-6.3-6.702-6.745-4.556-1.281-15.037 3.247-27.171 8.483-15.187 6.556-34.088 14.714-51.385 16.173-4.139.349-8.261.515-12.272.516zm34.222-76.399c-5.601 0-11.183 1.64-16.703 4.916-11.514 6.837-50.253 43.844-57.684 56.205-.814 1.354-.814 2.65.001 3.959 3.918 6.296 25.875 11.535 52.311 9.308 17.053-1.438 35.83-9.544 50.917-16.056 12.906-5.571 23.103-9.969 28.17-8.552 2.054.575 4.44 3.519 7.462 7.245 3.561 4.391 7.991 9.854 12.743 12.127 6.674 3.192 12.587 4.548 14.057 3.229.445-.4.468-1.175.07-2.303-2.167-6.138-62.151-59.234-77.307-66.649-4.672-2.286-9.361-3.429-14.037-3.429zm-75.029 60.735h.01z" fill="#1b57b8"/><path d="M381.247 159.045c-.14-8.212-1.157-33.472 1.299-52.648-12.858 8.611-49.02 43.077-56.52 55.553-5.514 9.171 21.565 17.053 53.017 14.4 7.348-.62 14.984-2.464 22.51-4.877-6.75-3.29-20.197-6.021-20.306-12.428z" fill="#1b57b8"/><path d="M366.833 177.615c-20.089 0-37.484-4.177-41.437-10.525-1.11-1.782-1.114-3.693-.013-5.525 7.872-13.095 44.232-47.41 56.745-55.789a.749.749 0 0 1 1.162.718c-2.146 16.753-1.626 38.371-1.377 48.76.036 1.49.066 2.765.084 3.779.072 4.223 7.217 6.867 13.521 9.201 2.35.869 4.569 1.691 6.363 2.566a.75.75 0 0 1-.1 1.388c-8.535 2.737-15.952 4.343-22.676 4.91-4.139.35-8.261.517-12.272.517zm14.766-69.648c-14.217 10.168-48.031 42.894-54.931 54.37-.814 1.354-.814 2.65.001 3.959 3.918 6.296 25.875 11.535 52.311 9.308 6.113-.517 12.823-1.91 20.463-4.254-1.353-.565-2.869-1.126-4.445-1.71-6.754-2.5-14.41-5.335-14.5-10.582-.017-1.012-.048-2.282-.083-3.769-.243-10.085-.739-30.717 1.184-47.322z" fill="#1b57b8"/><path d="M359.348 168.014c-28.431 11.372-80.922 53.431-85.47 57.979-4.547 4.547 2.47-44.716 6.259-54.947 3.789-10.232 12.799-8.337 26.673-8.716 13.876-.379 45.728 1.894 52.538 5.684z" fill="#52fffe"/><path d="M273.349 227.04c-.279 0-.495-.105-.614-.182-3.715-2.382 3.711-48.006 6.7-56.073 3.374-9.11 10.847-9.122 21.189-9.139 1.963-.004 3.993-.007 6.167-.066 13.523-.364 45.897 1.87 52.922 5.779a.75.75 0 0 1-.086 1.351c-27.788 11.114-80.109 52.703-85.218 57.812-.398.399-.765.518-1.06.518zm36.709-64c-1.165 0-2.245.013-3.227.04-2.192.06-4.232.062-6.205.066-10.46.017-16.773.026-19.786 8.16-3.693 9.97-9.068 49.78-7.398 54.062 5.544-5.422 55.851-45.363 84.007-57.381-8.431-3.106-33.658-4.947-47.391-4.947z" fill="#1b57b8"/><path d="M351.38 205.151c16.067-7.254 70.863-32.589 98.147-32.211s70.557 7.057 78.063 14.021c22.737 21.095 19.2 67.792 10.232 79.124-.884-11.166-2.4-27.966-19.832-37.818-17.432-9.853-84-10.644-103.705-8.354s-84.269-5.117-62.905-14.762z" fill="#52fffe"/><path d="M537.822 266.835a.75.75 0 0 1-.747-.69c-.866-10.935-2.174-27.458-19.453-37.225-16.866-9.534-81.93-10.74-103.25-8.262-14.897 1.729-65.62-2.611-67.927-10.952-.775-2.8 3.291-4.635 4.627-5.238l.309.684-.309-.684 2.075-.938c18.997-8.603 69.215-31.343 95.764-31.343.212 0 .418.001.627.004 28.297.393 70.96 7.168 78.563 14.222 13.653 12.667 16.664 32.837 17.244 43.732.812 15.252-2.041 30.222-6.935 36.406a.751.751 0 0 1-.588.284zm-96.921-48.71c27.424 0 64.788 2.327 77.458 9.488 16.811 9.502 19.123 25.588 20.036 36.275 7.73-13.353 10.285-56.337-11.315-76.377-7.183-6.664-49.785-13.436-77.563-13.821-26.009-.361-78.51 23.397-95.752 31.205l-2.076.939c-2.728 1.231-4.077 2.464-3.799 3.471.625 2.259 8.17 5.586 27.473 8.152 14.71 1.955 30.679 2.658 38.836 1.71 5.449-.633 15.204-1.042 26.702-1.042z" fill="#1b57b8"/><path d="M347.101 204.988c-8.984.542-15.77 2.184-17.826 3.447s13.624 2.526 19.317 12.632c5.693 10.105 21.11 26.676 39.293 31.832 14.219 4.032 22.335 7.935 37.912 19.932 13.878 10.688 40.656 18.72 57.594 14.507-21.232-12.46-58.854-49.85-74.022-56.166s-48.972-26.985-62.268-26.184z" fill="#1b57b8"/><path d="M473.175 289.221c-16.56.001-36.781-7.283-47.834-15.797-16.148-12.437-24.327-16.024-37.659-19.805-18.735-5.312-34.32-22.561-39.742-32.185-3.684-6.539-11.812-9.268-16.179-10.734-2.417-.811-3.321-1.114-3.414-1.93-.021-.182-.01-.64.536-.975 2.207-1.356 9.158-3.014 18.173-3.558 9.455-.556 28.186 9.036 44.715 17.512 6.837 3.505 13.294 6.816 17.887 8.729 8.033 3.345 22.019 15.071 36.827 27.486 13.375 11.213 27.205 22.809 37.287 28.726a.75.75 0 0 1-.198 1.374c-3.189.794-6.704 1.157-10.399 1.157zm-142.698-80.554c.496.188 1.151.408 1.76.612 4.558 1.53 13.041 4.378 17.008 11.42 5.305 9.416 20.542 26.288 38.845 31.478 15.059 4.271 23.263 8.582 38.165 20.061 12.786 9.848 38.055 18.028 55.139 14.771-10.014-6.211-23.149-17.224-35.874-27.893-14.717-12.339-28.618-23.994-36.439-27.251-4.647-1.935-11.131-5.26-17.995-8.778-15.547-7.972-34.888-17.911-43.94-17.349-7.741.466-13.992 1.779-16.669 2.929z" fill="#1b57b8"/><path d="M78.412 154.877c6.821 0 22.769-3.048 39.663-4.547 16.616-1.474 42.698.042 56.845 5.937 16.918 7.049 32.342 25.861 58.032 26.274 15.411.248 13.895-10.851 24-9.604s16.036-16.291 14.955-28.922c-1.35-15.764-14.379-28.8-38.632-28.295s-75.87-1.399-102.316 7.326c-33.347 11.001-57.314 31.831-52.547 31.831z" fill="#73bdfd"/><path d="M233.448 183.294c-.167 0-.336-.001-.507-.004-17.292-.277-30.136-8.881-41.469-16.472-5.776-3.868-11.231-7.522-16.84-9.859-13.493-5.621-39.319-7.403-56.49-5.882-8.133.722-15.945 1.789-22.838 2.731-7.437 1.017-13.311 1.819-16.892 1.819-.871 0-1.262-.508-1.339-.983-.625-3.886 24.339-22.64 53.651-32.311 21.609-7.129 59.054-7.198 86.396-7.248 6.228-.012 11.606-.021 16.139-.116 22.378-.443 37.847 10.909 39.395 28.98.737 8.609-1.758 20.917-7.835 26.771-2.407 2.318-5.085 3.318-7.958 2.959-4.309-.528-6.27 1.303-8.754 3.624-2.862 2.676-6.41 5.991-14.659 5.991zm-102.259-34.252c15.393 0 33.122 1.991 44.02 6.532 5.744 2.394 11.259 6.088 17.098 9.998 11.16 7.476 23.809 15.947 40.658 16.218 8.018.147 11.254-2.904 14.118-5.581 2.55-2.383 4.96-4.629 9.962-4.017 2.403.299 4.669-.562 6.734-2.551 5.534-5.331 8.099-17.184 7.381-25.562-1.474-17.222-16.336-28.047-37.869-27.609-4.547.095-9.932.104-16.167.116-25.704.047-64.548.118-85.929 7.172-29.646 9.781-50.836 27.012-52.529 30.369 3.505-.037 9.231-.82 16.436-1.805 6.909-.944 14.74-2.015 22.908-2.739 4-.356 8.481-.541 13.179-.541z" fill="#1b57b8"/><path d="M216.425 175.719c-10.729-7.94-32.483-8.598-45.873-2.783-13.389 5.815-57.347 42.193-62.905 43.457-5.558 1.263-4.8 4.8 9.347 4.8s21.474 6.623 49.516 8.111c28.042 1.489 70.232-6.343 81.6-24.338 6.375-10.091 1.973-23.28-14.905-25.457-14.121-1.822-14.121-1.822-16.78-3.79z" fill="#73bdfd"/><path d="M173.453 230.233c-2.382 0-4.714-.06-6.982-.18-15.7-.834-25.011-3.288-32.493-5.26-6.042-1.593-10.815-2.851-16.983-2.851-4.828 0-12.977-.438-13.305-3.368-.143-1.271 1.239-2.334 3.792-2.914 2.365-.537 13.137-8.597 24.541-17.13 14.453-10.813 30.834-23.07 38.231-26.282 14.349-6.232 36.133-4.892 46.617 2.868 2.503 1.852 2.503 1.852 16.43 3.647 8.218 1.061 14.221 4.787 16.904 10.493 2.329 4.952 1.782 10.975-1.461 16.108-6.689 10.588-22.721 16.612-34.993 19.802-12.53 3.257-27.128 5.066-40.298 5.067zm17.757-60.442c-7.151 0-14.408 1.249-20.359 3.833-7.237 3.143-23.543 15.344-37.93 26.108-13.907 10.406-22.561 16.812-25.107 17.392-2.06.468-2.65 1.137-2.634 1.283.045.404 2.29 2.036 11.815 2.036 6.362 0 11.461 1.344 17.365 2.9 7.415 1.954 16.644 4.387 32.19 5.212 26.68 1.423 69.646-6.134 80.926-23.99 3.013-4.77 3.512-10.116 1.372-14.669-2.458-5.227-8.047-8.651-15.739-9.644-14.314-1.847-14.314-1.847-17.13-3.931-5.792-4.285-15.185-6.53-24.769-6.53z" fill="#1b57b8"/><path d="M166.258 191.627a.75.75 0 0 1-.365-1.406c1.384-.77 2.967-1.692 4.707-2.705 12.539-7.308 33.524-19.54 46.191-12.451a.75.75 0 0 1-.733 1.309c-11.917-6.668-32.441 5.294-44.704 12.438a283.557 283.557 0 0 1-4.733 2.72.746.746 0 0 1-.363.095zm202.61-31.319c-8.335 8.358-38.431 36.902-45.726 52.8-3.362 7.326.953 7.318 4.483.543 4.232-8.122 28.834-37.162 45.711-50.606 8.221-6.549 3.047-10.272-4.468-2.737z" fill="#1b57b8"/><path d="M322.849 219.419c-.249 0-.483-.052-.701-.158-.81-.396-1.846-1.764.312-6.465 6.522-14.213 30.657-38 42.255-49.431 1.445-1.425 2.674-2.636 3.622-3.586 3.245-3.255 6.504-4.892 8.508-4.276.742.228 1.248.78 1.387 1.516.323 1.704-1.292 4.115-4.429 6.614-17.354 13.824-41.479 42.626-45.513 50.365-1.745 3.349-3.867 5.421-5.441 5.421zm46.551-58.582c-.95.953-2.183 2.168-3.631 3.596-11.535 11.368-35.538 35.024-41.945 48.987-1.5 3.269-1.147 4.404-1.015 4.492.012.007.094.021.261-.031.896-.281 2.446-1.806 3.891-4.577 4.081-7.829 28.422-36.916 45.908-50.846 3.338-2.659 4.016-4.496 3.89-5.161-.026-.14-.087-.279-.354-.361-.96-.299-3.615.503-7.005 3.901zm99.406 13.161c-6.821-.603-13.419-.976-19.278-1.058-27.284-.379-82.081 24.957-98.147 32.211-16.102 7.27 16.604 13.267 42.131 14.8 9.811-2.672 17.091-8.349 23.661-16.922 8.538-11.141 14.339-25.541 28.744-27.057 9.581-1.009 17.537-.287 22.889-1.974z" fill="#1b57b8"/><path d="m393.511 220.701-.045-.001c-15.742-.946-45.838-4.508-47.074-11.22-.332-1.802 1.199-3.441 4.679-5.013l2.075-.938c18.997-8.603 69.215-31.343 95.764-31.343.212 0 .418.001.627.004 5.779.081 12.284.438 19.334 1.061a.751.751 0 0 1 .16 1.462c-3.305 1.042-7.528 1.191-12.417 1.363-3.19.113-6.807.24-10.62.642-10.856 1.142-16.653 9.816-22.792 19-1.733 2.593-3.525 5.274-5.436 7.768-7.028 9.171-14.673 14.633-24.059 17.189a.753.753 0 0 1-.196.026zm55.412-47.015c-26.236 0-78.046 23.46-95.158 31.209l-2.076.939c-2.645 1.194-4.002 2.393-3.821 3.374.743 4.035 21.172 8.51 45.565 9.986 9.12-2.512 16.263-7.644 23.145-16.622 1.881-2.455 3.66-5.116 5.379-7.689 6.06-9.066 12.326-18.442 23.881-19.658 3.865-.406 7.509-.535 10.724-.648 2.219-.078 4.297-.151 6.199-.306-4.736-.329-9.172-.524-13.243-.581a39.076 39.076 0 0 0-.595-.004z" fill="#1b57b8"/><path d="M464.18 259.466c-6.568-11.116-23.086-31.17-29.81-37.895-7.074-7.074-24.253-1.01-41.432-9.6-14.538-7.269-33.59-8.169-45.837-6.984 9.813.398 20.701 5.215 25.122 9.763 9.901 10.184 16.199 23.397 30.821 28.042 9.556 3.036 14.468 3.787 22.989 15.158 10.981 14.653 40.674 34.204 60.632 28.723-15.158-9.522-15.916-16.091-22.485-27.207z" fill="#52fffe"/><path d="M479.307 288.353c-7.828 0-17.028-2.671-26.679-7.829-10.923-5.839-21.344-14.315-27.196-22.123-7.682-10.25-12.186-11.648-20.363-14.188-.723-.225-1.473-.457-2.253-.705-10.683-3.394-17.116-11.397-23.337-19.138-2.461-3.062-5.006-6.228-7.794-9.097-4.157-4.274-14.75-9.136-24.614-9.536a.75.75 0 0 1-.042-1.496c13.012-1.258 31.993-.067 46.245 7.06 8.727 4.363 17.327 4.878 24.915 5.332 7.022.42 13.086.783 16.711 4.408 7.187 7.187 23.453 27.09 29.926 38.043 1.39 2.353 2.502 4.465 3.577 6.508 3.982 7.565 6.859 13.032 18.661 20.446a.75.75 0 0 1-.2 1.358c-2.331.641-4.863.957-7.557.957zm-124.583-83.037c7.671 1.808 14.751 5.533 18.036 8.912 2.838 2.919 5.406 6.113 7.888 9.202 6.362 7.915 12.371 15.392 22.622 18.647a312.9 312.9 0 0 0 2.244.702c8.198 2.546 13.146 4.083 21.119 14.721 10.783 14.39 38.936 32.635 58.138 28.848-10.913-7.171-13.925-12.894-17.696-20.058-1.066-2.026-2.17-4.123-3.541-6.442-6.308-10.674-22.726-30.777-29.695-37.746-3.222-3.223-8.746-3.553-15.74-3.972-7.349-.439-16.494-.986-25.496-5.487-11.411-5.706-25.955-7.52-37.879-7.327z" fill="#1b57b8"/><path d="M416.288 266.636a.743.743 0 0 1-.421-.13c-10.378-7.057-17.913-9.974-28.186-12.887-18.735-5.312-34.32-22.561-39.742-32.185a.748.748 0 1 1 1.306-.736c5.305 9.416 20.542 26.288 38.845 31.478 10.424 2.956 18.073 5.918 28.62 13.09a.75.75 0 0 1-.422 1.37z" fill="#73bdfd"/><path d="M288.549 206.887c5.653-4.463 20.958.158 29.863-.789s18.162-5.817 26.133-.919c7.972 4.898 9.67 40.709 10.049 47.909s.196 32.211-6.814 39.765c-9.374 10.101-31.908-28.775-42.638-53.028-8.377-18.934-22.408-28.347-16.593-32.938z" fill="#73bdfd"/><path d="M344.211 295.244c-.347 0-.703-.031-1.068-.092-11.283-1.888-29.717-34.753-38.687-55.024-3.625-8.194-8.271-14.523-12.005-19.609-4.944-6.735-8.211-11.185-4.367-14.22 3.756-2.964 11.221-2.203 18.44-1.467 4.19.428 8.521.871 11.809.521 2.524-.269 5.139-.872 7.668-1.456 6.392-1.476 13.004-3.003 18.937.645 5.4 3.317 8.892 19.471 10.38 48.01l.026.498c.423 8.042.043 32.711-7.014 40.313-1.161 1.25-2.543 1.88-4.119 1.881zm-47.271-89.585c-3.329 0-6.179.438-7.927 1.817-2.592 2.046-.32 5.389 4.646 12.154 3.776 5.145 8.477 11.547 12.168 19.89 9.497 21.465 27.429 52.457 37.562 54.152 1.519.247 2.774-.183 3.84-1.33 6.705-7.224 7.03-31.338 6.615-39.216l-.026-.498c-1.915-36.737-6.878-45.097-9.667-46.811-5.41-3.321-11.435-1.932-17.814-.46-2.572.594-5.232 1.208-7.847 1.486-3.44.364-7.853-.084-12.119-.521-3.231-.327-6.515-.663-9.431-.663zm-8.391 1.228h.01zM57.123 140.626c-29.847 8.499-43.742 27.706-47.784 33.05s37.154 15.671 36.953 20.621C46.091 199.246.749 298.507.749 298.507l230.504 210.175S78.732 289.512 77.631 259.238c-1.868-51.356-14.637-120.284-20.508-118.612z" fill="#1b57b8"/><path d="M231.254 509.432a.745.745 0 0 1-.505-.196L.245 299.061a.75.75 0 0 1-.177-.866C18.269 258.349 45.4 197.79 45.544 194.266c.071-1.743-10.255-5.812-17.087-8.504-11.929-4.701-19.232-7.769-20.065-10.734-.18-.64-.059-1.264.35-1.804l.309-.41c4.575-6.071 18.498-24.547 47.868-32.91.346-.097.887-.119 1.509.331 6.9 5.016 18.276 72.844 19.955 118.977 1.081 29.709 151.964 246.853 153.489 249.042a.751.751 0 0 1-.618 1.178zM1.659 298.321l225.197 205.337C202.792 468.879 77.895 287.1 76.882 259.266c-1.885-51.796-13.931-113.888-19.338-117.817-.117-.086-.194-.109-.216-.102-28.885 8.225-42.58 26.398-47.081 32.37l-.311.411c-.126.168-.155.306-.103.494.692 2.462 10.938 6.5 19.171 9.743 11.592 4.568 18.145 7.283 18.036 9.961-.196 4.882-39.775 91.718-45.381 103.995z" fill="#1b57b8"/></svg></g><g transform="translate(1533.75 1443.75) rotate(0.0 626.25 232.5) scale(3.756816259440782 3.7339800211993706)"><svg width="333.394" height="124.532" viewBox="0 0 333.394 124.532"><path d="M318.618 123.782H1.712v-3.284h.651l4.76-32.716h-.651v-3.284h312.146c16.358-.001 20.906 39.284 0 39.284z" fill="#1b57b8"/><path d="M318.618 124.531H1.712a.75.75 0 0 1-.75-.75v-3.284a.75.75 0 0 1 .75-.75h.003l4.546-31.246a.75.75 0 0 1-.539-.72v-3.284a.75.75 0 0 1 .75-.75h312.146c4.269 0 8.144 2.551 10.909 7.184 2.457 4.116 3.866 9.578 3.866 14.984.001 13.74-7.959 18.616-14.775 18.616zm-316.156-1.5h316.156c6.418 0 13.275-4.496 13.275-17.116 0-9.939-5.075-20.668-13.275-20.668H7.222v1.791a.749.749 0 0 1 .643.852l-4.76 32.716a.75.75 0 0 1-.644.635v1.79z" fill="#1b57b8"/><path d="M316.768 120.497H2.363l4.76-32.716h309.644c14.633.001 18.7 32.716.001 32.716z" fill="#fff"/><path d="M316.768 121.247H2.363a.748.748 0 0 1-.742-.859l4.76-32.716a.751.751 0 0 1 .742-.642h309.644c8.212 0 13.296 9.647 13.296 18.587 0 7.211-3.482 15.63-13.295 15.63zm-313.538-1.5h313.538c8.697 0 11.796-7.299 11.796-14.129 0-8.218-4.51-17.087-11.796-17.087H7.772z" fill="#1b57b8"/><path d="M160.063 87.782H7.123l-4.76 32.716h128.798z" fill="#73bdfd"/><path d="M293.496 97.312H192.191a.75.75 0 0 1 0-1.5h101.305a.75.75 0 0 1 0 1.5zm-32.084 7.578h-29.053a.75.75 0 0 1 0-1.5h29.053a.75.75 0 0 1 0 1.5zm55.356 16.357a.75.75 0 0 1 0-1.5c2.469 0 4.443-1.268 5.865-3.766 1.318-2.316 2.044-5.574 2.044-9.174 0-11.871-6.201-18.276-12.036-18.276a.75.75 0 0 1 0-1.5h4.128c3.838 0 7.323 2.139 9.813 6.023 2.213 3.451 3.482 8.03 3.482 12.563-.001 7.211-3.483 15.63-13.296 15.63zm1.529-32.581c5.152 3.257 7.879 10.872 7.879 18.142 0 3.855-.795 7.377-2.24 9.915-.267.469-.553.902-.859 1.301a10.329 10.329 0 0 0 2.654-2.54c1.826-2.475 2.832-5.979 2.832-9.865 0-7.627-3.883-15.814-10.266-16.953zm-148.413-.135H7.123a.75.75 0 0 1 0-1.5h162.76a.75.75 0 0 1 .001 1.5zm-14.577 32.716H2.363a.75.75 0 0 1 0-1.5h152.944a.75.75 0 0 1 0 1.5z" fill="#1b57b8"/><path d="M295.334 3.782c-1.196 3.151-1.705 6.442-3.6 11.368-4.921 3.566-10.055 29.463-10.8 40.168H21.544c-5.306 0 9.159-51.536 15.854-51.536h257.936z" fill="#fff"/><path d="M280.934 56.068H21.545c-1.896 0-1.896-2.916-1.896-3.874 0-10.469 11.102-49.163 17.749-49.163h257.937a.749.749 0 0 1 .701 1.016c-.512 1.349-.891 2.71-1.33 4.285-.56 2.009-1.194 4.286-2.271 7.087a.748.748 0 0 1-.26.338c-4.457 3.229-9.699 28.221-10.492 39.612a.75.75 0 0 1-.749.699zM37.398 4.531c-2.038 0-6.777 8.652-11.546 24.688-4.515 15.183-5.403 24.629-4.291 25.355l258.679-.007c.871-10.553 5.724-35.644 10.869-39.882 1.007-2.646 1.614-4.826 2.152-6.756.328-1.177.642-2.304 1.01-3.399H37.398z" fill="#1b57b8"/><path d="M206.362 3.782H37.397c-6.695 0-21.158 51.537-15.853 51.537h73.361c29.028-16.389 80.424-40.653 111.457-51.537z" fill="#73bdfd"/><g fill="#1b57b8"><path d="M37.398.75h261.916v3.032H37.398z"/><path d="M299.313 4.531H37.398a.75.75 0 0 1-.75-.75V.75a.75.75 0 0 1 .75-.75h261.916a.75.75 0 0 1 .75.75v3.031a.751.751 0 0 1-.751.75zm-261.165-1.5h260.416V1.5H38.148zM291.734 15.9h-19.459a.75.75 0 0 1 0-1.5h19.459a.75.75 0 0 1 0 1.5zm-35.88 0h-87.499a.75.75 0 0 1 0-1.5h87.499a.75.75 0 0 1 0 1.5zm24.758 11.999H117.159a.75.75 0 0 1 0-1.5h163.453a.75.75 0 0 1 0 1.5zm-20.716 6.822H118.998a.75.75 0 0 1 0-1.5h140.898a.75.75 0 0 1 0 1.5zm-19.453 5.305h-43.958a.75.75 0 0 1 0-1.5h43.958a.75.75 0 0 1 0 1.5z"/><path d="M280.934 56.068H21.545c-1.896 0-1.896-2.916-1.896-3.874 0-10.469 11.102-49.163 17.749-49.163h257.937a.749.749 0 0 1 .701 1.016c-.512 1.349-.891 2.71-1.33 4.285-.56 2.009-1.194 4.286-2.271 7.087a.748.748 0 0 1-.26.338c-4.457 3.229-9.699 28.221-10.492 39.612a.75.75 0 0 1-.749.699zM37.398 4.531c-2.038 0-6.777 8.652-11.546 24.688-4.515 15.183-5.403 24.629-4.291 25.355l258.679-.007c.871-10.553 5.724-35.644 10.869-39.882 1.007-2.646 1.614-4.826 2.152-6.756.328-1.177.642-2.304 1.01-3.399H37.398z"/><path d="M17.463 55.318C12.158 55.318 26.558.75 33.252.75h6.286L38.07 3.782c-2.179 0-3.179 1.496-4.635 3.979-7.087 12.087-16.291 47.558-11.89 47.558h-4.082z"/><path d="M21.545 56.068h-4.082c-1.9 0-1.9-3.07-1.9-4.079 0-5.771 2.62-18.225 6.37-30.284C25.014 11.804 29.477 0 33.253 0h6.286a.75.75 0 0 1 .675 1.078l-1.468 3.031a.749.749 0 0 1-.675.423c-1.695 0-2.517 1.1-3.988 3.608-7.564 12.9-14.943 44.757-12.531 46.429a.747.747 0 0 1 .291.061.743.743 0 0 1 .461.692.756.756 0 0 1-.759.746zm-4.05-1.489h.01zm-.015-.011h2.439c-1.834-6.537 6.829-36.888 12.869-47.187 1.232-2.102 2.399-4.094 4.801-4.328l.753-1.553h-5.089c-1.647 0-5.411 6.356-9.781 20.312-5.489 17.531-7.381 31.686-5.992 32.756z"/><path d="M315.04 84.497H.75v-2.179h.641l2.154-24.821h-.641v-2.179H315.04c10.231 0 12.379 29.179 0 29.179z"/><path d="M315.04 85.247H.75a.75.75 0 0 1-.75-.75v-2.179a.75.75 0 0 1 .703-.749l2.025-23.343a.75.75 0 0 1-.575-.729v-2.179a.75.75 0 0 1 .75-.75H315.04c6.007 0 9.248 8.435 9.248 16.371 0 3.783-.757 7.243-2.13 9.741-1.644 2.988-4.105 4.567-7.118 4.567zM1.5 83.747h313.54c2.468 0 4.42-1.275 5.803-3.79 1.254-2.28 1.945-5.482 1.945-9.018 0-7.152-2.962-14.871-7.748-14.871H3.654v.687a.748.748 0 0 1 .638.806L2.139 82.383a.75.75 0 0 1-.638.678v.686z"/></g><path d="M314.282 82.318H1.391l2.154-24.821h310.737c8.704 0 10.531 24.821 0 24.821z" fill="#fff"/><path d="M314.282 83.068H1.391a.75.75 0 0 1-.747-.814l2.154-24.821a.75.75 0 0 1 .747-.686h310.737c5.183 0 7.979 7.232 7.979 14.038 0 3.237-.649 6.199-1.826 8.34-1.418 2.58-3.546 3.943-6.153 3.943zm-312.073-1.5h312.073c2.055 0 3.683-1.065 4.839-3.166 1.058-1.923 1.64-4.628 1.64-7.617 0-6.03-2.477-12.538-6.479-12.538H4.233z" fill="#1b57b8"/><path d="M169.208 57.497H3.545L1.391 82.318h143.352c7.407-8.533 16.502-17.993 24.465-24.821z" fill="#73bdfd"/><path d="M314.282 83.068h-6.316a.75.75 0 0 1 0-1.5c2.483 0 4.441-1.125 5.819-3.343 1.235-1.987 1.915-4.769 1.915-7.83 0-5.972-2.61-12.148-6.977-12.148a.75.75 0 0 1 0-1.5h5.558c5.182 0 7.979 7.232 7.979 14.038 0 3.237-.649 6.199-1.826 8.34-1.417 2.58-3.545 3.943-6.152 3.943zm-1.541-1.5h1.542c2.055 0 3.683-1.065 4.839-3.166 1.058-1.923 1.64-4.628 1.64-7.617 0-6.03-2.477-12.538-6.479-12.538h-1.528c2.91 2.418 4.446 7.391 4.446 12.148 0 3.338-.76 6.399-2.141 8.622-.653 1.049-1.431 1.903-2.319 2.551z" fill="#1b57b8"/></svg></g><g transform="translate(982.5 2441.25) rotate(0.0 645.0 260.625) scale(3.753688216910802 3.7639999133467645)"><svg width="343.662" height="138.483" viewBox="0 0 343.662 138.483"><g fill="#1b57b8"><path d="m51.549 53.745-15.414 1.619a1.985 1.985 0 0 1-2.18-1.765l-.455-4.334a1.985 1.985 0 0 1 1.765-2.18l15.414-1.619a4.162 4.162 0 1 1 .87 8.279zm199.757 41.982c-7.209.001-17.071-2.793-26.447-7.627-4.488-2.313-10.682-4.46-17.854-6.944-11.614-4.022-26.068-9.029-38.123-16.788-5.094-3.278-10.787-7.454-16.815-11.876-16.39-12.022-34.973-25.658-47.152-25.107-15.898.71-29.407-1.994-41.305-8.257-4.59-2.416-8.985-5.575-13.236-8.63-5.568-4.003-10.828-7.782-14.896-8.513a1.001 1.001 0 0 1 .353-1.969c4.514.811 9.702 4.539 15.71 8.857 4.195 3.015 8.533 6.133 13 8.484 11.575 6.093 24.753 8.717 40.284 8.028 12.872-.61 31.767 13.274 48.424 25.493 6.002 4.402 11.672 8.562 16.715 11.807 11.854 7.629 25.583 12.384 37.695 16.58 7.245 2.51 13.502 4.677 18.116 7.057 10.859 5.599 22.282 8.387 29.104 7.105a1 1 0 1 1 .369 1.965c-1.192.225-2.515.335-3.942.335z"/><path d="M114.419 138.476c-16.238 0-39.505-8.404-47.317-13.877-3.168-2.22-6.264-5.644-9.258-8.954-5.304-5.865-10.313-11.406-14.823-9.688-3.049 1.161-6.02 3.45-9.165 5.873-4.762 3.669-10.159 7.827-17.012 8.771a1 1 0 1 1-.273-1.981c6.326-.873 11.277-4.687 16.065-8.375 3.265-2.516 6.35-4.892 9.674-6.158 5.787-2.205 11.242 3.828 17.019 10.216 2.919 3.229 5.938 6.567 8.922 8.657 8.594 6.021 36.353 15.696 51.744 13.096 5.568-.938 18.161-2.26 32.742-3.788 27.254-2.858 61.172-6.415 72.871-9.827 11.558-3.371 17.736-13.322 22.246-20.587 2.51-4.044 4.493-7.238 6.777-8.344 2.292-1.109 11.677-1.895 28.066-3.188 20.175-1.592 50.665-3.998 54.035-7.882 2.938-3.385 2.668-6.104 2.356-9.252-.271-2.732-.55-5.558 1.32-8.831 1.251-2.188 1.569-3.796.945-4.776-.683-1.074-3.013-2.236-10.227-1.645-1.88.152-5.882.29-11.422.481-23.645.813-72.847 2.508-84.772 9.753-12.016 7.301-40.156 24.398-58.877 24.398-17.659 0-71.02-1.867-84.738-2.461-5.401-.228-7.937 1.438-8.052 3.198-.129 1.967 2.736 5.006 9.51 5.604 4.521.398 11.78.654 20.185.95 15.011.527 33.692 1.185 43.574 3.03 8.021 1.499 17.555.908 27.65.283 8.634-.534 17.562-1.087 25.883-.295 3.1.294 7.217.97 7.18 3.425-.078 5.148-23.377 10.498-44.158 11.843-28.142 1.818-60.361-1.793-81.682-4.184-3.1-.348-5.947-.667-8.488-.937-22.132-2.341-29.033-16.306-31.177-24.423-1.882-7.126 1.636-11.78 5.039-16.281 1.646-2.178 3.349-4.431 4.386-6.932 1.266-3.053 1.106-6.477-.45-9.642-1.583-3.222-4.076-5.168-5.722-5.613a1 1 0 1 1 .522-1.931c2.567.694 5.378 3.371 6.995 6.661 1.813 3.689 1.992 7.699.503 11.29-1.135 2.738-2.916 5.094-4.638 7.372-3.258 4.309-6.334 8.38-4.7 14.564 2.012 7.619 8.515 20.73 29.454 22.945 2.545.269 5.396.589 8.5.937 21.25 2.384 53.365 5.988 81.33 4.176 27.398-1.772 42.151-8.033 42.287-9.878v.001c-.007 0-.533-.944-5.37-1.404-8.163-.774-17.013-.229-25.57.301-10.221.634-19.875 1.23-28.14-.312-9.735-1.818-28.333-2.473-43.277-2.999-8.433-.296-15.717-.553-20.29-.956-7.727-.682-11.548-4.403-11.33-7.728.166-2.531 2.919-5.369 10.135-5.064 12.173.526 66.976 2.459 84.652 2.459 18.161 0 45.966-16.894 57.839-24.107 12.371-7.517 61.927-9.223 85.742-10.043 5.512-.189 9.495-.327 11.328-.477 6.776-.551 10.614.265 12.077 2.565 1.068 1.68.775 3.917-.896 6.842-1.554 2.72-1.317 5.11-1.066 7.642.312 3.151.666 6.725-2.836 10.76-3.619 4.171-26.219 6.264-55.389 8.565-13.004 1.026-25.287 1.995-27.352 2.995-1.761.853-3.702 3.979-5.949 7.598-4.681 7.54-11.092 17.866-23.385 21.452-11.872 3.462-45.889 7.029-73.222 9.896-14.548 1.526-27.112 2.844-32.618 3.772-1.823.308-3.809.449-5.912.449z"/><path d="M249.938 94.186c.381.92 1.346 2.182 1.987 3.368.533.987 4.124-2.965 3.998-3.527-.208-.924-6.453-.972-5.985.159zM15.921 120.622 2.32 122.963a1.34 1.34 0 1 1-.455-2.643l13.601-2.341a1.34 1.34 0 1 1 .455 2.643z"/><path d="M2.087 123.733c-.428 0-.845-.132-1.202-.384a2.094 2.094 0 0 1 .852-3.77l13.602-2.341c.55-.095 1.105.03 1.562.353.456.322.76.804.854 1.354a2.082 2.082 0 0 1-.353 1.562 2.08 2.08 0 0 1-1.354.854l-13.601 2.341a2.101 2.101 0 0 1-.36.031zm13.608-5.024a.586.586 0 0 0-.102.009l-13.602 2.341a.594.594 0 0 0-.483.684.589.589 0 0 0 .683.482l13.602-2.341h.001a.59.59 0 0 0 .24-1.065.574.574 0 0 0-.339-.11z"/><path d="M25.2 117.65c-.253-1.472-1.104-2.553-1.91-2.44l-.001-.005-.022.004h-.003l-.003.001-16.157 3.137.817 4.748 16.3-2.476-.005-.032c.796-.161 1.237-1.465.984-2.937z"/><path d="M7.919 123.847a.749.749 0 0 1-.738-.623l-.817-4.749a.75.75 0 0 1 .596-.863l16.157-3.137.027-.005a.678.678 0 0 1 .101-.01c1.218-.136 2.369 1.18 2.693 3.063.307 1.784-.259 3.324-1.33 3.729a.66.66 0 0 1-.276.108l-16.301 2.477a.59.59 0 0 1-.112.01zm.047-4.903.568 3.301 15.365-2.335a.713.713 0 0 1 .165-.056c.211-.044.612-.825.396-2.077-.215-1.253-.855-1.848-1.067-1.824l-.043.005zm33.281-66.953-13.726 1.442a1.341 1.341 0 1 1-.28-2.668l13.726-1.442a1.341 1.341 0 1 1 .28 2.668z"/><path d="M27.38 54.19a2.096 2.096 0 0 1-2.079-1.874 2.075 2.075 0 0 1 .455-1.534 2.078 2.078 0 0 1 1.407-.764l13.726-1.442a2.087 2.087 0 0 1 2.298 1.862 2.075 2.075 0 0 1-.455 1.534 2.078 2.078 0 0 1-1.406.764L27.6 54.179a2.038 2.038 0 0 1-.22.011zm13.727-4.126c-.021 0-.041.002-.062.004L27.32 51.511a.59.59 0 1 0 .123 1.176l13.726-1.442a.59.59 0 0 0 .526-.65.592.592 0 0 0-.588-.531z"/></g></svg></g><g transform="translate(2272.5 862.5) rotate(0.0 -1100.625 832.5) scale(-3.7469679560832376 3.749636859493337)"><svg width="587.475" height="444.043" viewBox="0 0 587.475 444.043"><g fill="#1b57b8"><path d="m510.117 332.536-323.728-88.742L250.018 2.737s2.246-.833 3.816-1.421c.902-.337 1.813-.73 2.815-.496l328.545 76.8a1.999 1.999 0 0 1 1.458 2.484l-67.84 247.478a7.076 7.076 0 0 1-8.695 4.954z"/><path d="M512 333.542a7.852 7.852 0 0 1-2.082-.282L186.19 244.518a.75.75 0 0 1-.527-.915l63.63-241.057a.75.75 0 0 1 .464-.512s2.245-.833 3.814-1.42l.194-.073c.892-.336 1.902-.718 3.053-.45l328.545 76.8c.727.17 1.338.619 1.721 1.262.388.652.491 1.416.289 2.15l-67.84 247.478a7.777 7.777 0 0 1-3.673 4.731 7.775 7.775 0 0 1-3.86 1.03zm-324.696-90.274 323.011 88.545a6.29 6.29 0 0 0 4.804-.604 6.287 6.287 0 0 0 2.97-3.824l67.84-247.478a1.264 1.264 0 0 0-.132-.986 1.217 1.217 0 0 0-.774-.568l-328.545-76.8c-.705-.165-1.423.105-2.182.393l-.199.075c-1.184.443-2.753 1.026-3.453 1.286z"/><path d="M513.254 335.343v-1.947l-330.552-87.202L.754 333.044s-.009 2.844 0 3.439c.01.666.409 1.324 1.163 1.559l337.47 104.987a5.855 5.855 0 0 0 4.842-.625l167.783-104.821a2.643 2.643 0 0 0 1.242-2.24z"/><path d="M341.128 444.044a6.61 6.61 0 0 1-1.964-.299L1.694 338.758a2.372 2.372 0 0 1-1.69-2.263c-.009-.598 0-3.453 0-3.453a.75.75 0 0 1 .427-.674l181.948-86.851a.75.75 0 0 1 .515-.048l330.552 87.202a.75.75 0 0 1 .559.725v1.947a3.371 3.371 0 0 1-1.594 2.875L344.627 443.04a6.602 6.602 0 0 1-3.499 1.004zM1.502 333.518c-.002.832-.005 2.513.001 2.954.005.318.174.71.636.854l337.47 104.987a5.098 5.098 0 0 0 4.222-.545l167.783-104.821c.557-.347.889-.946.889-1.603v-1.37L182.776 246.99z"/></g><path d="m513.254 333.396-330.552-90.612L247.837 5.173a3.661 3.661 0 0 1 4.366-2.597l328.506 76.94a1.988 1.988 0 0 1 1.464 2.462z" fill="#73bdfd"/><path d="M513.254 334.146a.723.723 0 0 1-.199-.027l-330.552-90.612a.75.75 0 0 1-.525-.921L247.114 4.975a4.397 4.397 0 0 1 5.26-3.129L580.88 78.785a2.72 2.72 0 0 1 1.729 1.267c.384.646.486 1.4.288 2.124l-68.92 251.418a.752.752 0 0 1-.723.552zm-329.631-91.887 329.105 90.216L581.45 81.78c.089-.328.043-.668-.13-.96s-.451-.496-.782-.573L252.032 3.306a2.898 2.898 0 0 0-3.472 2.065z" fill="#1b57b8"/><path d="m254.447 11.318 318.361 74.564-65.155 237.684-315.121-86.383z" fill="#52fffe"/><path d="M507.653 324.315a.744.744 0 0 1-.198-.027l-315.121-86.382a.75.75 0 0 1-.525-.921L253.724 11.12a.746.746 0 0 1 .894-.532l318.361 74.563a.752.752 0 0 1 .553.929l-65.155 237.684a.75.75 0 0 1-.724.551zm-314.199-87.657 313.675 85.986 64.75-236.209L254.98 12.213z" fill="#1b57b8"/><path d="m513.254 333.396-330.552-90.612L1.68 331.565c-1.344.659-1.192 2.621.237 3.066l337.47 104.987a5.855 5.855 0 0 0 4.842-.625z" fill="#73bdfd"/><path d="M341.128 440.633a6.61 6.61 0 0 1-1.964-.299L1.694 335.347a2.392 2.392 0 0 1-1.683-2.111 2.39 2.39 0 0 1 1.339-2.344l181.021-88.782a.737.737 0 0 1 .528-.05l330.552 90.612a.75.75 0 0 1 .199 1.359L344.627 439.629a6.605 6.605 0 0 1-3.499 1.004zM182.777 243.582 2.01 332.239a.883.883 0 0 0-.503.882.884.884 0 0 0 .633.794l337.47 104.987a5.095 5.095 0 0 0 4.222-.545l167.572-104.689z" fill="#1b57b8"/><path d="m400.228 381.916 73.226-45.748-289.718-79.419-77.769 37.725z" fill="#1b57b8"/><path d="M400.228 382.666a.744.744 0 0 1-.214-.031l-294.261-87.441a.751.751 0 0 1-.114-1.394l77.77-37.725a.74.74 0 0 1 .525-.048l289.718 79.419a.75.75 0 0 1 .199 1.359l-73.227 45.748a.754.754 0 0 1-.396.113zm-292.195-88.36L400.117 381.1l71.488-44.661-287.795-78.892z" fill="#1b57b8"/><path d="m111.917 354.627 121.675 36.6 51.865-32.403-115.72-34.801z" fill="#73bdfd"/><path d="M233.592 391.977a.73.73 0 0 1-.216-.032l-121.675-36.599a.751.751 0 0 1-.135-1.382l57.82-30.604a.756.756 0 0 1 .567-.055l115.72 34.801a.75.75 0 0 1 .181 1.355l-51.865 32.402a.75.75 0 0 1-.397.114zm-119.709-37.541 119.6 35.975 50.172-31.345-113.84-34.236z" fill="#1b57b8"/></svg></g><g transform="translate(11.25 2216.25) rotate(0.0 566.25 320.625) scale(3.7820093239470483 3.780130513979851)"><svg width="299.444" height="169.637" viewBox="0 0 299.444 169.637"><path d="M34.355 121.6C12.278 102.582-10.56 85.943 6.973 70.751s76.154-9.163 76.154-9.163l-47.485 27.67z" fill="#1b57b8"/><path d="M34.355 122.35a.748.748 0 0 1-.49-.182c-1.86-1.603-3.725-3.188-5.571-4.756C13.771 105.068.053 93.41 0 82.431c-.021-4.442 2.099-8.448 6.481-12.245 7.406-6.418 22.589-9.938 45.125-10.462 16.699-.395 31.449 1.104 31.596 1.119a.75.75 0 0 1 .301 1.395l-47.13 27.461-1.271 31.932a.748.748 0 0 1-.747.719zm23.053-61.168c-17.95 0-40.363 1.835-49.944 10.137-4.032 3.494-5.983 7.125-5.964 11.105.049 10.29 13.512 21.731 27.766 33.845 1.459 1.24 2.93 2.49 4.401 3.751l1.225-30.792a.75.75 0 0 1 .372-.618l45.449-26.482a295.206 295.206 0 0 0-23.305-.946z" fill="#1b57b8"/><ellipse cx="232.057" cy="49.614" fill="#73bdfd" rx="46.616" ry="63.629" transform="matrix(.3381 -.9411 .9411 .3381 106.8976 251.2257)"/><path d="M244.181 99.196c-13.238 0-27.407-3.422-40.355-10.487-17.708-9.661-29.898-24.212-33.444-39.921-2.457-10.887-.46-21.186 5.774-29.783 15.582-21.488 53.323-25.297 84.131-8.485 17.709 9.662 29.899 24.214 33.444 39.923 2.457 10.885.46 21.184-5.774 29.781-9.033 12.457-25.517 18.972-43.776 18.972zM219.89 1.511c-17.77 0-33.765 6.303-42.519 18.375-5.974 8.238-7.885 18.118-5.525 28.571 3.45 15.289 15.369 29.48 32.699 38.936 30.168 16.46 67.042 12.848 82.199-8.05 5.974-8.238 7.884-18.118 5.525-28.57-3.45-15.289-15.369-29.48-32.699-38.937-12.743-6.952-26.687-10.325-39.68-10.325zm67.46 78.272h.01z" fill="#1b57b8"/><ellipse cx="228.018" cy="52.523" fill="#73bdfd" rx="46.616" ry="64.578" transform="matrix(.3381 -.9411 .9411 .3381 101.4874 249.3497)"/><path d="M240.897 102.246c-13.513 0-28.025-3.493-41.294-10.694-18.129-9.839-30.573-24.586-34.141-40.461-2.427-10.801-.427-20.999 5.784-29.493C186.93.149 225.145-3.487 256.433 13.494c18.129 9.84 30.573 24.588 34.141 40.463 2.427 10.8.427 20.998-5.784 29.491l-.605-.442.605.442c-9.033 12.353-25.541 18.798-43.893 18.798zm-25.803-97.97c-17.861 0-33.884 6.235-42.637 18.206-5.948 8.135-7.861 17.914-5.531 28.279 3.422 15.226 15.906 29.981 33.393 39.472 30.653 16.635 68.004 13.194 83.261-7.671 5.948-8.135 7.861-17.913 5.531-28.277-3.422-15.226-15.905-29.982-33.393-39.474-13.067-7.09-27.353-10.535-40.624-10.535z" fill="#1b57b8"/><path d="M167.382 30.279c-6.557 5.987-24.367 30.33-24.367 30.33s-.758 15.843 18.189 19.435 19.104-23.114 19.104-23.114z" fill="#1b57b8"/><path d="M164.565 81.126c-1.119 0-2.286-.115-3.501-.345-19.364-3.671-18.807-20.043-18.799-20.208a.746.746 0 0 1 .144-.406c.729-.997 17.93-24.473 24.467-30.441a.748.748 0 0 1 1.18.226l12.927 26.65a.75.75 0 0 1 .075.332c-.004.603-.176 14.84-7.917 21.214-2.407 1.982-5.281 2.978-8.576 2.978zm-20.806-20.263c-.017 1.948.505 15.206 17.585 18.443 4.332.821 7.98.043 10.843-2.315 6.773-5.577 7.325-18.277 7.368-19.896l-12.399-25.563c-6.598 6.529-21.782 27.132-23.397 29.331z" fill="#1b57b8"/><path d="M156.331 60.72c23.453.927 38.224 7.759 38.224 7.759l-3.243-44.246s-12.214-4.206-35.676-4.865c-61.853-1.737-81.741.943-104.479 8.34-12.714 4.136-25.174 12.019-26.767 22.577-.816 5.41 1.221 11.523 7.539 18.193 4.149 4.381 10.137 8.216 17.307 11.545a327.25 327.25 0 0 0 4.357-2.883C73.802 63.5 97.721 58.404 156.331 60.72z" fill="#73bdfd"/><path d="M49.237 80.774a.763.763 0 0 1-.316-.069c-7.635-3.546-13.535-7.485-17.535-11.71-6.053-6.391-8.656-12.724-7.736-18.821 1.421-9.42 11.618-18.084 27.277-23.178 22.584-7.347 42.129-10.132 104.732-8.377 23.307.655 35.776 4.863 35.899 4.906a.749.749 0 0 1 .504.654l3.243 44.245a.75.75 0 0 1-1.063.735c-.146-.067-14.927-6.78-37.939-7.69-62.065-2.452-83.831 3.834-102.288 16.293a346.042 346.042 0 0 1-4.367 2.89.758.758 0 0 1-.411.122zm74.599-61.165c-38.251 0-54.382 2.936-72.447 8.812-15.107 4.914-24.923 13.13-26.257 21.977-.847 5.617 1.623 11.526 7.342 17.565 3.805 4.018 9.423 7.786 16.702 11.204 1.331-.869 2.668-1.75 3.999-2.649 18.721-12.637 40.712-19.022 103.187-16.547 19.657.776 33.419 5.751 37.357 7.34l-3.116-42.517c-2.445-.749-14.436-4.099-34.986-4.676-12.098-.339-22.579-.509-31.781-.509z" fill="#1b57b8"/><path d="M164.293 119.591c0-9.409 3.594-18.609 9.764-26.729-6.162 2.4-15.66 5.04-27.918 5.04-25.999 0-69.875-5.329-96.902-17.878-13.945 9.096-27.004 16.873-23.993 28.455.859 3.306 3.028 6.922 6.86 10.968 19.79 20.894 81.139 26.867 114.035 26.867 11.157 0 20.026-2.187 26.176-4.389-5.096-6.255-8.022-13.849-8.022-22.334z" fill="#73bdfd"/><path d="M146.138 147.063c-30.752 0-94.276-5.664-114.58-27.102-3.807-4.02-6.111-7.714-7.041-11.295-2.997-11.528 9.264-19.493 22.244-27.926l2.066-1.344a.76.76 0 0 1 .726-.053c28.14 13.066 73.178 17.809 96.586 17.809 12.26 0 21.801-2.713 27.646-4.989a.75.75 0 0 1 .869 1.153c-6.288 8.275-9.612 17.361-9.612 26.275 0 7.994 2.716 15.553 7.854 21.859a.75.75 0 0 1-.328 1.18c-8.215 2.942-17.107 4.433-26.43 4.433zm-96.84-66.184-1.72 1.119C34.521 90.48 23.244 97.807 25.969 108.29c.865 3.329 3.05 6.81 6.678 10.641 19.953 21.066 82.961 26.633 113.491 26.633 8.776 0 17.159-1.345 24.934-3.999-4.93-6.404-7.53-13.979-7.53-21.973 0-8.524 2.917-17.182 8.458-25.174-6.032 2.096-14.88 4.234-25.862 4.234-23.435 0-68.456-4.738-96.84-17.773zm104.074-19.52a.749.749 0 0 1-.691-.46c-.095-.227-2.323-5.687-2.312-18.423.006-7.135 1.685-18.75 2.656-21.446.455-1.263 1.05-2.049 1.768-2.337.476-.19.92-.123 1.177.004a.751.751 0 0 1-.587 1.378c-.112.019-.524.292-.946 1.463-.82 2.276-2.561 13.646-2.568 20.94-.011 12.381 2.173 17.789 2.195 17.842a.75.75 0 0 1-.692 1.039zm1.932-41.318c0 .001 0 .001 0 0z" fill="#1b57b8"/><ellipse cx="225.588" cy="55.976" fill="#1b57b8" rx="46.616" ry="64.578" transform="matrix(.3381 -.9411 .9411 .3381 96.6297 249.3484)"/><ellipse cx="225.588" cy="55.976" fill="#73bdfd" rx="17.58" ry="35.974" transform="matrix(.3381 -.9411 .9411 .3381 96.6297 249.3484)"/><path d="m236.42 166.251-11.285-3.281 6.029-24.064 22.993 4.659-14.511 20.969z" fill="#1b57b8"/><path d="M236.42 167.001a.744.744 0 0 1-.209-.03l-11.286-3.281a.75.75 0 0 1-.518-.902l6.029-24.063a.75.75 0 0 1 .876-.553l22.993 4.659a.752.752 0 0 1 .468 1.162l-14.511 20.968a.745.745 0 0 1-.264.235l-3.225 1.718a.753.753 0 0 1-.353.087zm-10.382-4.55 10.299 2.994 2.796-1.488 13.76-19.883-21.176-4.291z" fill="#1b57b8"/><ellipse cx="220.603" cy="102.784" fill="#1b57b8" rx="74.268" ry="55.163" transform="matrix(.9614 -.2752 .2752 .9614 -19.7684 64.6803)"/><path d="M225.698 55.929c-40.314 4.95-72.996 34.09-72.996 65.086 0 30.866 32.41 51.924 72.491 47.213 3.012-1.79 6.911-4.235 7.413-5.866.695-2.259 3.562-14.595 3.562-14.595.518-2.214 7.658-2.933 7.558-1.477s-2.606 12.51-3.041 14.508c-.286 1.315-2.155 3.569-4.264 5.453 35.23-8.314 62.274-34.967 62.274-63.162-.001-30.996-32.682-52.11-72.997-47.16z" fill="#73bdfd"/><path d="M214.003 169.643c-18.595 0-35.302-5.602-46.97-15.979-9.866-8.774-15.081-20.064-15.081-32.649 0-31.312 33.041-60.844 73.655-65.83 23.168-2.846 44.547 2.681 58.653 15.16 9.934 8.788 15.185 20.111 15.185 32.745 0 13.748-6.444 27.8-18.144 39.564-11.543 11.608-27.421 20.247-44.708 24.326a.75.75 0 0 1-.671-1.289c2.109-1.883 3.804-4.008 4.031-5.053l.392-1.769c.731-3.285 2.399-10.784 2.613-12.44-.58-.235-2.612-.244-4.414.383-1.11.387-1.578.835-1.646 1.125-.117.504-2.88 12.387-3.575 14.645-.559 1.815-4.053 4.097-7.746 6.291a.756.756 0 0 1-.295.101 96.829 96.829 0 0 1-11.279.669zm23.41-113.692c-3.803 0-7.685.238-11.623.722-39.887 4.898-72.337 33.762-72.337 64.342 0 12.145 5.041 23.047 14.578 31.529 13.632 12.124 34.371 17.572 56.917 14.958 1.76-1.046 6.488-3.889 6.942-5.361.679-2.208 3.52-14.421 3.548-14.544.541-2.312 5.347-3.04 7.315-2.746 1.63.245 1.747 1.124 1.722 1.491-.076 1.107-1.326 6.832-2.666 12.854l-.39 1.762c-.239 1.101-1.3 2.561-2.522 3.9 33.847-8.992 59.048-35.165 59.048-61.768 0-12.191-5.076-23.126-14.678-31.622-11.398-10.083-27.696-15.517-45.854-15.517z" fill="#1b57b8"/><path d="m258.635 147.159-54.943 6.746c-17.773 2.182-32.181-12.377-32.181-30.15 0-17.773 13.172-35.617 30.945-37.799l54.943-6.746c17.773-2.182 33.417 12.124 33.417 29.897 0 17.772-14.408 35.87-32.181 38.052z" fill="#1b57b8"/><path d="m257.451 143.161-48.649 5.973c-15.737 1.932-28.494-9.259-28.494-24.996 0-15.737 12.757-30.061 28.494-31.993l48.649-5.973c15.737-1.932 28.494 9.259 28.494 24.996.001 15.737-12.757 30.06-28.494 31.993z" fill="#73bdfd"/><path d="M248.248 80.574c-.191-2.688-.945-6.245-1.765-9.429-.927-3.595-5.76-13.407-8.11-16.563s-10.079-2.548-8.144.901c1.936 3.449 7.183 12.535 8.11 16.01s1.767 7.409 1.81 10.075zm-194.766.22a.743.743 0 0 1-.346-.085c-6.405-3.337-11.3-10.133-13.095-18.18-1.438-6.451-.56-12.384 2.411-16.279 7.33-9.609 26.437-15.353 40.674-15.353a.75.75 0 0 1 0 1.5c-13.572 0-32.526 5.645-39.481 14.763-2.662 3.49-3.462 9.113-2.14 15.042 1.699 7.62 6.306 14.042 12.323 17.177a.751.751 0 0 1-.346 1.415z" fill="#1b57b8"/><path d="M164.293 119.591c0-9.409 3.594-18.609 9.764-26.729-6.162 2.4-15.66 5.04-27.918 5.04-32.896 0-94.419-8.528-114.209-29.423-6.318-6.671-8.355-12.783-7.539-18.193-5.145 9.392-7.751 40.492-.171 55.956 1.503 3.067 4.052 9.159 7.884 13.205 19.79 20.894 81.139 26.867 114.035 26.867 11.157 0 20.026-2.187 26.176-4.389-5.096-6.255-8.022-13.849-8.022-22.334z" fill="#73bdfd"/><g fill="#1b57b8"><path d="M146.138 147.063c-30.752 0-94.276-5.664-114.58-27.102-3.357-3.544-5.727-8.564-7.295-11.887-.262-.555-.5-1.061-.717-1.503-7.511-15.323-5.362-46.517.187-56.646a.751.751 0 0 1 1.399.472c-.847 5.617 1.623 11.526 7.342 17.565 10.965 11.577 34.223 18.533 51.803 22.329 23.417 5.058 47.31 6.859 61.861 6.859 12.26 0 21.801-2.713 27.646-4.989a.75.75 0 0 1 .869 1.153c-6.288 8.275-9.612 17.361-9.612 26.275 0 7.994 2.716 15.553 7.854 21.859a.75.75 0 0 1-.328 1.18c-8.214 2.944-17.106 4.435-26.429 4.435zM23.556 54.269c-3.787 11.673-5.461 37.775 1.336 51.644.22.448.462.961.727 1.522 1.527 3.236 3.835 8.126 7.028 11.496 19.953 21.066 82.961 26.633 113.491 26.633 8.776 0 17.159-1.345 24.934-3.999-4.93-6.404-7.53-13.979-7.53-21.973 0-8.524 2.917-17.182 8.458-25.174-6.032 2.096-14.881 4.234-25.862 4.234-14.629 0-38.645-1.811-62.177-6.893-17.787-3.842-41.347-10.909-52.576-22.765-4.709-4.971-7.33-9.908-7.829-14.725z"/><path d="M127.456 106.749c-13.618 0-30.89-1.903-49.287-5.68-36.697-7.532-57.453-24.597-58.353-36.83a.75.75 0 0 1 1.496-.11c.685 9.318 16.809 27.188 57.159 35.471 34.197 7.02 65.442 7.515 74.293 1.182 1.442-1.032 2.259-2.228 2.427-3.554a.75.75 0 0 1 1.488.19c-.223 1.757-1.247 3.299-3.042 4.584-4.434 3.172-13.797 4.747-26.181 4.747z"/><path d="M131.493 146.718a.75.75 0 0 1-.647-1.128c.717-1.228 1.892-8.004 2.844-23.063.894-14.125-1.372-23.128-2.028-24.766a15.957 15.957 0 0 0-.544-1.248.75.75 0 0 1-.375-.649c0-.359.283-.729.636-.796.731-.144 1.025.512 1.675 2.136.838 2.093 3.029 11.255 2.133 25.419-.395 6.24-1.482 21.046-3.046 23.724a.748.748 0 0 1-.648.371zm17.361-24.651a98.201 98.201 0 0 0-2.277-.105l-6.377 10.651c2.709.192 5.309.328 7.67.383 10.174.235 7.658-10.517.984-10.929zm-23.767-.605c-9.826-.175-18.828-.299-18.828-.299-5.889-.185-4.409 6.509 1.775 7.618 1.98.355 5.599.908 10.024 1.497z"/><path d="m132.413 121.6-6.278 9.678c2.507.287 5.098.562 7.68.805l6.386-10.31c-2.377-.059-5.035-.118-7.788-.173zm58.899-97.366s-12.214-4.206-35.676-4.865c-61.853-1.737-81.741.943-104.479 8.34-12.714 4.136-25.174 12.019-26.767 22.577-.816 5.41 1.221 11.523 7.539 18.193 4.149 4.381 10.137 8.216 17.307 11.545 27.027 12.549 70.903 17.878 96.902 17.878 12.258 0 21.756-2.64 27.918-5.04-6.091 1.996-15.077 3.599-25.595 3.599-32.896 0-94.419-8.232-114.209-28.4-18.649-19.005 0-33.316 19.228-39.354 22.738-7.14 61.847-8.991 104.762-7.254 23.451.949 35.393 6.776 35.393 6.776z"/><path d="M146.138 98.652c-14.266 0-31.83-1.547-48.188-4.243-13.803-2.275-33.514-6.5-49.03-13.704-7.635-3.546-13.534-7.485-17.535-11.71-6.053-6.391-8.656-12.724-7.736-18.821 1.421-9.42 11.618-18.084 27.277-23.178 22.584-7.348 42.127-10.136 104.732-8.377 23.307.655 35.776 4.863 35.899 4.906.17.059.314.177.404.332l2.323 3.996a.752.752 0 0 1-.099.888.746.746 0 0 1-.878.163c-.118-.058-12.107-5.771-35.095-6.701-46.562-1.884-83.676.68-104.507 7.221C39.432 33.905 29.711 41.372 27.702 49.4c-1.445 5.771.939 11.873 7.086 18.137 10.965 11.175 34.225 17.89 51.807 21.555 23.419 4.882 47.313 6.621 61.866 6.621 9.21 0 18.454-1.299 25.362-3.562a.751.751 0 0 1 .506 1.412c-5.965 2.321-15.698 5.089-28.191 5.089zm-22.302-79.043c-38.251 0-54.382 2.936-72.447 8.812-15.107 4.915-24.922 13.13-26.257 21.977-.847 5.617 1.623 11.526 7.342 17.565 3.87 4.086 9.616 7.915 17.078 11.38 26.359 12.239 67.544 17.175 91.891 17.751-14.65-.464-35.078-2.351-55.154-6.536-17.785-3.706-41.343-10.528-52.571-21.971-6.537-6.662-9.051-13.24-7.47-19.552 2.137-8.537 12.234-16.403 27.009-21.043 20.992-6.592 58.289-9.179 105.017-7.287 18.027.729 29.205 4.275 33.587 5.964l-1.052-1.81c-1.888-.595-13.98-4.145-35.193-4.74-12.097-.34-22.578-.51-31.78-.51z"/><path d="M155.935 21.364c5.725 2.397 9.943 7.197 8.427 16.544-1.535 9.467 14.084-15.284 14.084-15.284s-6.406-.815-11.256-1.26c-4.849-.445-11.255 0-11.255 0z"/><path d="M164.695 40.793a.893.893 0 0 1-.318-.055c-1.162-.44-.877-2.199-.755-2.95 1.249-7.699-1.435-12.992-7.977-15.732a.748.748 0 0 1 .238-1.439c.264-.019 6.523-.442 11.376.001 4.807.441 11.218 1.255 11.282 1.263a.75.75 0 0 1 .54 1.145c-5.184 8.212-11.775 17.767-14.386 17.767zm-5.893-18.816c5.381 3.275 7.5 8.661 6.301 16.052-.105.651-.106 1.021-.087 1.22 1.737-.822 7.4-8.581 12.162-16.026-2.075-.255-6.508-.785-10.056-1.11-2.746-.255-6.032-.216-8.32-.136z"/></g></svg></g><g transform="translate(2246.25 1826.25) rotate(-8.720199246217597 255.0 161.25) scale(3.984219366430999 3.94027881290701)"><svg width="128.005" height="81.847" viewBox="0 0 128.005 81.847"><path d="M.884 27.243C3.602 11.919 22.358 6.471 31.832 5.846c12.249-.809 43.7-1.083 67.074 12.889 22.295 13.327 30.063 34.537 28.042 44.548s-22.611 22.086-53.053 16.319c-12.829-2.43-17.868-9.653-38.147-17.38C12.758 53.462-.758 36.503.884 27.243z" fill="#1b57b8"/><path d="M89.222 81.835c-4.833 0-10.007-.463-15.466-1.497-6.92-1.311-11.584-3.975-17.489-7.347-5.299-3.026-11.305-6.457-20.786-10.069C12.47 54.155-1.61 37.013.146 27.112c1.225-6.905 5.832-12.694 13.322-16.74 7.958-4.298 16.03-5.125 18.314-5.275C68.979 2.64 91.386 13.365 99.29 18.091c22.855 13.662 30.453 35.131 28.393 45.34-1.804 8.933-16.606 18.404-38.461 18.404zm-87.6-54.461c-.787 4.44 2.206 10.808 8.005 17.034 6.572 7.055 15.943 13.133 26.387 17.112 9.589 3.653 15.914 7.266 20.996 10.168 5.783 3.303 10.351 5.911 17.024 7.176 31.424 5.953 50.39-6.876 52.178-15.731 2.055-10.176-6.426-31.043-27.691-43.755C74.498 5.019 41.442 5.963 31.881 6.594c-10.808.714-27.785 6.837-30.259 20.78z" fill="#1b57b8"/><path d="M.884 23.99C3.602 8.666 22.358 3.218 31.832 2.592c12.249-.809 43.7-1.083 67.074 12.889 22.295 13.327 30.063 34.537 28.042 44.548s-22.611 22.086-53.053 16.319c-12.829-2.43-17.868-9.653-38.147-17.38C12.758 50.208-.758 33.25.884 23.99z" fill="#73bdfd"/><path d="M89.222 78.581c-4.833 0-10.007-.463-15.466-1.497-6.92-1.311-11.584-3.975-17.489-7.347-5.299-3.026-11.305-6.457-20.786-10.069C12.47 50.901-1.61 33.76.146 23.859c1.225-6.905 5.832-12.694 13.322-16.74 7.958-4.298 16.03-5.125 18.314-5.275C68.978-.613 91.385 10.112 99.29 14.837c22.855 13.662 30.453 35.131 28.393 45.34-1.804 8.933-16.606 18.404-38.461 18.404zm-87.6-54.46c-.787 4.44 2.206 10.808 8.005 17.035 6.572 7.055 15.943 13.133 26.387 17.112 9.589 3.654 15.914 7.266 20.996 10.168 5.783 3.303 10.351 5.911 17.024 7.176 31.424 5.953 50.39-6.876 52.178-15.731 2.055-10.176-6.426-31.044-27.691-43.755C74.498 1.765 41.442 2.709 31.881 3.34c-10.808.714-27.785 6.837-30.259 20.781z" fill="#1b57b8"/><path d="M43.078 14.518a4.487 4.487 0 0 1-1.634-.312 50.643 50.643 0 0 1-1.786-.748c-1.595-.691-4.006-1.734-9.382-3.687-7.3-2.652-13.112-1.832-15.906-1.439l-.113.018c-.312.044-.961.135-1.306-.351a.846.846 0 0 1-.049-.895c.585-1.133 6.379-3.612 9.777-3.614h.037c2.711 0 4.913.17 10.011 1.118 5.185.965 8.997 2.672 12.746 5.71.922.747 1.163 1.785.626 2.708-.492.847-1.657 1.492-3.021 1.492zM19.774 6.396c3.002 0 6.763.422 11.015 1.967 5.418 1.968 7.854 3.023 9.466 3.72.651.282 1.18.511 1.733.726 1.317.511 2.499.008 2.814-.536.067-.116.225-.387-.273-.79-3.542-2.87-7.153-4.485-12.076-5.401-5.463-1.017-7.494-1.098-9.772-1.093-1.887.001-4.304.793-6.082 1.56a33.575 33.575 0 0 1 3.175-.153z" fill="#1b57b8"/><path d="M31.545.837c-6.647-.62-12.55 2.137-14.7 6.446a31.406 31.406 0 0 1 13.689 1.785c7.579 2.753 9.232 3.682 11.183 4.44.756.294 1.993.019 3.323-.552.004-.038.015-.074.019-.113C45.617 6.96 39.567 1.585 31.545.837z" fill="#73bdfd"/><g fill="#1b57b8"><path d="M42.45 14.377a2.78 2.78 0 0 1-1.006-.17 50.643 50.643 0 0 1-1.786-.748c-1.595-.691-4.006-1.734-9.381-3.687C25.919 8.189 21.549 7.62 16.91 8.03a.75.75 0 0 1-.737-1.082C18.503 2.28 24.844-.54 31.614.09c4.875.454 9.181 2.539 11.814 5.72 1.791 2.162 2.612 4.619 2.376 7.104-.002.025-.016.11-.021.134-.048.243-.221.499-.449.596-1.134.488-2.1.733-2.884.733zM19.784 6.401c3.764 0 7.389.648 11.005 1.962 5.418 1.968 7.854 3.022 9.465 3.72.651.282 1.18.511 1.733.726.17.066.815.217 2.348-.376.097-1.958-.612-3.914-2.062-5.666-2.346-2.834-6.383-4.771-10.798-5.183-5.547-.518-10.755 1.444-13.24 4.853a33.519 33.519 0 0 1 1.549-.036z"/><path d="M29.591 2.565c-5.758-.537-10.952 1.464-13.641 4.807 3.176-.358 8.372-.561 14.582 1.695 7.579 2.753 9.232 3.682 11.183 4.44.37.144.859.148 1.415.052-.177-5.475-5.98-10.289-13.539-10.994z"/><path d="M42.435 14.376c-.373 0-.701-.056-.991-.169a48.814 48.814 0 0 1-1.786-.748c-1.596-.691-4.006-1.734-9.381-3.687-4.609-1.674-9.267-2.215-14.243-1.654a.749.749 0 0 1-.668-1.215c2.961-3.682 8.441-5.629 14.295-5.084 7.914.738 14.027 5.775 14.219 11.716a.75.75 0 0 1-.621.763 4.795 4.795 0 0 1-.824.078zM19.768 6.404c3.779 0 7.414.648 11.021 1.959 5.418 1.968 7.854 3.022 9.465 3.72.651.282 1.18.511 1.733.726.063.024.169.053.334.063-.638-4.804-6.084-8.933-12.801-9.559-4.467-.416-8.809.794-11.618 3.143a33.446 33.446 0 0 1 1.866-.052z"/></g></svg></g><g transform="translate(1301.25 1031.25) rotate(0.0 -483.75 468.75) scale(-3.75916478546534 3.75743973066672)"><svg width="257.371" height="249.505" viewBox="0 0 257.371 249.505"><path d="M21.435 199.98a.75.75 0 0 1-.723-.949L74.138 4.44a.75.75 0 1 1 1.446.398L22.158 199.429a.749.749 0 0 1-.723.551z" fill="#1b57b8"/><path d="m105.005 11.818 151.616 36.11-6.929 25.104L98.47 36.296z" fill="#fff"/><path d="M249.692 73.782a.78.78 0 0 1-.178-.021L98.293 37.025a.75.75 0 0 1-.548-.922l6.534-24.479a.75.75 0 0 1 .898-.536l151.616 36.11a.752.752 0 0 1 .55.93l-6.929 25.104a.75.75 0 0 1-.722.55zM99.393 35.749l149.77 36.383 6.529-23.655-150.15-35.76z" fill="#1b57b8"/><path d="m91.505 60.912 151.257 37.224-13.635 50.264-151.122-38.395z" fill="#73bdfd"/><path d="M229.127 149.15a.738.738 0 0 1-.185-.023L77.82 110.732a.753.753 0 0 1-.539-.926l13.5-49.093a.754.754 0 0 1 .902-.53l151.258 37.225a.747.747 0 0 1 .544.924l-13.636 50.264a.748.748 0 0 1-.722.554zM78.931 109.467l149.665 38.025 13.242-48.811L92.035 61.815z" fill="#1b57b8"/><path d="m71.255 134.552 90.432 23.337-6.857 24.88-90.325-23.671z" fill="#fff"/><path d="M154.83 183.52a.773.773 0 0 1-.19-.024l-90.325-23.671a.75.75 0 0 1-.533-.924l6.75-24.546a.75.75 0 0 1 .911-.527l90.433 23.337a.75.75 0 0 1 .535.926l-6.857 24.88a.754.754 0 0 1-.724.549zm-89.4-24.955 88.874 23.291 6.458-23.432-88.979-22.962z" fill="#1b57b8"/><path d="m57.755 183.645 150.362 40.008-6.928 25.102-150.183-40.564z" fill="#73bdfd"/><g fill="#1b57b8"><path d="M201.189 249.505a.739.739 0 0 1-.196-.026L50.81 208.915a.751.751 0 0 1-.527-.923l6.75-24.546a.75.75 0 0 1 .916-.526l150.362 40.008a.75.75 0 0 1 .531.925l-6.929 25.102a.753.753 0 0 1-.724.55zm-149.26-41.842 148.736 40.173 6.529-23.653-148.913-39.622zm3.9-194.757a.763.763 0 0 1-.188-.024L11.574 1.476A.75.75 0 1 1 11.95.024L56.016 11.43a.75.75 0 0 1-.187 1.476zm-3.284 13.141a.77.77 0 0 1-.177-.021L7.216 15.093a.75.75 0 0 1 .352-1.458L52.72 24.568a.75.75 0 0 1-.175 1.479zm-8.092 24.035a.745.745 0 0 1-.18-.022L.571 39.305a.75.75 0 1 1 .359-1.456l43.702 10.755a.75.75 0 0 1-.179 1.478zm66.618-17.546c-.304 0-.607-.038-.907-.116-2.518-.659-3.85-3.936-2.968-7.306.416-1.588 1.256-2.974 2.366-3.9 1.183-.987 2.533-1.348 3.799-1.017 2.518.658 3.85 3.936 2.968 7.306-.776 2.967-3.015 5.033-5.258 5.033zm1.366-10.958c-.632 0-1.295.27-1.915.787-.873.729-1.539 1.839-1.876 3.128-.661 2.526.208 5.034 1.897 5.475 1.685.445 3.673-1.319 4.334-3.846.661-2.526-.208-5.034-1.897-5.475a2.156 2.156 0 0 0-.543-.069zm3.166 5.735h.01zm113.571 86.05c-.313 0-.625-.04-.931-.12-1.267-.331-2.267-1.307-2.814-2.747-.515-1.352-.569-2.971-.154-4.56.416-1.588 1.255-2.974 2.366-3.9 1.182-.987 2.531-1.348 3.799-1.017 2.518.659 3.849 3.937 2.968 7.306-.416 1.588-1.255 2.974-2.366 3.9-.897.75-1.889 1.138-2.868 1.138zm1.343-10.961c-.632 0-1.296.27-1.916.787-.873.729-1.539 1.839-1.876 3.128s-.3 2.583.104 3.646c.371.974 1.007 1.624 1.792 1.829.782.204 1.658-.049 2.458-.717.873-.729 1.539-1.84 1.876-3.129.661-2.526-.208-5.033-1.897-5.475a2.129 2.129 0 0 0-.541-.069zm-153.18 53.177c-.312 0-.624-.04-.931-.12-1.267-.331-2.267-1.307-2.814-2.747-.515-1.352-.569-2.971-.154-4.56.881-3.37 3.645-5.578 6.165-4.917 2.518.659 3.85 3.936 2.968 7.306-.416 1.588-1.255 2.974-2.366 3.9-.896.749-1.888 1.138-2.868 1.138zm1.353-10.96c-1.553 0-3.208 1.649-3.801 3.914-.337 1.289-.3 2.583.104 3.646.371.974 1.007 1.624 1.792 1.829.784.207 1.658-.049 2.458-.718.873-.729 1.539-1.839 1.876-3.128.661-2.526-.208-5.034-1.897-5.475a2.07 2.07 0 0 0-.532-.068z"/><path d="M63.814 204.543c-.304 0-.607-.038-.907-.116-2.518-.659-3.85-3.937-2.968-7.306.416-1.588 1.255-2.974 2.366-3.9 1.183-.987 2.533-1.347 3.799-1.017 1.267.331 2.267 1.307 2.814 2.747.515 1.352.569 2.971.154 4.56-.777 2.967-3.015 5.032-5.258 5.032zm1.367-10.958c-.632 0-1.295.27-1.915.787-.873.729-1.539 1.84-1.876 3.129-.661 2.526.208 5.033 1.897 5.475 1.691.446 3.673-1.319 4.334-3.846.337-1.289.3-2.583-.104-3.646-.371-.974-1.007-1.624-1.792-1.829a2.125 2.125 0 0 0-.544-.07z"/></g></svg></g><g transform="translate(123.75 221.25) rotate(0.0 1186.875 1222.5) scale(3.746709051764958 3.750253084563989)"><svg width="633.556" height="651.956" viewBox="0 0 633.556 651.956"><g><g><path style="fill:#1b57b8" d="M464.611 19.77a.749.749 0 0 1-.711-.988A57.9 57.9 0 0 1 474.148.273a.75.75 0 1 1 1.159.953 56.438 56.438 0 0 0-9.983 18.032.755.755 0 0 1-.713.512zm12.417 4.532a.75.75 0 0 1-.746-.836 15.494 15.494 0 0 1 3.681-8.332.751.751 0 0 1 1.13.987 13.978 13.978 0 0 0-3.321 7.518.75.75 0 0 1-.744.663zm45.533-3.404a.75.75 0 0 1-.694-1.034l3.667-8.99a.75.75 0 1 1 1.389.567l-3.666 8.99a.751.751 0 0 1-.696.467zm68.21 110.274h-13.642a.75.75 0 0 1 0-1.5h13.642a.75.75 0 0 1 0 1.5zm-30.207 11.092a.75.75 0 0 1-.653-.38c-.611-1.077-1.837-1.778-3.28-1.876-1.441-.105-2.752.431-3.503 1.416a.751.751 0 0 1-1.193-.91c1.057-1.387 2.851-2.133 4.797-2.003 1.947.132 3.623 1.116 4.483 2.633a.75.75 0 0 1-.651 1.12zm-317.161 26.787a2.51 2.51 0 0 1-1.088-.236c-.874-.415-1.178-1.458-1.02-2.229.149-.727.691-1.213 1.381-1.239a.738.738 0 0 1 .779.72.75.75 0 0 1-.72.778l-.029-.749.027.75c.033.002 0 .151.045.33.035.137.106.248.182.284.544.258 1.335-.073 2.032-.404l20.471-9.729a.75.75 0 1 1 .643 1.355l-20.471 9.729c-.518.244-1.351.64-2.232.64zm13.3 2.21a.75.75 0 0 1-.358-1.41l21.45-11.644a.75.75 0 0 1 .716 1.319L257.06 171.17a.755.755 0 0 1-.357.091zm-127.366 20.218a.749.749 0 0 1-.685-1.053l5.56-12.561a.748.748 0 0 1 .99-.382c.379.167.55.61.382.989l-5.56 12.561a.753.753 0 0 1-.687.446zm-9.219-.055a.751.751 0 0 1-.606-1.191 53.769 53.769 0 0 0 7.849-15.696.751.751 0 0 1 1.433.443 55.29 55.29 0 0 1-8.067 16.134.754.754 0 0 1-.609.31zm61.39-115.957h-12.505a.75.75 0 0 1 0-1.5h12.505a.75.75 0 0 1 0 1.5zM301.945 86.92a.75.75 0 0 1-.468-.164 27 27 0 0 0-14.297-5.751.75.75 0 0 1 .134-1.494c5.458.491 10.821 2.648 15.1 6.073a.751.751 0 0 1-.469 1.336zm11.481-3.586a.745.745 0 0 1-.335-.079l-4.547-2.274a.75.75 0 0 1 .671-1.342l4.547 2.274a.75.75 0 0 1-.336 1.421zm45.43 17.143a.75.75 0 0 1-.625-.334l-2.274-3.41a.75.75 0 1 1 1.248-.832l2.274 3.41a.75.75 0 0 1-.623 1.166zm83.02 88.643a.75.75 0 0 1-.543-.232 9.57 9.57 0 0 1-2.602-6.138.749.749 0 0 1 .719-.779c.414-.049.763.306.78.719a8.047 8.047 0 0 0 2.188 5.163.75.75 0 0 1-.542 1.267zm12.474-5.653a.75.75 0 0 1-.75-.75v-6.821a.75.75 0 0 1 1.5 0v6.821a.75.75 0 0 1-.75.75zm107.133 20.855c-4.548 0-9.104-1.745-12.392-4.906a.75.75 0 0 1 1.039-1.082c3.997 3.843 10.039 5.399 15.394 3.964a.75.75 0 0 1 .388 1.449 17.129 17.129 0 0 1-4.429.575zm-54.846 37.123h-.021a.75.75 0 0 1-.729-.771c.091-3.308-1.518-6.568-4.199-8.508-.562-.404-2.104-.018-3.343.297-1.948.489-3.962 1-4.848-.478a.75.75 0 0 1 1.286-.771c.313.521 1.979.102 3.194-.206 1.702-.43 3.46-.875 4.59-.057 3.077 2.226 4.924 5.967 4.819 9.764a.75.75 0 0 1-.749.73zm-119.361 0a.75.75 0 0 1-.75-.75v-11.368a.75.75 0 0 1 1.5 0v11.368a.75.75 0 0 1-.75.75zm26.148 43.268a.75.75 0 0 1-.75-.75V272.46a.75.75 0 0 1 1.5 0v11.503a.75.75 0 0 1-.75.75zm-87.474 98.853a.75.75 0 0 1-.728-.931l1.137-4.548a.744.744 0 0 1 .909-.546.75.75 0 0 1 .546.909l-1.137 4.548a.75.75 0 0 1-.727.568zm4.484 7.943a.75.75 0 0 1-.67-1.085l4.547-9.095a.75.75 0 0 1 1.341.671l-4.547 9.094a.749.749 0 0 1-.671.415zm-303.537-108a.75.75 0 0 1-.75-.75v-9.095a.75.75 0 0 1 1.5 0v9.095a.75.75 0 0 1-.75.75zm151.2 362.652a.75.75 0 0 1-.53-1.281l3.411-3.41a.75.75 0 1 1 1.061 1.061l-3.411 3.41a.748.748 0 0 1-.531.22zm-10.232-7.958a.75.75 0 0 1-.642-1.135l3.411-5.685a.75.75 0 0 1 1.286.771l-3.411 5.685a.75.75 0 0 1-.644.364zm-151.27 13.753a.75.75 0 0 1-.402-.117l-9.046-5.761a.75.75 0 0 1 .805-1.265l9.046 5.761a.75.75 0 0 1-.403 1.382zm-12.434-18.3a.752.752 0 0 1-.601-.3l-3.41-4.548a.75.75 0 0 1 1.2-.901l3.411 4.548a.75.75 0 0 1-.6 1.201zM598.729 466.54h-10.232a.75.75 0 0 1 0-1.5h10.232c.708 0 2.354-.849 3.806-1.598 2.149-1.108 4.178-2.167 5.458-1.893a.75.75 0 0 1-.3 1.469c-.76-.154-2.906.949-4.471 1.758-1.835.947-3.421 1.764-4.493 1.764zm26.148 40.927a.761.761 0 0 1-.182-.022l-4.547-1.138a.75.75 0 0 1 .363-1.455l4.547 1.138a.75.75 0 0 1-.181 1.477zm7.928 10.306a.738.738 0 0 1-.267-.05 83.41 83.41 0 0 0-19.097-4.805.75.75 0 1 1 .192-1.488 84.876 84.876 0 0 1 19.44 4.893.75.75 0 0 1-.268 1.45zm-126.098 27.331a.75.75 0 0 1-.339-1.419l15.876-8.037a.75.75 0 0 1 .677 1.338l-15.876 8.037a.76.76 0 0 1-.338.081zm12.443 4.425a.75.75 0 0 1-.263-1.452l27.284-10.231a.75.75 0 1 1 .527 1.404l-27.284 10.231a.741.741 0 0 1-.264.048zm-6.82-50.02a.75.75 0 0 1-.336-1.421l4.547-2.274a.75.75 0 0 1 .671 1.342l-4.548 2.274a.754.754 0 0 1-.334.079zm12.33.815a.752.752 0 0 1-.359-1.41 26.176 26.176 0 0 1 10.72-3.104.76.76 0 0 1 .797.699.75.75 0 0 1-.699.797 24.641 24.641 0 0 0-10.102 2.926.73.73 0 0 1-.357.092zM356.57 635.949a.735.735 0 0 1-.371-.099 43.101 43.101 0 0 0-21.219-5.653.75.75 0 0 1 .002-1.5h.002a44.603 44.603 0 0 1 21.959 5.851.75.75 0 0 1-.373 1.401zm98.935-275.237a.8.8 0 0 1-.128-.011l-6.815-1.171a.75.75 0 0 1-.612-.866.755.755 0 0 1 .866-.612l6.815 1.171a.75.75 0 0 1-.126 1.489zm-55.723-24.909a.744.744 0 0 1-.53-.22l-2.274-2.273a.75.75 0 1 1 1.061-1.061l2.274 2.273a.75.75 0 0 1-.531 1.281zm-5.685 10.232a.748.748 0 0 1-.415-.126l-3.41-2.274a.75.75 0 1 1 .832-1.248l3.41 2.274a.75.75 0 0 1-.417 1.374zm61.371 26.171a.746.746 0 0 1-.455-.154c-4.336-3.314-9.943-4.935-15.379-4.457-.41.031-.777-.269-.813-.681s.268-.776.681-.813c5.806-.518 11.793 1.218 16.423 4.76a.75.75 0 0 1-.457 1.345z"/></g></g></svg></g></svg>