<svg xmlns="http://www.w3.org/2000/svg" viewBox="0 0 3000 3000" width="3000" height="3000"><g transform="translate(1873.1999999999998 892.8) rotate(0.0 337.20000000000005 304.20000000000005) scale(1.1993597723635072 1.199054000788333)"><svg width="562.3" height="507.4" viewBox="0 0 562.3 507.4"><linearGradient id="a" gradientTransform="matrix(1 0 0 -1 0 510)" gradientUnits="userSpaceOnUse" x1="162.104" x2="492.13" y1="87.75" y2="376.721"><stop offset="0" stop-color="#111"/><stop offset=".414" stop-color="#3658c1"/></linearGradient><path d="m559.7 212.2-12.2-34.7c3 8.5 1.9 18.4-4 27.2L376.3 454.5c-10.6 15.8-32.6 21.8-49.3 13.4L17.5 311.7C10.1 308 5 302 2.6 295.1l12.2 34.7c2.4 6.9 7.5 12.9 14.9 16.6l309.5 156.2c16.6 8.4 38.7 2.4 49.3-13.4l167.2-249.7c5.9-8.8 7-18.7 4-27.3z" fill="url(#a)"/><path d="M355.5 507.3c-5.8 0-11.5-1.2-16.7-3.9L29.3 347.3c-7.4-3.7-12.8-9.8-15.4-17.2L1.7 295.4c-.2-.5.1-1.1.6-1.3s1.1.1 1.3.6c2.4 6.9 7.5 12.6 14.4 16L327.5 467c16.2 8.2 37.7 2.3 48-13.1l167.2-249.7c5.5-8.2 6.9-17.7 3.9-26.3-.2-.5.1-1.1.6-1.3s1.1.1 1.3.6l12.2 34.7c3.2 9.2 1.7 19.4-4.1 28.1L389.3 489.7c-7.5 11.2-20.7 17.6-33.8 17.6zM7.1 304.8l8.7 24.7c2.4 6.9 7.5 12.6 14.4 16l309.5 156.2c16.2 8.2 37.7 2.3 48-13.1l167.2-249.7c5.5-8.2 6.9-17.7 3.9-26.3l-8.7-24.6c-.2 6-2.1 11.9-5.7 17.3L377.1 455c-10.8 16.2-33.5 22.3-50.5 13.7L17.1 312.6c-3.9-2-7.3-4.6-10-7.8z" fill="#111"/><path d="M532.6 161c16.6 8.4 21.5 28 11 43.8L376.3 454.5c-10.6 15.8-32.6 21.8-49.3 13.4L17.5 311.7c-16.6-8.4-21.5-28-11-43.8L173.8 18.2c10.6-15.8 32.6-21.8 49.3-13.4z" fill="#fff"/><path d="M343.3 472.7c-5.8 0-11.5-1.2-16.7-3.9L17.1 312.6c-8.2-4.1-13.9-11-16.1-19.4-2.3-8.6-.6-17.8 4.8-25.8L173 17.6c10.8-16.2 33.5-22.3 50.5-13.7L533 160.1c8.2 4.1 13.9 11 16.1 19.4 2.3 8.6.6 17.8-4.8 25.8L377.1 455c-7.5 11.2-20.7 17.7-33.8 17.7zM206.8 2c-12.4 0-25 6.1-32.1 16.7L7.4 268.5c-5 7.5-6.6 16.1-4.5 24.2C5 300.5 10.3 307 18 310.8L327.5 467c16.2 8.2 37.7 2.3 48-13.1l167.2-249.7c5-7.5 6.6-16.1 4.5-24.2-2.1-7.8-7.4-14.3-15.1-18.2L222.6 5.7C217.7 3.2 212.2 2 206.8 2z" fill="#111"/><path d="m267.9 105.6-7-3.5c-6.5-3.3-14.5-2.4-20.5 1.7l36 18.1c1.1-6.6-2-13.1-8.5-16.3" fill="#3658c1"/><path d="M276.4 122.8c-.2 0-.3 0-.5-.1l-36-18.1c-.3-.2-.5-.5-.5-.8 0-.4.1-.7.4-.9 6.5-4.4 14.9-5 21.5-1.7l7 3.5c6.7 3.4 10.2 10.2 9 17.3-.1.3-.2.6-.5.7-.1.1-.3.1-.4.1zm-33.9-19.2 33.1 16.7c.4-5.8-2.7-11.1-8.1-13.8l-7-3.5c-5.5-2.8-12.4-2.5-18 .6z" fill="#111"/><path d="m416.5 180.5-7-3.5c-6.5-3.3-14.5-2.4-20.5 1.7l36 18.1c1.1-6.5-2-13-8.5-16.3" fill="#3658c1"/><path d="M425 197.8c-.2 0-.3 0-.5-.1l-36-18.1c-.3-.2-.5-.5-.5-.8 0-.4.1-.7.4-.9 6.5-4.4 14.9-5 21.5-1.7l7 3.5c6.7 3.4 10.2 10.2 9 17.3-.1.3-.2.6-.5.7-.1.1-.3.1-.4.1zm-33.9-19.2 33.1 16.7c.4-5.8-2.7-11.1-8.1-13.8l-7-3.5c-5.5-2.8-12.4-2.5-18 .6z" fill="#111"/><path d="m426.7 197.7-188-94.9c-7.5-3.8-17.2-3.2-24.7 1.7-42.9 27.9-87.9 62.7-126.3 102.6-17.6 18.2-17.5 44.6.1 60.2 2.8 2.5 5.9 4.6 9.3 6.3 16 8.1 37 6.7 53.4-4.5 16.3-11.2 33.1-24.7 45.3-37.9 11.8-11.6 27.5-4.1 40.5 3.4l59.8 30.2c11.5 5.2 30.5 12.4 23.5 28.9-7.2 15.8-12.4 35.1-15.5 52.9-3.1 17.9 5.9 34.4 21.9 42.5 3.3 1.7 7 3 10.9 3.9 24.4 5.6 50.9-7.5 60.4-29.7 20.9-48.8 33.5-99.9 40.2-146.1.9-8.1-3.2-15.7-10.8-19.5z" fill="#b0c3ff"/><path d="M348.1 395.3c-3.9 0-7.8-.4-11.6-1.3-3.9-.9-7.6-2.2-11.1-4-16.8-8.5-25.6-25.6-22.4-43.6 3.5-19.7 9-38.6 15.6-53.2 6.2-14.6-9.5-21.6-21-26.6-.7-.3-1.3-.6-2-.9l-59.8-30.2c-14.1-8.2-28.5-14.3-39.4-3.6-11.2 12.1-27.4 25.7-45.4 38-16.4 11.2-37.7 13-54.4 4.6-3.5-1.7-6.6-3.9-9.5-6.4-8.3-7.4-13.2-17.5-13.6-28.4-.5-12 4.3-23.8 13.4-33.2 34.8-36.1 78.6-71.6 126.5-102.7 7.8-5.1 17.9-5.8 25.7-1.8l188 94.9c7.9 4 12.3 12.1 11 20.6-7.4 51.6-21.4 102.2-40.3 146.3-8 19-28.6 31.5-49.7 31.5zm-138-171.1c8.5 0 17.6 4.4 26.6 9.6l59.7 30.1c.6.3 1.3.6 1.9.9 11.6 5.1 29 12.9 22 29.3-6.6 14.4-12.1 33.1-15.5 52.7-3 17.1 5.4 33.4 21.4 41.4 3.3 1.7 6.9 2.9 10.6 3.8 23.9 5.4 49.9-7.4 59.2-29.1 18.8-44 32.7-94.4 40.1-145.8 1.1-7.6-2.8-14.9-10-18.5l-188-94.9c-7.2-3.6-16.6-3-23.7 1.7-47.8 31.1-91.5 66.5-126.2 102.5-8.7 9-13.3 20.3-12.8 31.8.4 10.4 5 20 12.9 27 2.7 2.4 5.7 4.5 9.1 6.1 16 8.1 36.6 6.4 52.4-4.5 17.9-12.3 33.9-25.7 45.1-37.8 4.7-4.5 9.8-6.3 15.2-6.3z" fill="#111"/><path d="M234.9 191.5c-13.5-6.8-31.3-1.9-39.8 10.8-6.4 9.6-5.8 20.9.7 28.9 2.1 2.6 4.9 4.9 8.2 6.5 10.2 5.2 23 3.6 32.3-3.1 2.9-2.1 5.5-4.7 7.5-7.7 8.5-12.7 4.5-28.6-8.9-35.4" fill="#fff"/><path d="M217.2 241.9c-4.8 0-9.5-1.1-13.7-3.2-3.4-1.7-6.3-4-8.5-6.8-6.9-8.5-7.2-20.3-.7-30.1 8.8-13.2 27.3-18.2 41.1-11.2 6.7 3.4 11.3 9 13.1 15.8 1.9 7 .5 14.5-3.9 21-2.1 3.1-4.7 5.8-7.8 8-5.9 4.3-12.8 6.5-19.6 6.5zm4.5-52.4c-10 0-20.1 4.9-25.8 13.5-6 9-5.8 19.8.6 27.7 2.1 2.6 4.8 4.7 7.9 6.3 9.7 4.9 21.9 3.7 31.3-3 2.9-2.1 5.4-4.6 7.3-7.5 4-6 5.3-12.9 3.6-19.4-1.7-6.3-5.9-11.5-12.1-14.6-4.1-2.1-8.4-3-12.8-3z" fill="#111"/><path d="M339.8 244.5c-13.5-6.8-31.3-1.9-39.8 10.8-2 3-3.4 6.3-4 9.5-2.1 10.3 2.6 20.7 12.9 25.9 3.3 1.7 6.9 2.6 10.6 3 11.1.9 22.8-4.2 29.2-13.8 8.5-12.8 4.5-28.6-8.9-35.4" fill="#fff"/><path d="M322.1 294.8c-.9 0-1.8 0-2.7-.1-3.9-.3-7.6-1.4-11-3.1-10.4-5.3-15.7-15.8-13.4-27 .7-3.5 2.1-6.8 4.2-9.9 8.8-13.2 27.3-18.2 41.1-11.2 6.7 3.4 11.3 9 13.1 15.8 1.9 7 .5 14.5-3.9 21-6 9-16.5 14.5-27.4 14.5zm4.5-52.4c-10 0-20.1 4.9-25.8 13.5-1.9 2.9-3.2 6-3.9 9.2-2.1 10.2 2.8 20 12.4 24.8 3.1 1.6 6.6 2.5 10.2 2.9 11.1.9 22.3-4.3 28.3-13.4 4-6 5.3-12.9 3.6-19.4-1.7-6.3-5.9-11.5-12.1-14.6-3.9-2-8.3-3-12.7-3z" fill="#111"/><path d="m236.7 146.5 9.5-14.2-16.5-8.3-9.5 14.1-15-7.5-10.5 15.7 15 7.6-9.5 14.1 16.5 8.4 9.5-14.2 14.9 7.5 10.6-15.7z" fill="#3658c1"/><path d="M216.7 177.4c-.2 0-.3 0-.4-.1l-16.5-8.3c-.3-.1-.4-.4-.5-.6s0-.6.1-.8l8.9-13.2-13.9-7c-.3-.1-.4-.4-.5-.6s0-.6.1-.8l10.5-15.7c.3-.4.8-.6 1.3-.3l14.2 7.1 9-13.4c.3-.4.8-.6 1.3-.3l16.5 8.3c.3.1.4.4.5.6s0 .6-.1.8l-8.9 13.2 13.9 7c.3.1.4.4.5.6s0 .6-.1.8L242 170.3c-.3.4-.8.6-1.3.3l-14.2-7.1-9 13.4c-.2.3-.5.5-.8.5zm-15.1-9.8 14.7 7.4 9-13.4c.3-.4.8-.6 1.3-.3l14.2 7.1 9.4-14-13.9-7c-.3-.1-.4-.4-.5-.6s0-.6.1-.8l8.9-13.2-14.7-7.4-9 13.4c-.3.4-.8.6-1.3.3l-14.2-7.1-9.4 14 13.9 7c.3.1.4.4.5.6s0 .6-.1.8z" fill="#111"/><path d="M403.7 207.9c-5-2.5-11.6-.7-14.8 4s-1.7 10.6 3.3 13.2c5 2.5 11.6.7 14.8-4 3.1-4.8 1.7-10.7-3.3-13.2" fill="#3658c1"/><path d="M397 227.2c-1.8 0-3.7-.4-5.3-1.2-2.6-1.3-4.5-3.6-5.2-6.3-.7-2.8-.2-5.8 1.5-8.3 3.5-5.2 10.7-7.1 16.1-4.4 2.6 1.3 4.5 3.6 5.2 6.3.7 2.8.2 5.8-1.5 8.3-2.4 3.6-6.6 5.6-10.8 5.6zm1.8-19.5c-3.5 0-7.1 1.7-9.1 4.7-1.4 2.1-1.8 4.5-1.3 6.7.6 2.2 2.1 3.9 4.2 5 4.6 2.3 10.6.6 13.5-3.7 1.4-2.1 1.9-4.5 1.3-6.7s-2-3.9-4.2-5c-1.4-.6-2.9-1-4.4-1z" fill="#111"/><path d="M381.8 240.5c-5-2.5-11.6-.7-14.8 4s-1.7 10.6 3.3 13.2c5 2.5 11.6.7 14.8-4s1.7-10.6-3.3-13.2" fill="#3658c1"/><path d="M375.2 259.9c-1.8 0-3.7-.4-5.3-1.2-2.6-1.3-4.5-3.6-5.2-6.3-.7-2.8-.2-5.8 1.5-8.3 3.5-5.2 10.7-7.1 16.1-4.4 2.6 1.3 4.5 3.6 5.2 6.3.7 2.8.2 5.8-1.5 8.3-2.5 3.5-6.7 5.6-10.8 5.6zm1.7-19.5c-3.5 0-7.1 1.7-9.1 4.7-1.4 2.1-1.8 4.5-1.3 6.7.6 2.2 2.1 3.9 4.2 5 4.6 2.3 10.6.6 13.5-3.7 1.4-2.1 1.9-4.5 1.3-6.7s-2-3.9-4.2-5c-1.3-.7-2.9-1-4.4-1z" fill="#111"/><path d="M409.9 232.9c-5-2.5-11.6-.7-14.8 4s-1.7 10.6 3.3 13.2 11.6.7 14.8-4c3.2-4.8 1.7-10.7-3.3-13.2" fill="#3658c1"/><path d="M403.3 252.2c-1.8 0-3.7-.4-5.3-1.2-2.6-1.3-4.5-3.6-5.2-6.3-.7-2.8-.2-5.7 1.5-8.3 3.5-5.1 10.7-7.1 16.1-4.4 2.6 1.3 4.5 3.6 5.2 6.3.7 2.8.2 5.8-1.5 8.3-2.4 3.6-6.6 5.6-10.8 5.6zm1.7-19.5c-3.5 0-7.1 1.7-9.1 4.7-1.4 2.1-1.8 4.5-1.3 6.7.6 2.2 2.1 3.9 4.2 5 4.6 2.3 10.6.6 13.5-3.7 1.4-2.1 1.9-4.5 1.3-6.7s-2-3.9-4.2-5c-1.3-.6-2.8-1-4.4-1z" fill="#111"/><path d="M375.5 215.5c-5-2.5-11.6-.7-14.8 4s-1.7 10.6 3.3 13.2c5 2.5 11.6.7 14.8-4 3.2-4.8 1.7-10.7-3.3-13.2" fill="#3658c1"/><path d="M368.9 234.9c-1.8 0-3.7-.4-5.3-1.2-2.6-1.3-4.5-3.6-5.2-6.3-.7-2.8-.2-5.7 1.5-8.3 3.5-5.2 10.7-7.1 16.1-4.4 2.6 1.3 4.5 3.6 5.2 6.3.7 2.8.2 5.8-1.5 8.3-2.4 3.5-6.6 5.6-10.8 5.6zm1.7-19.5c-3.5 0-7.1 1.7-9.1 4.7-1.4 2.1-1.8 4.5-1.3 6.7.6 2.2 2.1 4 4.2 5 4.6 2.3 10.6.6 13.5-3.7 1.4-2.1 1.9-4.5 1.3-6.7s-2-3.9-4.2-5c-1.3-.7-2.8-1-4.4-1z" fill="#111"/><path d="m376 172.1-86.6-43.7-21.6 32.3c-6.8 10.2-3.6 22.8 7.1 28.2l47.8 24.1c10.7 5.4 24.9 1.5 31.7-8.6z" fill="#3658c1"/><path d="M333.2 216.4c-3.8 0-7.5-.8-10.9-2.5l-47.8-24.1c-5.4-2.7-9.1-7.2-10.6-12.7-1.5-5.7-.4-11.7 3.1-16.9l21.6-32.3c.3-.4.8-.6 1.3-.3l86.6 43.7c.3.1.4.4.5.6s0 .6-.1.8L355.3 205c-5 7.2-13.6 11.4-22.1 11.4zm-43.5-86.7-21.1 31.5c-3.2 4.7-4.2 10.2-2.9 15.3 1.3 4.9 4.7 9 9.5 11.5l47.8 24.1c10.2 5.2 23.9 1.5 30.4-8.3l21-31.3z" fill="#111"/></svg></g><g transform="translate(487.2 643.1999999999999) rotate(0.0 1094.4 788.4000000000001) scale(1.198448718517314 1.1979023035004914)"><svg width="1826.361" height="1316.301" viewBox="0 0 1826.361 1316.301"><linearGradient id="b" gradientUnits="userSpaceOnUse" x1="465.103" x2="776.156" y1="206.807" y2="921.447"><stop offset="0" stop-color="#b0c3ff"/><stop offset=".449" stop-color="#3658c1"/><stop offset="1" stop-color="#111"/></linearGradient><linearGradient id="c" gradientUnits="userSpaceOnUse" x1="415.876" x2="1832.664" y1="1277.469" y2="998.728"><stop offset="0" stop-color="#111"/><stop offset=".353" stop-color="#3658c1"/><stop offset=".585" stop-color="#b0c3ff"/><stop offset=".863" stop-color="#3658c1"/><stop offset="1" stop-color="#111"/></linearGradient><path d="M900.962 5.251c31.5-13.367 71.54 5.837 89.454 42.907l302.21 625.378c17.9 37.049 6.9 77.931-24.6 91.3l-854.256 362.45c-31.486 13.36-71.55-5.857-89.454-42.906L22.106 459c-17.914-37.07-6.886-77.939 24.6-91.3z" fill="#b0c3ff"/><path d="M392.583 1132.516c-26.865 0-54.966-18.313-69.167-47.7L21.206 459.437c-9.787-20.253-11.387-42.542-4.388-61.153 5.478-14.567 15.954-25.755 29.5-31.5L900.571 4.331l.391.92-.391-.92c31.929-13.547 72.636 5.918 90.745 43.392l302.21 625.377c9.787 20.253 11.386 42.543 4.387 61.155-5.477 14.566-15.952 25.752-29.5 31.5l-854.252 362.451a54.994 54.994 0 0 1-21.578 4.31zm529.6-1130.5a53.078 53.078 0 0 0-20.83 4.158L47.1 368.624c-13.035 5.53-23.124 16.314-28.407 30.364-6.807 18.1-5.234 39.816 4.316 59.579l302.211 625.378c17.651 36.528 57.2 55.557 88.162 42.421l854.256-362.452c13.036-5.531 23.124-16.314 28.406-30.362 6.808-18.1 5.235-39.818-4.315-59.581L989.516 48.593c-13.862-28.685-41.229-46.579-67.334-46.579z" fill="#111"/><path d="M906.924 33.074 65.08 390.26c-22.02 9.343-29.74 37.934-17.208 63.867l297.358 615.337c12.522 25.912 40.545 39.337 62.565 29.994l841.845-357.187c22.038-9.35 29.741-37.933 17.219-63.845L969.5 63.089c-12.532-25.933-40.538-39.366-62.577-30.015" fill="#fff"/><g fill="#111"><path d="M392.974 1103.416c-18.9 0-38.664-12.864-48.644-33.517L46.972 454.562c-6.882-14.241-8-29.919-3.079-43.016a38.293 38.293 0 0 1 20.8-22.206L906.534 32.153c22.48-9.537 51.131 4.145 63.867 30.5l297.358 615.337c6.878 14.233 8 29.9 3.078 42.99a38.306 38.306 0 0 1-20.806 22.211l-841.845 357.187a38.77 38.77 0 0 1-15.212 3.038zM906.924 33.074l.391.92L65.47 391.181a36.313 36.313 0 0 0-19.7 21.069c-4.733 12.587-3.637 27.692 3.007 41.442l297.359 615.337c12.273 25.4 39.76 38.634 61.274 29.508l841.844-357.186a36.324 36.324 0 0 0 19.716-21.074c4.73-12.578 3.634-27.674-3.006-41.416L968.6 63.524c-12.279-25.411-39.772-38.658-61.285-29.53z"/><path d="M494.98 230.245c-5.317 2.256-7.176 9.157-4.143 15.434 3.024 6.256 9.785 9.5 15.1 7.244s7.194-9.165 4.17-15.421c-3.033-6.277-9.813-9.513-15.129-7.257"/><path d="M502.376 254.633c-4.851 0-9.9-3.265-12.439-8.519a14.1 14.1 0 0 1-.777-11 9.986 9.986 0 0 1 5.429-5.786c5.8-2.462 13.168 1.012 16.421 7.743a14.059 14.059 0 0 1 .764 10.971 9.878 9.878 0 0 1-9.4 6.595zm-3.793-24.108a8.2 8.2 0 0 0-3.213.64 7.9 7.9 0 0 0-4.338 4.649 12.1 12.1 0 0 0 .706 9.43c2.79 5.774 8.985 8.806 13.81 6.758a8.037 8.037 0 0 0 4.354-4.668 12.054 12.054 0 0 0-.693-9.4c-2.203-4.557-6.526-7.409-10.626-7.409z"/></g><path d="M1268.026 764.834 413.77 1127.286c-31.486 13.36-71.55-5.857-89.454-42.906L22.106 459c-16.491-34.124-8.455-71.47 17.494-87.609l-12.519 7.788C1.131 395.317-6.9 432.664 9.586 466.79L311.8 1092.168c17.9 37.049 57.968 56.265 89.454 42.906l854.256-362.452a51.748 51.748 0 0 0 7.112-3.688l12.52-7.788a51.7 51.7 0 0 1-7.116 3.688z" fill="url(#b)"/><path d="M380.064 1140.3c-26.867 0-54.965-18.311-69.168-47.7L8.686 467.225c-16.476-34.1-8.8-72.312 17.862-88.9l12.52-7.787a1 1 0 1 1 1.057 1.7c-25.79 16.042-33.149 53.154-17.119 86.327l302.211 625.378c17.651 36.528 57.2 55.557 88.163 42.42l854.255-362.451.242.57-.242-.57a51.14 51.14 0 0 0 6.975-3.617 1 1 0 0 1 1.056 1.7l-.055.034-12.465 7.754a53 53 0 0 1-7.249 3.759l-854.256 362.453a55.024 55.024 0 0 1-21.577 4.305zM28 379.783l-.393.245c-25.791 16.041-33.151 53.154-17.12 86.327L312.7 1091.733c17.652 36.527 57.2 55.555 88.163 42.421L1255.116 771.7a51.392 51.392 0 0 0 4.8-2.34l-845.755 358.846c-31.927 13.548-72.636-5.917-90.745-43.391L21.206 459.437C7.3 430.661 10.6 398.947 28 379.783z" fill="#111"/><path d="M1262.454 766.161c31.486-13.359 78.082-18.343 104.038-11.127l438.139 121.8c25.955 7.215 21.47 23.9-10.016 37.265l-854.256 362.453c-31.486 13.359-78.083 18.342-104.038 11.127l-438.139-121.8c-25.956-7.216-21.47-23.906 10.017-37.265z" fill="#b0c3ff"/><path d="M865.376 1291.97c-11.067 0-21.2-1.07-29.323-3.327l-438.138-121.8c-14.028-3.9-17.307-9.849-17.587-14.155-.537-8.246 9.479-17.355 27.48-24.993l854.256-362.452.39.92-.39-.92c31.621-13.417 78.587-18.429 104.7-11.171l438.139 121.8c14.027 3.9 17.306 9.849 17.586 14.154.537 8.246-9.479 17.356-27.48 24.994l-854.26 362.452c-21.786 9.244-50.859 14.498-75.373 14.498zm472.009-539.244c-24.214 0-52.972 5.2-74.54 14.355l-854.256 362.453c-16.918 7.178-26.737 15.785-26.266 23.023.338 5.171 6.065 9.56 16.127 12.358l438.139 121.8c25.736 7.154 72.112 2.181 103.379-11.085l854.256-362.452c16.918-7.178 26.737-15.785 26.265-23.023-.337-5.172-6.064-9.56-16.126-12.358L1366.224 756c-7.982-2.222-17.952-3.274-28.839-3.274z" fill="#111"/><path d="M1244.523 804.552 513.8 1114.588c-9.7 4.115-11.081 9.256-3.085 11.479L740.709 1190c8 2.222 22.333.683 32.032-3.432l730.718-310.036c9.7-4.115 11.077-9.244 3.082-11.467l-229.989-63.936c-8-2.223-22.33-.695-32.029 3.42" fill="#fff"/><path d="M749.625 1192.009a35.3 35.3 0 0 1-9.184-1.043l-229.989-63.936c-4.712-1.31-5.822-3.432-5.923-4.982-.188-2.893 2.967-5.869 8.885-8.38l730.718-310.037c9.854-4.18 24.517-5.734 32.688-3.463l229.989 63.932c4.713 1.311 5.823 3.431 5.924 4.979.188 2.889-2.967 5.862-8.884 8.373l-730.718 310.04a64.383 64.383 0 0 1-23.506 4.517zm517.935-390.9a62.057 62.057 0 0 0-22.647 4.366L514.2 1115.509c-5.8 2.462-7.767 4.925-7.67 6.409.082 1.259 1.709 2.419 4.463 3.185l229.989 63.937c7.791 2.166 21.865.645 31.373-3.389l730.718-310.036c5.8-2.462 7.765-4.921 7.669-6.4-.082-1.256-1.709-2.416-4.464-3.182L1276.284 802.1a33.535 33.535 0 0 0-8.724-.994z" fill="#111"/><path d="m1287.21 981.649-260.187 110.4c-11.207 4.755-12.8 10.694-3.549 13.267l133.051 36.987c9.238 2.569 25.82.8 37.027-3.96l260.187-110.395c11.208-4.755 12.805-10.694 3.566-13.263l-133.051-36.987c-9.254-2.573-25.836-.8-37.044 3.956" fill="#fff"/><path d="M1166.848 1144.464a40.687 40.687 0 0 1-10.591-1.2l-133.051-36.988c-5.368-1.492-6.63-3.881-6.743-5.624-.213-3.271 3.4-6.654 10.169-9.527l260.187-110.4c11.369-4.823 28.282-6.618 37.7-4l133.052 36.988c5.357 1.489 6.616 3.876 6.73 5.616.213 3.272-3.4 6.657-10.173 9.531l-260.187 110.394a74.222 74.222 0 0 1-27.093 5.21zm120.362-162.815.391.92-260.187 110.395c-6.778 2.876-9.07 5.789-8.955 7.556.1 1.549 1.977 2.908 5.282 3.827l133.051 36.988c9.04 2.512 25.355.755 36.369-3.918l260.187-110.394c6.781-2.877 9.074-5.792 8.959-7.56-.1-1.546-1.972-2.9-5.27-3.819l-133.051-36.988c-9.05-2.516-25.371-.76-36.385 3.913z" fill="#111"/><path d="m1825.255 913.621-3.855-24.315c1.21 7.631-7.964 16.807-26.785 24.794l-854.256 362.451c-31.486 13.36-78.083 18.344-104.038 11.128l-438.138-121.8c-10.441-2.9-15.956-7.337-16.77-12.472l3.855 24.314c.815 5.135 6.33 9.57 16.77 12.472l438.138 121.8c25.956 7.216 72.552 2.232 104.038-11.127l854.256-362.452c18.822-7.986 27.995-17.163 26.785-24.793z" fill="url(#c)"/><path d="M869.232 1316.285c-11.067 0-21.2-1.071-29.323-3.329l-438.139-121.8c-10.528-2.928-16.576-7.519-17.489-13.279l-3.847-24.258-.009-.056a1 1 0 1 1 1.976-.314c.77 4.859 6.47 9 16.05 11.666l438.137 121.8c25.736 7.155 72.111 2.183 103.38-11.084l854.256-362.452c17.571-7.455 27.361-16.322 26.188-23.716a1 1 0 0 1 1.976-.314l3.855 24.315c1.345 8.487-8.635 17.916-27.383 25.87l-854.255 362.452c-21.787 9.244-50.86 14.498-75.373 14.499zm-485.874-157 2.9 18.279c.77 4.859 6.47 9 16.05 11.665l438.138 121.8c25.736 7.155 72.112 2.181 103.38-11.085l854.255-362.451c17.571-7.456 27.361-16.322 26.188-23.716l-2.894-18.254c-3.059 6.646-12.216 13.491-26.368 19.5L940.75 1277.472c-31.624 13.418-78.591 18.428-104.7 11.17l-438.138-121.8c-6.75-1.878-11.66-4.442-14.554-7.557z" fill="#111"/></svg></g><g transform="translate(558.0 750.0) rotate(0.0 660.5999999999999 600.5999999999999) scale(1.1992887052456624 1.1999760244550557)"><svg width="1101.653" height="1001.02" viewBox="0 0 1101.653 1001.02"><path d="M1 393.03a1 1 0 0 1-.391-1.921L922.219.079A1.001 1.001 0 0 1 923 1.921L1.391 392.95a.996.996 0 0 1-.39.079z" fill="#111"/><path d="M367.078 1001.02a1 1 0 0 1-.901-.564L60.073 367.02a1 1 0 0 1 1.8-.871l306.104 633.436a1 1 0 0 1-.9 1.436z" fill="#111"/><path d="M337.241 304.785 99.29 405.745l12.001 24.832 237.95-100.96z" fill="#3658c1"/><path d="M111.291 431.577a1 1 0 0 1-.901-.564l-12-24.833a1.002 1.002 0 0 1 .509-1.356l237.951-100.96a1 1 0 0 1 1.291.485l12 24.833a1.002 1.002 0 0 1-.509 1.356l-237.951 100.96a.996.996 0 0 1-.39.079zm-10.643-25.322 11.128 23.029 236.107-100.178-11.128-23.029z" fill="#111"/><path d="M388.009 456.02 219.3 527.602l12.011 24.855 168.709-71.582z" fill="#3658c1"/><path d="M231.311 553.456a1 1 0 0 1-.901-.564l-12.011-24.854a1.002 1.002 0 0 1 .509-1.356l168.709-71.581a1 1 0 0 1 1.291.485l12.011 24.854a1.002 1.002 0 0 1-.509 1.356l-168.709 71.581a.996.996 0 0 1-.39.079zm-10.654-25.344 11.139 23.051 166.866-70.799-11.139-23.051z" fill="#111"/><path d="m366.678 551.484-112.725 47.827 12.001 24.834 112.724-47.828z" fill="#3658c1"/><path d="M265.954 625.146a1 1 0 0 1-.901-.564l-12-24.834a1.002 1.002 0 0 1 .509-1.356l112.725-47.828a1 1 0 0 1 1.291.485l12 24.834a1.002 1.002 0 0 1-.509 1.356l-112.725 47.828a.996.996 0 0 1-.39.079zm-10.644-25.323 11.129 23.03 110.881-47.046-11.129-23.03z" fill="#111"/><path d="m270.439 419.516-136.505 57.917 12.01 24.855L282.45 444.37z" fill="#3658c1"/><path d="M145.945 503.288a1 1 0 0 1-.901-.564l-12.011-24.854a1.002 1.002 0 0 1 .509-1.356l136.505-57.918a1 1 0 0 1 1.291.485l12.011 24.854a1.002 1.002 0 0 1-.509 1.356l-136.505 57.918a.996.996 0 0 1-.39.079zm-10.654-25.344 11.139 23.051 134.662-57.136-11.139-23.051z" fill="#111"/><path d="m415.512 357.963-107.157 45.465 12.011 24.855 107.156-45.466z" fill="#3658c1"/><path d="M320.366 429.282a1 1 0 0 1-.901-.564l-12.011-24.854a1.002 1.002 0 0 1 .509-1.356l107.157-45.465a1 1 0 0 1 1.291.485l12.011 24.854a1.002 1.002 0 0 1-.509 1.356l-107.157 45.466a.996.996 0 0 1-.39.079zm-10.654-25.344 11.139 23.051 105.313-44.684-11.139-23.05z" fill="#111"/><path d="M418.488 702.277 323.24 742.69l12 24.834 95.249-40.413z" fill="#3658c1"/><path d="M335.241 768.524a1 1 0 0 1-.901-.564l-12.001-24.834a1.002 1.002 0 0 1 .509-1.356l95.249-40.413a1 1 0 0 1 1.291.485l12.001 24.834a1.002 1.002 0 0 1-.509 1.356l-95.249 40.413a.996.996 0 0 1-.39.079zm-10.644-25.323 11.129 23.03 93.405-39.631-11.129-23.03z" fill="#111"/><path d="m495.825 755.851-137.942 58.528 12.001 24.833 137.941-58.527z" fill="#3658c1"/><path d="M369.884 840.212a1 1 0 0 1-.901-.564l-12.001-24.834a1.002 1.002 0 0 1 .509-1.356l137.942-58.526a1 1 0 0 1 1.291.485l12 24.833a1.002 1.002 0 0 1-.509 1.356l-137.941 58.527a.996.996 0 0 1-.39.079zm-10.644-25.323 11.129 23.03 136.098-57.745-11.129-23.029-136.099 57.744z" fill="#111"/><path d="m451.164 602.026-213.29 90.496 12 24.833 213.29-90.497z" fill="#3658c1"/><path d="M249.874 718.355a1 1 0 0 1-.901-.564l-12-24.832a1.002 1.002 0 0 1 .509-1.356l213.29-90.497a1 1 0 0 1 1.291.485l12 24.833a1.002 1.002 0 0 1-.509 1.356l-213.29 90.496a.996.996 0 0 1-.39.079zm-10.643-25.321 11.128 23.028 211.447-89.714-11.128-23.029z" fill="#111"/><path d="m519.452 573.052-30.372 12.886 12 24.833 30.372-12.887z" fill="#3658c1"/><path d="M501.081 611.771a1 1 0 0 1-.901-.564l-12-24.833a1.002 1.002 0 0 1 .509-1.356l30.372-12.886a1 1 0 0 1 1.291.485l12 24.832a1.002 1.002 0 0 1-.509 1.356l-30.372 12.887a.996.996 0 0 1-.39.079zm-10.644-25.322 11.129 23.029 28.529-12.104-11.129-23.028-28.529 12.104z" fill="#111"/><path d="M616.611 790.992 341.804 907.59l12.011 24.854 274.806-116.598z" fill="#3658c1"/><path d="M353.815 933.444a1 1 0 0 1-.901-.564l-12.011-24.854a1.002 1.002 0 0 1 .509-1.356l274.807-116.598a1 1 0 0 1 1.291.485l12.011 24.854a1.002 1.002 0 0 1-.509 1.356L354.205 933.365a.996.996 0 0 1-.39.079zM343.161 908.1l11.139 23.051 272.963-115.815-11.139-23.051z" fill="#111"/><path d="M87.6 495.183c-6.574 2.789-8.875 11.329-5.137 19.064s12.106 11.75 18.68 8.961 8.874-11.33 5.136-19.065-12.105-11.749-18.679-8.959" fill="#b0c3ff"/><path d="M96.73 525.088c-5.91 0-12.067-3.99-15.167-10.405-2.137-4.422-2.48-9.304-.942-13.394 1.221-3.246 3.561-5.742 6.589-7.027 7.049-2.988 16.007 1.247 19.97 9.444 2.137 4.423 2.48 9.305.942 13.395-1.221 3.247-3.561 5.742-6.588 7.027a12.26 12.26 0 0 1-4.803.96zm-4.686-29.793c-1.391 0-2.761.26-4.054.809-2.519 1.068-4.472 3.16-5.498 5.89-1.346 3.58-1.029 7.888.871 11.818 3.505 7.254 11.305 11.06 17.388 8.475 2.519-1.068 4.472-3.16 5.498-5.89 1.346-3.58 1.028-7.889-.872-11.819-2.76-5.712-8.184-9.282-13.334-9.282z" fill="#111"/><path d="M122.243 566.871c-6.574 2.789-8.875 11.329-5.136 19.065 3.738 7.735 12.105 11.749 18.679 8.959 6.574-2.789 8.875-11.329 5.137-19.064s-12.106-11.75-18.68-8.961" fill="#b0c3ff"/><path d="M131.375 596.777c-5.91 0-12.068-3.989-15.168-10.404-2.137-4.423-2.481-9.305-.943-13.395 1.221-3.247 3.561-5.742 6.589-7.027 7.052-2.988 16.008 1.249 19.971 9.446 2.137 4.422 2.48 9.303.942 13.393-1.221 3.247-3.561 5.743-6.589 7.028-1.534.65-3.158.959-4.802.959zm-4.688-29.793c-1.391 0-2.76.26-4.053.809-2.519 1.068-4.472 3.16-5.498 5.89-1.346 3.58-1.028 7.888.872 11.819 3.505 7.254 11.306 11.058 17.388 8.475 2.519-1.069 4.472-3.161 5.498-5.891 1.346-3.579 1.028-7.887-.871-11.817-2.76-5.712-8.185-9.284-13.335-9.284z" fill="#111"/><path d="M1098.19 428.25 899.584 17.264a25.75 25.75 0 0 0-3.258-5.112c-.589-.72-1.211-1.4-1.861-2.038-5.804-5.69-13.846-7.98-20.538-5.141L368.3 219.506c-6.679 2.834-10.143 10.006-9.408 17.846.083.878.218 1.765.407 2.654a24.935 24.935 0 0 0 1.951 5.667l198.606 410.986c5.137 10.631 16.632 16.144 25.649 12.318l505.627-214.533c9.035-3.833 12.196-15.565 7.059-26.196z" fill="#b0c3ff"/><path d="M579.449 671.187c-7.974 0-16.297-5.405-20.494-14.091L360.349 246.11a25.95 25.95 0 0 1-2.028-5.895 24.505 24.505 0 0 1-.424-2.769c-.801-8.536 3.129-15.939 10.013-18.86L873.536 4.053c6.858-2.908 15.347-.811 21.629 5.348a26.21 26.21 0 0 1 1.935 2.119 26.742 26.742 0 0 1 3.384 5.309l198.606 410.986c2.892 5.985 3.359 12.585 1.283 18.107-1.641 4.365-4.785 7.72-8.852 9.445L585.894 669.899a16.435 16.435 0 0 1-6.446 1.287zM880.027 4.76c-1.977 0-3.909.371-5.709 1.135L368.691 220.428c-6.065 2.573-9.521 9.18-8.803 16.831.08.845.211 1.7.389 2.54a23.971 23.971 0 0 0 1.873 5.439l198.606 410.986c4.902 10.146 15.83 15.452 24.358 11.833l505.627-214.532c3.558-1.51 6.314-4.46 7.761-8.307 1.885-5.014 1.443-11.039-1.211-16.533L898.684 17.698a24.766 24.766 0 0 0-4.919-6.87c-4.022-3.943-9.006-6.068-13.738-6.068z" fill="#111"/><path d="m575.801 162.893-149.51 63.436 9.825 20.332 149.51-63.435z" fill="#fff"/><path d="M436.117 247.661a1 1 0 0 1-.901-.564l-9.825-20.332a1.002 1.002 0 0 1 .509-1.356l149.51-63.436a1 1 0 0 1 1.291.485l9.825 20.332a1.002 1.002 0 0 1-.509 1.356l-149.51 63.436a.996.996 0 0 1-.39.079zm-8.468-20.821 8.954 18.528 147.667-62.653-8.954-18.528z" fill="#111"/><path d="m549.218 174.172-122.927 52.157 9.825 20.332 122.928-52.157z" fill="#3658c1"/><path d="M436.117 247.661a1 1 0 0 1-.901-.564l-9.826-20.332a1.002 1.002 0 0 1 .509-1.356l122.927-52.157a1 1 0 0 1 1.291.485l9.826 20.332a1.002 1.002 0 0 1-.509 1.356l-122.927 52.157a.996.996 0 0 1-.39.079zm-8.469-20.821 8.954 18.528 121.084-51.375-8.954-18.528z" fill="#111"/><path d="M401.043 226.214c-3.507 1.488-6.239 5.373-6.569 12.341-5.801-4.367-10.714-5.008-14.219-3.52-6.116 2.595-7.943 11.67-2.717 18.728 8.665 11.706 31.623 15.185 31.623 15.185s12.355-18.461 8.7-32.293c-2.213-8.338-10.697-13.038-16.818-10.44" fill="#3658c1"/><path d="M409.161 269.948c-.05 0-.1-.004-.15-.012-.954-.145-23.466-3.677-32.276-15.578-2.914-3.936-3.957-8.845-2.788-13.132.901-3.307 3.058-5.898 5.917-7.112 3.9-1.655 8.736-.726 13.752 2.608.866-7.664 4.711-10.441 7.036-11.429 2.889-1.225 6.412-1.016 9.667.578 4.113 2.012 7.293 5.946 8.509 10.526 3.728 14.107-8.321 32.337-8.836 33.106-.188.279-.5.443-.831.443zm-25.228-34.636c-1.171 0-2.273.213-3.288.644-2.326.986-4.02 3.045-4.77 5.796-1.008 3.701-.087 7.969 2.466 11.417 7.526 10.167 26.608 14.018 30.334 14.683 1.953-3.113 11.374-18.999 8.219-30.94-1.068-4.026-3.855-7.482-7.455-9.243-2.734-1.337-5.652-1.533-8.006-.532-3.564 1.513-5.682 5.585-5.961 11.468a1 1 0 0 1-1.6.751c-3.542-2.667-6.962-4.042-9.939-4.042zm17.11-9.098h.01z" fill="#111"/><path d="m738.869 556.639-66.636 28.273 18.955 39.226 66.637-28.273z" fill="#fff"/><path d="M691.189 625.138a1 1 0 0 1-.901-.564l-18.956-39.227a1.002 1.002 0 0 1 .509-1.356l66.637-28.272a1 1 0 0 1 1.291.485l18.956 39.226a1.002 1.002 0 0 1-.509 1.356l-66.637 28.273a.996.996 0 0 1-.39.079zm-17.599-39.716 18.084 37.423 64.793-27.491-18.084-37.422z" fill="#111"/><path d="m672.233 584.912-66.654 28.281 18.955 39.226 66.654-28.281z" fill="#fff"/><path d="M624.535 653.419a1 1 0 0 1-.901-.564l-18.956-39.227a1.002 1.002 0 0 1 .509-1.356l66.654-28.281a1 1 0 0 1 1.291.485l18.956 39.227a1.002 1.002 0 0 1-.509 1.356l-66.654 28.281a.996.996 0 0 1-.39.079zm-17.599-39.716 18.084 37.423 64.811-27.499-18.084-37.423z" fill="#111"/><path d="m643.972 407.293-66.636 28.273 37.892 78.41 66.635-28.273z" fill="#fff"/><path d="M615.228 514.976a1 1 0 0 1-.901-.564l-37.891-78.41a1.002 1.002 0 0 1 .509-1.356l66.636-28.273a1 1 0 0 1 1.291.485l37.891 78.411a1.002 1.002 0 0 1-.509 1.356l-66.636 28.272a.996.996 0 0 1-.39.079zm-36.534-78.899 37.02 76.606 64.792-27.49-37.02-76.607z" fill="#111"/><path d="m777.263 350.739-66.654 28.28L748.5 457.43l66.654-28.281z" fill="#fff"/><path d="M748.5 458.43a1 1 0 0 1-.901-.564l-37.892-78.41a1.002 1.002 0 0 1 .509-1.356l66.654-28.281a1 1 0 0 1 1.291.485l37.891 78.41a1.002 1.002 0 0 1-.509 1.356l-66.654 28.281a.996.996 0 0 1-.39.079zm-36.535-78.899 37.02 76.606 64.811-27.499-37.02-76.606z" fill="#111"/><path d="m710.609 379.019-66.637 28.274 37.891 78.41L748.5 457.43z" fill="#fff"/><path d="M681.864 486.703a1 1 0 0 1-.901-.564l-37.891-78.411a1.002 1.002 0 0 1 .509-1.356l66.636-28.272a1 1 0 0 1 1.291.485l37.892 78.41a1.002 1.002 0 0 1-.509 1.356l-66.637 28.273a.996.996 0 0 1-.39.079zm-36.534-78.9 37.02 76.607 64.793-27.491-37.02-76.606z" fill="#111"/><path d="m910.536 294.192-66.637 28.274 37.891 78.41 66.637-28.273z" fill="#fff"/><path d="M881.791 401.876a1 1 0 0 1-.901-.564l-37.891-78.41a1.002 1.002 0 0 1 .509-1.356l66.636-28.273a1 1 0 0 1 1.291.485l37.892 78.41a1.002 1.002 0 0 1-.509 1.356l-66.637 28.273a.996.996 0 0 1-.39.079zm-36.534-78.899 37.02 76.606 64.793-27.491-37.02-76.606z" fill="#111"/><path d="m843.899 322.466-66.636 28.273 37.891 78.41 66.636-28.273z" fill="#fff"/><path d="M815.154 430.149a1 1 0 0 1-.901-.564l-37.891-78.41a1.002 1.002 0 0 1 .509-1.356l66.637-28.272a1.002 1.002 0 0 1 1.291.485l37.891 78.41a1.002 1.002 0 0 1-.509 1.356l-66.637 28.272a.996.996 0 0 1-.39.079zM778.62 351.25l37.02 76.606 64.793-27.49-37.02-76.606z" fill="#111"/><path d="m796.852 58.942-66.636 28.273 37.891 78.409 66.636-28.273z" fill="#fff"/><path d="M768.107 166.624a1 1 0 0 1-.901-.564l-37.891-78.409a1.002 1.002 0 0 1 .509-1.356l66.637-28.272a1 1 0 0 1 1.291.485l37.891 78.408a1.002 1.002 0 0 1-.509 1.356l-66.636 28.273a.996.996 0 0 1-.39.079zm-36.534-78.898 37.02 76.605 64.793-27.491-37.019-76.604-64.793 27.49z" fill="#111"/><path d="m768.107 165.624-66.637 28.274 37.891 78.41 66.637-28.273z" fill="#fff"/><path d="M739.362 273.308a1 1 0 0 1-.901-.564l-37.891-78.41a1.002 1.002 0 0 1 .509-1.356l66.637-28.273a1 1 0 0 1 1.291.485l37.891 78.41a1.002 1.002 0 0 1-.509 1.356l-66.637 28.273a.996.996 0 0 1-.39.079zm-36.534-78.899 37.02 76.606 64.793-27.491-37.02-76.606z" fill="#111"/><path d="m834.743 137.351-66.636 28.273 37.891 78.411 66.636-28.273z" fill="#fff"/><path d="M805.999 245.034a1 1 0 0 1-.901-.564l-37.891-78.41a1.002 1.002 0 0 1 .509-1.356l66.636-28.273a1 1 0 0 1 1.291.485l37.891 78.411a1.002 1.002 0 0 1-.509 1.356l-66.636 28.272a.996.996 0 0 1-.39.079zm-36.534-78.899 37.02 76.606 64.793-27.49-37.02-76.607z" fill="#111"/><path d="m701.47 193.898-66.654 28.28 37.891 78.411 66.654-28.281z" fill="#fff"/><path d="M672.708 301.588a1 1 0 0 1-.901-.564l-37.892-78.41a1.002 1.002 0 0 1 .509-1.356l66.654-28.28a1 1 0 0 1 1.291.485l37.891 78.41a1.002 1.002 0 0 1-.509 1.356l-66.654 28.28a.996.996 0 0 1-.39.079zm-36.535-78.899 37.02 76.606 64.811-27.498-37.02-76.606z" fill="#111"/><path d="m788.342 41.287-66.654 28.281 8.517 17.626 66.655-28.281z" fill="#fff"/><path d="M730.206 88.194a1 1 0 0 1-.901-.564l-8.518-17.626a1.002 1.002 0 0 1 .509-1.356l66.654-28.28a1 1 0 0 1 1.291.485l8.518 17.626a1.002 1.002 0 0 1-.509 1.356l-66.654 28.28a.996.996 0 0 1-.39.079zm-7.161-18.115 7.646 15.822 64.811-27.498-7.646-15.822z" fill="#111"/><path d="m872.634 215.762-66.636 28.273 37.901 78.431 66.637-28.274z" fill="#fff"/><path d="M843.9 323.466a1 1 0 0 1-.901-.564l-37.901-78.432a1.002 1.002 0 0 1 .509-1.356l66.636-28.272a1 1 0 0 1 1.291.485l37.901 78.431a1.002 1.002 0 0 1-.509 1.356l-66.636 28.273a.996.996 0 0 1-.39.079zm-36.544-78.921 37.03 76.628 64.793-27.491-37.03-76.627z" fill="#111"/><path d="m1012.501 250.929-35.311 14.983 37.891 78.41 35.312-14.982z" fill="#fff"/><path d="M1015.082 345.322a1 1 0 0 1-.901-.564l-37.891-78.41a1.002 1.002 0 0 1 .509-1.356l35.312-14.982a1 1 0 0 1 1.291.485l37.891 78.411a1.002 1.002 0 0 1-.509 1.356l-35.312 14.981a.996.996 0 0 1-.39.079zm-36.534-78.899 37.02 76.606 33.468-14.199-37.02-76.607z" fill="#111"/><path d="m977.19 265.912-66.654 28.28 37.891 78.411 66.654-28.281z" fill="#fff"/><path d="M948.428 373.603a1 1 0 0 1-.901-.564l-37.892-78.41a1.002 1.002 0 0 1 .509-1.356l66.654-28.281a1 1 0 0 1 1.291.485l37.891 78.41a1.002 1.002 0 0 1-.509 1.356l-66.654 28.281a.996.996 0 0 1-.39.079zm-36.535-78.899 37.02 76.606 64.811-27.499-37.02-76.606z" fill="#111"/><path d="m605.579 613.193-55.375 23.495 9.652 19.973c5.137 10.63 16.632 16.144 25.649 12.318l39.03-16.56z" fill="#fff"/><path d="M579.449 671.187c-7.974 0-16.296-5.406-20.493-14.091l-9.652-19.973a1.002 1.002 0 0 1 .509-1.356l55.375-23.495a1 1 0 0 1 1.291.485l18.956 39.227a1.002 1.002 0 0 1-.509 1.356l-39.03 16.56a16.438 16.438 0 0 1-6.446 1.287zm-27.888-33.988 9.195 19.026c4.901 10.145 15.829 15.453 24.357 11.833l38.063-16.149-18.084-37.423-53.532 22.713z" fill="#111"/><path d="M587.125 289.657c-10.507 4.458-14.188 18.117-8.213 30.481 3.003 6.214 7.885 10.942 13.331 13.521l1.706 3.529-6.27.776 11.619 45.497 11.174-1.379-5.788-22.681 25.89 53.576 10.112-4.29-13.205-27.327c1.195-.126 2.4-.408 3.532-.888a11.963 11.963 0 0 0 3.06-1.909l13.205 27.327 10.094-4.283-25.89-53.576 14.373 19.038 8.476-6.958-28.826-38.196-4.758 3.903-1.706-3.529c1.523-5.536.951-12.093-2.051-18.307-5.975-12.364-19.357-18.783-29.865-14.325" fill="#3658c1"/><path d="M630.574 413.978a1 1 0 0 1-.901-.564l-21.561-44.617 3.327 13.039a1 1 0 0 1-.846 1.24l-11.173 1.379a1 1 0 0 1-1.091-.745l-11.619-45.497a1 1 0 0 1 .847-1.24l4.886-.604-.947-1.959c-5.747-2.815-10.526-7.717-13.482-13.835-3.345-6.922-3.885-14.554-1.483-20.941 1.894-5.037 5.519-8.906 10.206-10.896 10.982-4.658 24.958 1.985 31.156 14.81 2.957 6.119 3.737 12.723 2.212 18.642l.991 2.052 3.776-3.098a1 1 0 0 1 1.432.171l28.826 38.195a1 1 0 0 1-.164 1.375l-8.477 6.959a.996.996 0 0 1-1.433-.17l-8.259-10.941 21.476 44.441a1.002 1.002 0 0 1-.509 1.356l-10.095 4.282a1.002 1.002 0 0 1-1.291-.485l-12.669-26.217c-.738.519-1.5.943-2.305 1.285-.763.324-1.578.574-2.434.749l12.617 26.109a1.002 1.002 0 0 1-.509 1.356l-10.112 4.29a.996.996 0 0 1-.39.079zm-25.891-55.576a1 1 0 0 1 .9.564l25.476 52.719 8.269-3.508-12.748-26.381a.998.998 0 0 1 .797-1.43 11.305 11.305 0 0 0 3.245-.814c.99-.42 1.907-.993 2.806-1.752a1.002 1.002 0 0 1 1.546.328l12.791 26.47 8.251-3.501-25.434-52.631a1 1 0 0 1 1.699-1.038l13.745 18.208 6.93-5.689-27.62-36.598-3.953 3.243a1 1 0 0 1-1.535-.338l-1.706-3.529a1.006 1.006 0 0 1-.064-.701c1.526-5.545.82-11.798-1.987-17.607-5.741-11.879-18.561-18.087-28.574-13.838-4.179 1.772-7.416 5.238-9.115 9.758-2.21 5.877-1.695 12.937 1.412 19.366 2.813 5.823 7.38 10.459 12.858 13.054.206.098.373.263.472.468l1.706 3.529a1.003 1.003 0 0 1-.777 1.428l-5.143.637 11.12 43.543 9.172-1.132-5.506-21.58a1.001 1.001 0 0 1 .969-1.248z" fill="#111"/></svg></g><g transform="translate(991.1999999999999 2095.2) rotate(-84.11104402058648 -128.39999999999998 140.4000000000001) scale(-1.1928817291210858 1.1848201250643473)"><svg width="215.277" height="236.998" viewBox="0 0 215.277 236.998"><path d="M135.252 17.667c-.16-1.145-.714-2.076-1.517-2.672L115.873 1.728c.803.597 1.357 1.527 1.517 2.673l2.845 21.058 17.862 13.266z" fill="#3658C1"/><path d="M138.097 39.725a.998.998 0 0 1-.596-.197l-17.862-13.266a1.002 1.002 0 0 1-.395-.669l-2.845-21.058c-.117-.84-.516-1.554-1.122-2.004a1 1 0 1 1 1.195-1.604l17.859 13.265c1.04.772 1.718 1.957 1.911 3.336l.001.005 2.845 21.058a1 1 0 0 1-.991 1.134zm-16.928-14.817 15.619 11.6-2.527-18.704c-.119-.844-.517-1.556-1.123-2.005L118.466 4.9z" fill="#111"/><path d="m39.468 182.246-19.672 11.547c-.95.549-1.949.776-2.87.702a3.775 3.775 0 0 1-1.967-.723l17.862 13.267c.566.42 1.242.664 1.967.723.922.074 1.921-.153 2.87-.703l19.673-11.547z" fill="#3658C1"/><path d="M35.131 208.775c-.142 0-.283-.005-.424-.017a4.808 4.808 0 0 1-2.483-.917l-17.858-13.264-.003-.002a1 1 0 0 1 1.192-1.606c.407.302.909.485 1.45.529.749.06 1.541-.138 2.29-.571l19.666-11.543a.997.997 0 0 1 1.102.06l17.862 13.266a1.001 1.001 0 0 1-.09 1.665l-19.672 11.547c-.972.562-2.011.853-3.032.853zm-16.415-13.458 14.701 10.919c.406.302.908.485 1.452.529.747.056 1.539-.138 2.288-.572l18.364-10.779-16.118-11.971-19.101 11.211a6.48 6.48 0 0 1-1.586.663z" fill="#111"/><path d="m123.737 78.15 17.862 13.267c-4.345-3.227-9.618-5.233-15.457-5.702-4.067-.326-8.411.092-12.904 1.363-17.519 4.964-31.851 22.254-33.81 40.81-1.434 13.471 3.527 24.604 12.102 30.973l-17.862-13.267c-8.576-6.369-13.536-17.502-12.102-30.973 1.959-18.555 16.292-35.845 33.81-40.81 4.493-1.271 8.838-1.69 12.904-1.363 5.839.469 11.112 2.475 15.457 5.702" fill="#3658C1"/><path d="M91.529 159.861a.995.995 0 0 1-.595-.197l-.017-.012-17.845-13.254c-9.361-6.953-13.917-18.573-12.5-31.882 2.011-19.042 16.533-36.565 34.532-41.666 4.499-1.273 8.96-1.743 13.257-1.398 5.894.474 11.417 2.512 15.973 5.896l17.849 13.257.013.01a1 1 0 0 1-1.192 1.606l-.006-.004c-4.254-3.157-9.418-5.061-14.935-5.504-4.059-.323-8.283.122-12.552 1.329-17.244 4.886-31.159 21.689-33.088 39.952-1.34 12.587 2.926 23.545 11.704 30.065a1 1 0 0 1-.598 1.802zm14.079-86.519c-3.253 0-6.593.479-9.96 1.432-17.244 4.886-31.159 21.689-33.088 39.952-1.34 12.587 2.926 23.545 11.704 30.065l9.16 6.804c-4.167-6.543-5.952-14.79-4.991-23.813 2.011-19.042 16.534-36.565 34.532-41.666 4.499-1.272 8.957-1.746 13.257-1.398 2.111.169 4.175.54 6.164 1.101l-9.245-6.866c-4.255-3.16-9.421-5.064-14.941-5.508a32.286 32.286 0 0 0-2.592-.103z" fill="#111"/><path d="m77.175 198.271 17.862 13.267c-12.563-1.088-23.916-5.461-33.295-12.427L43.88 185.844c9.379 6.966 20.733 11.339 33.295 12.427" fill="#3658C1"/><path d="M95.038 212.537a.844.844 0 0 1-.087-.004c-12.451-1.078-24.14-5.442-33.805-12.62l-17.862-13.267a1 1 0 0 1 1.192-1.606l.02.015c9.363 6.948 20.692 11.173 32.765 12.219.185.016.361.083.51.193l17.862 13.267a1 1 0 0 1-.595 1.803zm-37.859-18.061 5.159 3.832c8.413 6.248 18.414 10.297 29.117 11.815l-14.649-10.881c-6.846-.621-13.459-2.236-19.627-4.766z" fill="#111"/><path d="M201.266 44.276a3.69 3.69 0 0 0-.954-1.052L182.45 29.957c.372.276.695.628.954 1.053l12.411 20.611 17.862 13.267z" fill="#3658C1"/><path d="M213.678 65.889a.998.998 0 0 1-.596-.197L195.22 52.425a.99.99 0 0 1-.26-.287l-12.412-20.612a2.696 2.696 0 0 0-.694-.766 1 1 0 0 1 1.193-1.605l17.862 13.267a4.689 4.689 0 0 1 1.213 1.338l12.412 20.612a.998.998 0 0 1-.185 1.256.99.99 0 0 1-.671.261zm-17.107-14.952 13.638 10.129-9.799-16.272a2.704 2.704 0 0 0-.694-.767l-13.218-9.818z" fill="#111"/><path d="m194.592 58.121 17.861 13.267L195.848 88l-17.861-13.266z" fill="#3658C1"/><path d="M195.848 89c-.208 0-.417-.065-.596-.197l-17.861-13.267a.998.998 0 0 1-.111-1.509l16.605-16.612a.999.999 0 0 1 1.303-.096l17.862 13.267a.998.998 0 0 1 .111 1.509l-16.605 16.612a1 1 0 0 1-.708.293zm-16.335-14.379 16.239 12.062L210.928 71.5l-16.239-12.062z" fill="#111"/><path d="m195.816 51.622 17.862 13.267c1.131 1.892.624 4.666-1.225 6.499l-17.862-13.267c1.849-1.833 2.357-4.607 1.225-6.499" fill="#3658C1"/><path d="M212.453 72.388c-.208 0-.417-.065-.596-.197l-17.862-13.267a1 1 0 0 1-.108-1.512c1.512-1.5 1.972-3.768 1.07-5.276a1 1 0 0 1 1.455-1.316l17.862 13.267a.995.995 0 0 1 .262.29c1.382 2.312.802 5.56-1.379 7.723-.193.19-.448.288-.704.288zm-16.404-14.43 16.255 12.073c1.014-1.394 1.275-3.174.606-4.468l-15.49-11.505c-.032 1.341-.504 2.72-1.371 3.9z" fill="#111"/><path d="M177.987 74.734 195.848 88c1.852 6.927 2.81 14.39 2.702 22.33-.103 7.918-1.244 15.775-3.279 23.403l-17.862-13.267c2.035-7.628 3.177-15.485 3.279-23.403.108-7.94-.85-15.403-2.701-22.329" fill="#3658C1"/><path d="M195.27 134.733a.998.998 0 0 1-.596-.197l-17.861-13.267a1 1 0 0 1-.37-1.061c2.054-7.698 3.146-15.49 3.245-23.159.104-7.626-.793-15.047-2.667-22.058a1 1 0 0 1 1.562-1.061l17.861 13.267a.997.997 0 0 1 .37.544c1.921 7.188 2.842 14.792 2.735 22.602-.102 7.833-1.216 15.79-3.313 23.647a1.002 1.002 0 0 1-.966.743zm-16.722-14.666 16.126 11.978c1.815-7.232 2.782-14.534 2.875-21.729.103-7.505-.765-14.811-2.579-21.722l-15.343-11.396c1.46 6.375 2.153 13.048 2.06 19.878-.098 7.615-1.154 15.347-3.139 22.991z" fill="#111"/><path d="m110.043 218.072-25.397 4.579a4.407 4.407 0 0 1-1.175.067 3.72 3.72 0 0 1-1.939-.716l17.862 13.267c.547.407 1.21.657 1.939.716.376.03.77.01 1.175-.068l25.397-4.578z" fill="#3658C1"/><path d="M101.668 236.997c-.139 0-.277-.005-.415-.016a4.743 4.743 0 0 1-2.457-.911l-17.861-13.266h-.001a1 1 0 0 1 1.193-1.605l.005.003a2.73 2.73 0 0 0 1.418.518c.292.024.598.006.911-.053l25.405-4.58a.993.993 0 0 1 .773.181l17.861 13.267a1 1 0 0 1-.419 1.787l-25.396 4.578a5.365 5.365 0 0 1-1.017.097zM85.293 223.55l14.696 10.916c.402.299.894.479 1.423.522.296.023.601.006.908-.053l23.133-4.17-15.66-11.632z" fill="#111"/><path d="m118.147 190.868 17.861 13.267-3.395 22.178-17.862-13.267z" fill="#3658C1"/><path d="M132.613 227.313a1 1 0 0 1-.596-.197l-17.862-13.267a1 1 0 0 1-.392-.954l3.395-22.178a.998.998 0 0 1 1.585-.651l17.862 13.267a1 1 0 0 1 .392.954l-3.395 22.178a.998.998 0 0 1-.989.848zm-16.782-14.711 16.045 11.917 3.053-19.941-16.045-11.917z" fill="#111"/><path d="m114.751 213.046 17.862 13.267c-.372 2.47-2.376 4.605-4.709 5.026l-17.862-13.267c2.333-.42 4.338-2.556 4.709-5.026" fill="#3658C1"/><path d="M127.904 232.338a1 1 0 0 1-.596-.197l-17.862-13.267a1 1 0 0 1 .419-1.787c1.915-.344 3.59-2.146 3.897-4.19a.998.998 0 0 1 1.585-.653l17.862 13.267a1 1 0 0 1 .393.952c-.437 2.898-2.758 5.363-5.521 5.861a1.173 1.173 0 0 1-.177.014zm-15.78-13.966 16.004 11.887c1.566-.455 2.91-1.866 3.373-3.526l-16.176-12.015c-.618 1.554-1.778 2.87-3.201 3.654z" fill="#111"/><path d="m156.442 161.116 17.862 13.267c-10.426 12.762-23.59 23.189-38.295 29.752l-17.862-13.267c14.705-6.564 27.869-16.99 38.295-29.752" fill="#3658C1"/><path d="M136.008 205.135a1 1 0 0 1-.596-.197l-17.862-13.267a1 1 0 0 1 .188-1.716c14.263-6.367 27.379-16.558 37.929-29.472a1 1 0 0 1 1.371-.17L174.9 173.58a1.002 1.002 0 0 1 .178 1.436c-10.747 13.155-24.116 23.54-38.662 30.033a1.02 1.02 0 0 1-.408.086zm-15.907-14.061 16.032 11.908c13.758-6.246 26.428-16.051 36.729-28.424l-16.254-12.072c-10.255 12.341-22.831 22.187-36.507 28.588z" fill="#111"/><path d="m193.822 131.232 17.862 13.267c1.679 1.247 2.065 3.742.9 5.984l-17.862-13.267c1.165-2.243.779-4.737-.9-5.984" fill="#3658C1"/><path d="M212.584 151.483a1 1 0 0 1-.596-.197l-17.862-13.266a1 1 0 0 1-.292-1.264c.927-1.785.671-3.771-.608-4.721a1 1 0 0 1 1.192-1.606l.004.003 17.857 13.264c2.072 1.539 2.573 4.587 1.192 7.248a1 1 0 0 1-.887.539zM195.96 136.89l16.163 12.004c.35-1.438-.021-2.84-1.035-3.593l-14.705-10.922c.028.82-.11 1.675-.423 2.511z" fill="#111"/><path d="m176.478 165.672 17.861 13.267-20.035-4.557-17.862-13.266z" fill="#3658C1"/><path d="M194.34 179.939a.988.988 0 0 1-.222-.025l-20.036-4.557a1.001 1.001 0 0 1-.375-.172l-17.862-13.267a1 1 0 0 1 .818-1.778l20.036 4.557c.136.031.263.089.375.172l17.862 13.267a1 1 0 0 1-.596 1.803zm-19.609-6.485 15.201 3.457L176.05 166.6l-15.201-3.457z" fill="#111"/><path d="m194.722 137.216 17.862 13.267-12.991 25.212-17.861-13.267z" fill="#3658C1"/><path d="M199.593 176.695a1 1 0 0 1-.596-.197l-17.861-13.267a1 1 0 0 1-.293-1.261l12.99-25.211a1 1 0 0 1 1.485-.345l17.862 13.266a1 1 0 0 1 .293 1.261l-12.991 25.212a1 1 0 0 1-.889.542zm-16.583-14.563 16.234 12.058 12.062-23.41-16.234-12.057z" fill="#111"/><path d="m181.732 162.428 17.862 13.267c-1.078 2.112-3.247 3.405-5.254 3.244l-17.862-13.267c2.007.161 4.176-1.132 5.254-3.244" fill="#3658C1"/><path d="M194.671 179.952c-.138 0-.275-.005-.412-.017a.995.995 0 0 1-.516-.194l-17.862-13.267a1 1 0 0 1 .676-1.799c1.643.125 3.405-.979 4.284-2.702a1 1 0 0 1 1.487-.348l17.861 13.267a.998.998 0 0 1 .294 1.257c-1.166 2.287-3.51 3.803-5.812 3.803zm-15.723-13.69 15.74 11.691c1.322-.001 2.685-.775 3.576-1.999l-16.258-12.076a7.1 7.1 0 0 1-3.058 2.384z" fill="#111"/><path d="M193.661 131.119c1.815 1.204 2.263 3.785 1.062 6.098l-12.99 25.212c-1.078 2.112-3.247 3.405-5.254 3.244l-20.036-4.556c-10.426 12.762-23.59 23.189-38.295 29.752l-3.395 22.178c-.372 2.47-2.376 4.605-4.709 5.026l-25.397 4.579a4.366 4.366 0 0 1-1.175.067c-1.795-.144-3.187-1.45-3.451-3.389l-2.845-21.058c-14.604-1.265-27.574-6.969-37.707-16.025l-19.672 11.547c-.949.549-1.949.776-2.87.702-1.2-.097-2.269-.704-2.92-1.775L1.594 172.107c-1.131-1.892-.604-4.665 1.225-6.499l16.605-16.612c-1.852-6.927-2.81-14.39-2.702-22.33.103-7.918 1.238-15.753 3.274-23.381L3.75 92.611c-1.814-1.204-2.263-3.785-1.062-6.098l12.99-25.212c1.078-2.112 3.247-3.405 5.254-3.244l20.036 4.556c10.426-12.762 23.59-23.188 38.295-29.752l3.395-22.178c.372-2.47 2.397-4.604 4.729-5.024l25.376-4.58a4.428 4.428 0 0 1 1.172-.066c1.806.145 3.185 1.464 3.454 3.388l2.845 21.058c14.619 1.288 27.574 6.969 37.727 16.027l19.652-11.548c.949-.549 1.949-.776 2.87-.702 1.201.097 2.269.704 2.921 1.775l12.411 20.612c1.131 1.892.624 4.666-1.225 6.499l-16.605 16.612c1.852 6.927 2.81 14.39 2.702 22.33-.103 7.918-1.244 15.775-3.279 23.403zm-91.627 18.799c17.519-4.965 31.851-22.254 33.81-40.81 2.157-20.28-10.2-35.266-27.564-36.661-4.067-.326-8.411.092-12.904 1.363-17.519 4.964-31.851 22.254-33.81 40.81-2.16 20.288 10.186 35.274 27.541 36.669 4.074.328 8.424-.093 12.927-1.371" fill="#B0C3FF"/><path d="M83.805 223.731c-.139 0-.277-.005-.414-.017-2.287-.183-4.04-1.892-4.362-4.251l-2.738-20.27c-13.979-1.369-26.72-6.79-36.941-15.718l-19.047 11.179c-1.108.641-2.302.93-3.457.836-1.553-.125-2.9-.946-3.695-2.252L.737 172.624c-1.374-2.299-.796-5.545 1.373-7.722l16.2-16.207c-1.821-7.021-2.692-14.434-2.588-22.043.099-7.6 1.149-15.309 3.124-22.926L3.2 93.447c-2.259-1.5-2.846-4.608-1.4-7.395l12.99-25.208c1.235-2.421 3.792-3.979 6.223-3.783a.973.973 0 0 1 .142.021l19.433 4.419c10.556-12.778 23.594-22.903 37.77-29.329l3.313-21.641c.435-2.892 2.765-5.356 5.54-5.857l25.376-4.58a5.36 5.36 0 0 1 1.43-.079c2.281.183 4.035 1.889 4.364 4.245l2.739 20.275c13.997 1.391 26.745 6.812 36.96 15.719l19.027-11.182c1.109-.641 2.3-.93 3.457-.836 1.553.124 2.9.945 3.695 2.252l12.414 20.615c1.384 2.315.804 5.563-1.377 7.726L179.1 75.035c1.821 7.023 2.692 14.436 2.588 22.042-.099 7.601-1.151 15.317-3.128 22.948l15.649 10.257.004.003c2.256 1.497 2.843 4.605 1.396 7.393l-12.989 25.208c-1.235 2.421-3.793 3.979-6.224 3.783a.973.973 0 0 1-.142-.021l-19.434-4.419c-10.555 12.777-23.593 22.903-37.77 29.329l-3.313 21.641c-.436 2.896-2.757 5.361-5.52 5.858l-25.396 4.578a5.444 5.444 0 0 1-1.016.096zm-44.337-42.485a1 1 0 0 1 .667.254c10.18 9.098 23.018 14.552 37.127 15.774a1 1 0 0 1 .905.862l2.845 21.058c.197 1.448 1.17 2.417 2.54 2.526.292.021.599.005.909-.053l25.405-4.581c1.915-.344 3.59-2.146 3.897-4.19l3.396-22.181a1 1 0 0 1 .581-.762c14.263-6.367 27.379-16.558 37.929-29.472a1 1 0 0 1 .996-.342l19.961 4.54c1.631.094 3.35-1.007 4.217-2.707l12.992-25.215c.968-1.865.664-3.884-.723-4.805l-16.249-10.65a1.001 1.001 0 0 1-.418-1.094c2.054-7.698 3.146-15.49 3.245-23.159.104-7.626-.793-15.047-2.667-22.058a1 1 0 0 1 .259-.965l16.605-16.612c1.515-1.502 1.975-3.771 1.073-5.279l-12.41-20.609c-.462-.76-1.224-1.221-2.144-1.294-.745-.058-1.54.137-2.29.571L158.47 42.348a.998.998 0 0 1-1.172-.116c-10.174-9.076-23.02-14.531-37.149-15.776a1 1 0 0 1-.903-.862l-2.845-21.058c-.202-1.445-1.177-2.415-2.543-2.524a3.516 3.516 0 0 0-.908.052L87.565 6.643c-1.927.348-3.611 2.148-3.918 4.189l-3.395 22.181c-.052.336-.27.623-.581.762-14.262 6.365-27.378 16.556-37.928 29.471-.24.293-.626.425-.996.342L20.786 59.05c-1.626-.098-3.35 1.007-4.217 2.707L3.577 86.971c-.968 1.865-.663 3.886.726 4.807l16.242 10.671a1 1 0 0 1 .417 1.094c-2.051 7.685-3.141 15.469-3.24 23.136-.104 7.628.794 15.049 2.668 22.059a.998.998 0 0 1-.259.965L3.526 166.315c-1.507 1.512-1.969 3.782-1.074 5.279l12.41 20.609c.462.759 1.224 1.22 2.144 1.294.748.059 1.54-.138 2.289-.571l19.667-11.543a1 1 0 0 1 .506-.137zm52.31-28.85c-.924 0-1.841-.037-2.752-.11-8.413-.676-15.92-4.515-21.139-10.809-5.822-7.021-8.42-16.597-7.316-26.963 2.011-19.042 16.533-36.565 34.532-41.666 4.499-1.273 8.96-1.743 13.257-1.398 8.421.676 15.936 4.518 21.16 10.817 5.821 7.02 8.42 16.589 7.319 26.946-2.011 19.042-16.533 36.565-34.532 41.666-3.555 1.01-7.085 1.517-10.529 1.517zm13.83-79.054c-3.253 0-6.593.479-9.96 1.432-17.244 4.886-31.159 21.689-33.088 39.952-1.046 9.826 1.393 18.873 6.867 25.475 4.871 5.875 11.889 9.459 19.759 10.092 4.066.327 8.296-.123 12.575-1.337 17.244-4.887 31.16-21.689 33.088-39.953 1.044-9.817-1.396-18.858-6.869-25.458-4.876-5.88-11.901-9.467-19.78-10.101a32.757 32.757 0 0 0-2.592-.102z" fill="#111"/></svg></g><g transform="translate(782.4 1803.6) rotate(71.69001210063104 -201.6 201.5999999999999) scale(-1.2033162823734458 1.2020176725217324)"><svg width="335.074" height="335.436" viewBox="0 0 335.074 335.436"><path d="m330.447 171.334-37.403 8.036-16.419 17.921 37.403-8.036c1.047-.173 1.906-.644 2.524-1.319l16.419-17.921c-.619.675-1.477 1.145-2.524 1.319z" fill="#B0C3FF"/><path d="M276.624 198.291a1.002 1.002 0 0 1-.738-1.676l16.419-17.921a.994.994 0 0 1 .527-.302l37.403-8.036.046-.009c.79-.131 1.463-.478 1.947-1.004l.004-.004a1 1 0 0 1 1.475 1.351l-16.419 17.921c-.789.862-1.861 1.425-3.098 1.63l-37.357 8.027a.984.984 0 0 1-.209.023zm16.941-18.011-14.085 15.374 34.338-7.377c.838-.14 1.513-.489 1.997-1.017l13.415-14.642z" fill="#111"/><path d="M106.016 9.123c-.39-1.707.002-3.235.951-4.27l-16.42 17.922c-.948 1.035-1.34 2.562-.951 4.27l7.373 40.408 16.419-17.92z" fill="#B0C3FF"/><path d="M96.97 68.453a1 1 0 0 1-.984-.82l-7.373-40.408c-.441-1.927-.008-3.811 1.197-5.125l16.419-17.921a1 1 0 1 1 1.475 1.351c-.755.823-1.014 2.052-.713 3.371l.009.043 7.373 40.409c.056.308-.035.624-.246.855l-16.419 17.92c-.193.21-.462.325-.738.325zm7.939-59.874L91.285 23.45c-.754.823-1.014 2.052-.713 3.372l7.021 38.471 14.724-16.07-7.28-39.899a6.83 6.83 0 0 1-.128-.745z" fill="#111"/><path d="m243.966 221.253-16.419 17.921c11.982-13.078 17.924-31.745 15.117-53.296-5.882-45.165-47.965-85.894-93.993-90.969-24.065-2.653-44.445 4.965-57.573 19.295l16.419-17.921c13.129-14.33 33.508-21.948 57.573-19.295 46.028 5.075 88.111 45.803 93.993 90.969 2.807 21.551-3.135 40.218-15.117 53.296" fill="#B0C3FF"/><path d="M227.547 240.174a1 1 0 0 1-.737-1.676c12.252-13.373 17.53-32.014 14.863-52.491-5.817-44.664-47.586-85.085-93.111-90.104-22.705-2.503-43.383 4.413-56.726 18.977a1 1 0 0 1-1.475-1.351l16.419-17.921c13.778-15.038 35.07-22.188 58.42-19.613 46.385 5.114 88.946 46.311 94.875 91.834 2.745 21.072-2.714 40.285-15.372 54.101l-16.419 17.921a.998.998 0 0 1-.737.323zM139.513 93.399c3.044 0 6.137.17 9.268.516 46.385 5.114 88.946 46.311 94.875 91.833 1.989 15.273-.332 29.57-6.579 41.543l6.151-6.714.737.676-.737-.676c12.251-13.373 17.53-32.014 14.863-52.491-5.817-44.664-47.586-85.085-93.111-90.104-22.708-2.503-43.384 4.413-56.726 18.977l-6.219 6.788c10.588-6.757 23.505-10.348 37.478-10.348z" fill="#111"/><path d="m309.469 275.485-16.419 17.921c-.967 1.056-2.445 1.52-4.031 1.346-.983-.108-2.007-.462-2.976-1.074l16.419-17.921c.97.611 1.994.965 2.976 1.074 1.587.174 3.064-.29 4.031-1.346" fill="#B0C3FF"/><path d="M289.666 295.787c-.249 0-.5-.014-.755-.042-1.159-.127-2.335-.55-3.4-1.221a1 1 0 0 1-.204-1.521l16.419-17.921a1.001 1.001 0 0 1 1.271-.17c.81.511 1.692.831 2.553.926 1.293.142 2.453-.232 3.182-1.026l.001-.001a1 1 0 0 1 1.475 1.351l-.004.005-16.415 17.916c-1.012 1.102-2.486 1.704-4.123 1.704zm-2-2.4a5.72 5.72 0 0 0 1.463.371c1.294.142 2.455-.231 3.184-1.027l13.62-14.865a6.93 6.93 0 0 1-.604-.04 7.89 7.89 0 0 1-2.666-.807z" fill="#111"/><path d="m302.462 275.757-16.418 17.921-38.899-22.374 16.419-17.921z" fill="#B0C3FF"/><path d="M286.043 294.678a.995.995 0 0 1-.498-.133l-38.898-22.374a1.002 1.002 0 0 1-.239-1.543l16.419-17.921a1 1 0 0 1 1.236-.191l38.898 22.374a1.002 1.002 0 0 1 .239 1.543l-16.419 17.921a1 1 0 0 1-.738.324zm-37.317-23.619 37.122 21.352 15.034-16.41-37.122-21.352z" fill="#111"/><path d="M25.629 59.954a3.987 3.987 0 0 0-.459.608L8.747 87.048l16.419-17.921 16.423-26.486a3.97 3.97 0 0 1 .459-.608z" fill="#B0C3FF"/><path d="M8.747 88.048a1 1 0 0 1-.849-1.527L24.32 60.035c.165-.268.357-.523.571-.756l16.414-17.915.005-.006.001-.001a1 1 0 1 1 1.474 1.352l-.004.005c-.126.138-.24.29-.341.452L26.016 69.654a.965.965 0 0 1-.113.148L9.484 87.724a.998.998 0 0 1-.737.324zm26.567-37.184-8.948 9.766v.001a3.018 3.018 0 0 0-.344.455L15.228 78.494l9.137-9.973zm-9.685 9.09h.01z" fill="#111"/><path d="m263.564 253.383-16.419 17.921c-7.421 6.236-15.996 11.155-25.473 14.6l16.419-17.921c9.477-3.445 18.052-8.364 25.473-14.6" fill="#B0C3FF"/><path d="M221.673 286.904a1 1 0 0 1-.738-1.676l16.418-17.921a1 1 0 0 1 .396-.264c9.36-3.403 17.829-8.257 25.172-14.427a1 1 0 0 1 1.38 1.441l-16.419 17.921a1 1 0 0 1-.094.09c-7.521 6.32-16.193 11.291-25.774 14.774a.946.946 0 0 1-.341.062zm16.99-18.065-13.344 14.565c7.768-3.26 14.861-7.562 21.132-12.824l9.418-10.279c-5.318 3.432-11.075 6.29-17.206 8.538z" fill="#111"/><path d="M61.259 107.186 44.84 125.107 10.844 94.805l16.419-17.921z" fill="#B0C3FF"/><path d="M44.84 126.107a.999.999 0 0 1-.665-.253L10.179 95.551a.997.997 0 0 1-.072-1.422l16.419-17.921a1 1 0 0 1 1.403-.071l33.996 30.302a.997.997 0 0 1 .072 1.422l-16.419 17.921a.997.997 0 0 1-.738.325zM12.266 94.733l32.503 28.972 15.068-16.446-32.503-28.972z" fill="#111"/><path d="M27.263 76.884 10.844 94.805c-2.576-2.13-3.497-5.512-2.097-7.757l16.419-17.921c-1.4 2.245-.479 5.627 2.097 7.757" fill="#B0C3FF"/><path d="M10.844 95.805a.995.995 0 0 1-.637-.229c-2.993-2.474-3.985-6.368-2.308-9.056a.986.986 0 0 1 .111-.146l16.419-17.921a1 1 0 0 1 1.585 1.204c-1.13 1.812-.302 4.648 1.886 6.457a1.003 1.003 0 0 1 .1 1.447L11.581 95.48a.995.995 0 0 1-.737.325zm-1.293-8.154c-.941 1.606-.395 3.972 1.24 5.731l15.063-16.441c-1.298-1.344-2.09-2.976-2.296-4.579z" fill="#111"/><path d="m58.44 138.167-16.419 17.921c-.651-10.776.288-21.212 2.819-30.98l16.419-17.921c-2.531 9.767-3.47 20.204-2.819 30.98" fill="#B0C3FF"/><path d="M42.02 157.087a1 1 0 0 1-.998-.939c-.659-10.92.299-21.448 2.85-31.291a1 1 0 0 1 .231-.425l16.419-17.921a1 1 0 0 1 1.706.926c-2.498 9.64-3.436 19.959-2.789 30.669.016.271-.078.536-.261.736l-16.419 17.921c-.194.21-.463.324-.739.324zm3.726-31.488c-2.268 8.854-3.223 18.277-2.845 28.048l14.516-15.844c-.532-9.392.135-18.491 1.985-27.109z" fill="#111"/><path d="m182.671 271.982-16.419 17.921c-11.162-1.948-22.357-5.438-33.239-10.37l16.419-17.921c10.882 4.932 22.077 8.422 33.239 10.37" fill="#B0C3FF"/><path d="M166.253 290.903a1 1 0 0 1-.172-.015c-11.262-1.966-22.526-5.48-33.48-10.444a.998.998 0 0 1-.325-1.586l16.419-17.921a.999.999 0 0 1 1.15-.235c10.8 4.895 21.902 8.359 32.998 10.296a1.001 1.001 0 0 1 .566 1.661L166.99 290.58c-.191.207-.46.323-.737.323zm-31.566-11.716c10.227 4.52 20.714 7.76 31.199 9.636l14.824-16.181c-10.439-1.974-20.865-5.273-31.03-9.821z" fill="#111"/><path d="m241.563 314.051-34.14 2.449-16.419 17.921 34.14-2.449c1.236-.091 2.256-.591 2.966-1.366l16.419-17.921c-.711.776-1.73 1.275-2.966 1.366z" fill="#B0C3FF"/><path d="M191.004 335.422a1 1 0 0 1-.737-1.676l16.418-17.921a1 1 0 0 1 .666-.322l34.14-2.449c.942-.07 1.736-.429 2.296-1.04l.004-.004a1 1 0 0 1 1.475 1.351l-.004.005-16.415 17.917c-.912.996-2.167 1.579-3.629 1.687l-34.142 2.449a.885.885 0 0 1-.072.003zm16.887-17.953-14.453 15.775 31.633-2.27c.942-.07 1.738-.43 2.3-1.043l13.591-14.835zm33.672-3.418h.01z" fill="#111"/><path d="m200.232 311.668-16.419 17.921-17.56-39.686 16.418-17.921z" fill="#B0C3FF"/><path d="M183.813 330.589a1.001 1.001 0 0 1-.915-.595l-17.561-39.686a1 1 0 0 1 .177-1.08l16.419-17.921a1 1 0 0 1 1.652.271l17.56 39.686a1 1 0 0 1-.177 1.08l-16.418 17.921a.999.999 0 0 1-.737.324zm-16.381-40.493 16.677 37.689 14.943-16.311-16.677-37.689z" fill="#111"/><path d="m207.423 316.501-16.419 17.921a5.662 5.662 0 0 1-1.049-.021c-2.569-.283-5.106-2.225-6.142-4.812l16.419-17.921c1.036 2.587 3.573 4.528 6.142 4.812.35.038.701.046 1.049.021" fill="#B0C3FF"/><path d="M190.599 335.436c-.249 0-.501-.014-.753-.042-2.948-.325-5.81-2.559-6.961-5.434a.998.998 0 0 1 .191-1.047l16.418-17.921a1.002 1.002 0 0 1 1.666.304c.889 2.219 3.078 3.942 5.324 4.19.294.032.584.039.866.018a1 1 0 0 1 .81 1.673l-16.419 17.921c-.172.188-.41.303-.664.322a7.53 7.53 0 0 1-.478.016zm-5.601-5.66c1.008 1.945 3.014 3.404 5.067 3.631.164.018.326.028.486.029l14.777-16.129c-2.123-.523-4.108-1.99-5.326-3.908z" fill="#111"/><path d="m97.716 224.25-16.419 17.921c-8.382-9.003-15.64-18.846-21.571-29.24l16.419-17.921c5.93 10.394 13.189 20.237 21.571 29.24" fill="#B0C3FF"/><path d="M81.297 243.171a.997.997 0 0 1-.732-.319c-8.43-9.054-15.733-18.955-21.707-29.426a1.001 1.001 0 0 1 .131-1.171l16.419-17.921a1.002 1.002 0 0 1 1.606.18c5.897 10.337 13.109 20.112 21.434 29.054a1 1 0 0 1 .005 1.357l-16.419 17.921a.997.997 0 0 1-.733.324l-.004.001zm-20.339-30.103c5.654 9.799 12.489 19.085 20.336 27.627l15.063-16.441c-7.848-8.526-14.703-17.789-20.396-27.562z" fill="#111"/><path d="m76.145 195.01-16.419 17.921-40.665-2.412 16.418-17.921z" fill="#B0C3FF"/><path d="M59.726 213.931c-.02 0-.039 0-.059-.002l-40.666-2.412a1 1 0 0 1-.678-1.674l16.419-17.921a.987.987 0 0 1 .797-.323l40.666 2.412a1 1 0 0 1 .678 1.674l-16.419 17.921a.999.999 0 0 1-.738.325zm-38.509-4.286 38.094 2.26 14.678-16.021-38.093-2.26z" fill="#111"/><path d="M17.689 152.271c-.573-1.873-.208-3.618.842-4.764L2.113 165.428c-1.05 1.147-1.415 2.891-.842 4.764l10.911 34.995 16.419-17.92z" fill="#B0C3FF"/><path d="M12.181 206.187a1.004 1.004 0 0 1-.955-.702L.316 170.49c-.658-2.152-.262-4.295 1.059-5.738l16.419-17.921a1 1 0 1 1 1.475 1.351l-.003.003c-.835.914-1.068 2.33-.622 3.789l10.91 34.994a1 1 0 0 1-.217.973l-16.419 17.92a.995.995 0 0 1-.737.326zm4.279-54.938L2.85 166.104c-.838.915-1.071 2.334-.623 3.796l10.392 33.33 14.856-16.214-10.739-34.447-.001-.005a6.94 6.94 0 0 1-.275-1.315z" fill="#111"/><path d="M35.479 192.598 19.06 210.519c-3.329-.34-6.009-2.549-6.88-5.331l16.42-17.921c.87 2.782 3.551 4.992 6.879 5.331" fill="#B0C3FF"/><path d="M19.06 211.519a1.16 1.16 0 0 1-.102-.005c-3.612-.369-6.719-2.791-7.732-6.028a1 1 0 0 1 .217-.974l16.419-17.921a1.002 1.002 0 0 1 1.692.376c.777 2.484 3.199 4.347 6.027 4.635a1 1 0 0 1 .636 1.67l-16.419 17.921a.996.996 0 0 1-.738.326zm-5.732-6.103c.877 2.079 2.931 3.636 5.348 4.043l14.876-16.237c-2.25-.693-4.156-2.196-5.252-4.147z" fill="#111"/><path d="m125.661 288.753-16.419 17.921c-.972 1.061-2.444 1.513-4.013 1.34-1.138-.125-2.328-.58-3.415-1.368l16.419-17.921c1.087.788 2.277 1.243 3.415 1.368 1.569.173 3.04-.279 4.013-1.34" fill="#B0C3FF"/><path d="M105.872 309.05c-.248 0-.499-.014-.752-.042-1.351-.149-2.697-.686-3.893-1.553a1 1 0 0 1-.15-1.485l16.419-17.921a1 1 0 0 1 1.324-.134c.915.664 1.93 1.073 2.937 1.184 1.284.141 2.437-.229 3.162-1.018l.004-.004a1 1 0 1 1 1.475 1.351c-.373.407 0 0-.001.001l-16.418 17.92c-1.007 1.1-2.476 1.701-4.107 1.701zm-2.501-2.623a5.855 5.855 0 0 0 1.967.594c1.286.142 2.441-.231 3.166-1.022l13.625-14.871a7.01 7.01 0 0 1-.591-.04 7.99 7.99 0 0 1-3.14-1.062z" fill="#111"/><path d="m83.68 257.992-16.419 17.921 14.036-33.742 16.419-17.921z" fill="#B0C3FF"/><path d="M67.26 276.913a1 1 0 0 1-.922-1.384l14.036-33.742c.045-.107.108-.206.186-.292l16.419-17.921a.999.999 0 0 1 1.66 1.06l-14.036 33.742a1.029 1.029 0 0 1-.186.292l-16.419 17.921a.999.999 0 0 1-.738.324zm14.893-34.196-11.781 28.319 12.451-13.59 11.781-28.319zm1.527 15.275h.01z" fill="#111"/><path d="m118.233 288.725-16.419 17.921-31.834-23.01 16.419-17.921z" fill="#B0C3FF"/><path d="M101.814 307.646a.997.997 0 0 1-.585-.189l-31.834-23.01a1 1 0 0 1-.151-1.486l16.419-17.921a1 1 0 0 1 1.323-.135l31.834 23.01a1 1 0 0 1 .151 1.486l-16.419 17.921a1.004 1.004 0 0 1-.738.324zm-30.338-24.163 30.202 21.831 15.059-16.436-30.202-21.831z" fill="#111"/><path d="M86.399 265.715 69.98 283.636c-2.7-1.959-3.889-5.309-2.719-7.723l16.419-17.921c-1.17 2.414.019 5.764 2.719 7.723" fill="#B0C3FF"/><path d="M69.979 284.636a.994.994 0 0 1-.587-.191c-3.112-2.257-4.415-6.113-3.032-8.968a.997.997 0 0 1 .163-.24l16.419-17.921a1 1 0 0 1 1.637 1.111c-.951 1.963.106 4.808 2.406 6.477a1 1 0 0 1 .15 1.485L70.716 284.31a.993.993 0 0 1-.737.326zm-1.875-8.163c-.758 1.747.005 4.134 1.779 5.789l15.067-16.445c-1.47-1.361-2.398-3.106-2.65-4.838z" fill="#111"/><path d="M333.794 165.264c.931 2.973-.524 5.602-3.347 6.069l-37.403 8.036c.672 10.778-.288 21.211-2.798 30.982l33.993 30.281c2.579 2.15 3.476 5.51 2.078 7.775l-16.402 26.489c-.915 1.467-2.622 2.137-4.476 1.933-.983-.108-2.007-.462-2.976-1.074l-38.898-22.374c-7.421 6.236-15.996 11.155-25.473 14.6l7.395 40.41c.681 2.987-1.025 5.444-3.923 5.658l-34.14 2.449a5.662 5.662 0 0 1-1.049-.021c-2.569-.283-5.106-2.225-6.142-4.812l-17.56-39.686c-11.162-1.948-22.357-5.438-33.239-10.37l-23.559 26.889c-.962 1.241-2.537 1.778-4.225 1.592-1.138-.125-2.328-.58-3.415-1.368l-31.834-23.01c-2.7-1.959-3.889-5.309-2.719-7.723l14.036-33.742c-8.382-9.003-15.64-18.846-21.571-29.24l-40.666-2.412c-3.329-.34-6.009-2.549-6.88-5.331L17.69 152.269c-.909-2.971.543-5.62 3.347-6.07l37.403-8.035c-.651-10.776.288-21.212 2.819-30.98l-33.996-30.3c-2.576-2.13-3.497-5.512-2.097-7.757l16.423-26.486c.914-1.482 2.614-2.149 4.47-1.944.981.108 2.006.46 2.98 1.064l38.88 22.393c7.418-6.256 15.993-11.175 25.471-14.621l-7.374-40.409c-.682-2.987 1.028-5.423 3.926-5.637l34.116-2.472a5.751 5.751 0 0 1 1.049.02c2.573.284 5.125 2.23 6.145 4.833l17.558 39.665c11.162 1.948 22.36 5.459 33.239 10.37l23.559-26.889c.958-1.236 2.525-1.767 4.206-1.582 1.145.126 2.343.585 3.437 1.378l31.853 22.991c2.7 1.958 3.891 5.33 2.719 7.723L253.79 93.287c8.358 8.98 15.619 18.844 21.549 29.238l40.663 2.392c3.35.342 6.03 2.551 6.901 5.333zm-147.401 75.284c46.028 5.075 78.573-27.426 72.691-72.591s-47.965-85.894-93.993-90.969S86.518 104.414 92.4 149.58c5.882 45.164 47.965 85.893 93.993 90.968" fill="#FFF"/><path d="M207.019 317.515a6.86 6.86 0 0 1-.754-.042c-2.947-.325-5.81-2.559-6.961-5.434l-17.331-39.165c-10.855-1.941-21.706-5.319-32.276-10.046l-23.071 26.332c-1.114 1.44-2.98 2.159-5.087 1.927-1.351-.149-2.697-.686-3.892-1.553l-31.833-23.009c-3.114-2.259-4.417-6.114-3.033-8.969l13.766-33.097c-8.119-8.79-15.18-18.367-21-28.483l-40.126-2.38c-3.654-.372-6.762-2.795-7.775-6.031l-10.911-34.996c-.556-1.817-.378-3.591.5-5 .791-1.269 2.085-2.105 3.644-2.355l36.515-7.846c-.548-10.395.375-20.427 2.747-29.841L26.598 77.631c-2.965-2.45-3.957-6.344-2.28-9.032L40.74 42.115c1.088-1.764 3.12-2.667 5.429-2.411 1.152.127 2.327.544 3.397 1.208L87.814 62.94c7.17-5.942 15.386-10.666 24.442-14.053l-7.223-39.582c-.397-1.734-.094-3.425.863-4.719.907-1.228 2.318-1.972 3.973-2.094L143.986.02c.403-.03.818-.022 1.231.024 2.97.327 5.835 2.573 6.966 5.462l17.326 39.138c10.786 1.929 21.638 5.308 32.275 10.047l23.073-26.333c1.107-1.432 2.969-2.149 5.067-1.917 1.358.15 2.711.69 3.915 1.563l31.851 22.99c3.125 2.267 4.427 6.124 3.032 8.973L254.96 93.081c8.09 8.762 15.144 18.338 20.978 28.48l40.123 2.36c3.668.373 6.784 2.796 7.797 6.033l10.893 35.015c.562 1.798.396 3.56-.467 4.963-.788 1.28-2.092 2.129-3.672 2.39l-36.519 7.847c.562 10.313-.355 20.345-2.728 29.842l33.54 29.878c2.943 2.453 3.927 6.351 2.265 9.047l-16.403 26.49c-1.097 1.759-3.13 2.655-5.436 2.401-1.16-.128-2.335-.55-3.4-1.222l-38.26-22.006c-7.187 5.935-15.402 10.651-24.443 14.034l7.244 39.583c.398 1.741.092 3.44-.87 4.741-.908 1.229-2.316 1.972-3.964 2.094l-34.142 2.449a7.55 7.55 0 0 1-.477.015zm-57.586-56.903c.139 0 .28.029.413.089 10.8 4.895 21.902 8.359 32.998 10.296a1 1 0 0 1 .743.581l17.56 39.686c.903 2.252 3.092 3.975 5.337 4.222.294.032.584.039.866.018l34.141-2.449c1.056-.078 1.945-.535 2.501-1.287.61-.825.794-1.944.519-3.15l-7.404-40.453c-.087-.48.184-.953.642-1.12 9.36-3.403 17.829-8.257 25.172-14.427a1 1 0 0 1 1.142-.101l38.898 22.374c.845.531 1.727.852 2.587.947 1.521.168 2.84-.381 3.519-1.469l16.4-26.486c1.124-1.822.303-4.669-1.869-6.48L289.58 211.1a1.001 1.001 0 0 1-.304-.995c2.5-9.731 3.431-20.05 2.769-30.671a1 1 0 0 1 .788-1.04l37.403-8.036c1.062-.177 1.855-.684 2.342-1.474.555-.903.648-2.081.261-3.319l-.001-.001-10.892-35.014c-.776-2.482-3.207-4.346-6.047-4.635l-40.62-2.388a.999.999 0 0 1-.81-.503c-5.914-10.365-13.118-20.14-21.413-29.052a.999.999 0 0 1-.191-1.065l14.034-33.763c.983-2.012-.075-4.855-2.383-6.53l-31.851-22.99c-.924-.671-1.947-1.083-2.96-1.195-1.392-.152-2.597.284-3.306 1.2l-23.598 26.935a.999.999 0 0 1-1.164.252c-10.873-4.908-21.975-8.372-32.999-10.296a.998.998 0 0 1-.742-.58L150.337 6.273c-.888-2.265-3.077-3.994-5.34-4.243a4.745 4.745 0 0 0-.866-.017l-34.117 2.472c-1.062.079-1.954.536-2.51 1.288-.605.818-.787 1.929-.513 3.129l7.382 40.451a.999.999 0 0 1-.642 1.119c-9.376 3.409-17.844 8.27-25.167 14.446-.322.271-.78.312-1.144.102L48.54 42.627c-.846-.523-1.733-.842-2.591-.936-1.548-.171-2.825.367-3.509 1.476L26.016 69.655c-1.132 1.814-.303 4.65 1.884 6.459l34.024 30.326a1 1 0 0 1 .303.997c-2.498 9.64-3.436 19.959-2.789 30.669a1 1 0 0 1-.788 1.038l-37.403 8.035c-1.045.169-1.827.666-2.314 1.448-.568.91-.669 2.101-.286 3.352l10.909 34.99c.777 2.483 3.199 4.346 6.027 4.634l40.624 2.409c.337.02.642.209.809.503 5.897 10.337 13.109 20.112 21.434 29.054a.999.999 0 0 1 .191 1.065l-14.036 33.742c-.975 2.015.083 4.86 2.383 6.529l31.833 23.009c.916.665 1.932 1.074 2.939 1.185 1.4.154 2.61-.288 3.325-1.211l23.597-26.936a.995.995 0 0 1 .751-.34zm46.385-18.537a87.11 87.11 0 0 1-9.534-.533c-46.385-5.114-88.947-46.31-94.875-91.833-2.852-21.9 3.09-41.623 16.731-55.535 13.963-14.24 34.227-20.696 57.061-18.179 46.385 5.114 88.946 46.311 94.875 91.834 2.852 21.899-3.09 41.622-16.731 55.535-11.987 12.223-28.616 18.711-47.527 18.711zM155.674 77.462c-18.375 0-34.505 6.279-46.107 18.112-13.202 13.465-18.947 32.599-16.176 53.877 5.817 44.664 47.587 85.084 93.111 90.104 22.214 2.449 41.89-3.799 55.414-17.592 13.203-13.465 18.947-32.599 16.176-53.876-5.817-44.664-47.586-85.085-93.111-90.104a84.71 84.71 0 0 0-9.307-.521z" fill="#111"/></svg></g><g transform="translate(325.2 777.6) rotate(9.422917697619335 216.6 120.59999999999997) scale(1.0826697857153567 1.084815284561621)"><svg width="400.122" height="222.342" viewBox="0 0 400.122 222.342"><path d="m335.97 66-15.862 33.197-68.729-12.607 15.861-33.197z" fill="#3658c1"/><path d="M320.109 100.197c-.06 0-.12-.005-.181-.016l-68.73-12.607a1 1 0 0 1-.722-1.415l15.861-33.197a1 1 0 0 1 1.083-.552l68.73 12.607a1 1 0 0 1 .722 1.415L321.01 99.629a.999.999 0 0 1-.901.568zm-67.265-14.355 66.692 12.233 14.968-31.328-66.692-12.233z" fill="#111"/><path d="m255.74 45.702-8.46-14.534c-1.592-2.736-1.83-5.519-.749-7.781L230.67 56.584c-1.081 2.263-.843 5.046.749 7.781l8.459 14.534c2.213 3.802 6.718 6.822 11.5 7.691l15.861-33.198c-4.781-.868-9.286-3.888-11.499-7.69z" fill="#3658c1"/><path d="M251.379 87.59a.993.993 0 0 1-.179-.016c-5.047-.917-9.83-4.125-12.186-8.172l-8.459-14.534c-1.754-3.012-2.033-6.108-.787-8.716l15.858-33.189a1 1 0 1 1 1.808.854l-.003.006c-.948 1.991-.695 4.42.714 6.841l8.46 14.534c2.073 3.563 6.318 6.393 10.814 7.21a1 1 0 0 1 .724 1.415l-15.861 33.198a1.002 1.002 0 0 1-.903.569zm-6.234-58.982-13.573 28.407c-.952 1.992-.699 4.424.711 6.847l8.459 14.534c1.959 3.366 5.856 6.078 10.071 7.056l14.98-31.355c-4.568-1.184-8.761-4.186-10.918-7.893l-8.46-14.534a11.823 11.823 0 0 1-1.27-3.062z" fill="#111"/><path d="m396.619 69.558-73.856 61.031-15.861 33.198 73.856-61.031a6.778 6.778 0 0 0 1.839-2.324l15.861-33.198a6.769 6.769 0 0 1-1.839 2.324z" fill="#3658c1"/><path d="M306.901 164.786a1 1 0 0 1-.902-1.431l15.861-33.198a1.01 1.01 0 0 1 .265-.34l73.856-61.031.003-.003a5.757 5.757 0 0 0 1.567-1.975l.003-.007a1 1 0 0 1 1.804.862l-.002.004-15.859 33.193a7.765 7.765 0 0 1-2.107 2.666l-73.854 61.028a.97.97 0 0 1-.635.232zm16.669-33.567-13.813 28.91 70.364-58.145a5.766 5.766 0 0 0 1.573-1.985l13.273-27.78z" fill="#111"/><path d="M252.576 19.142c1.624-.316 3.442-.312 5.343.043l122.629 22.762c4.772.89 9.277 3.91 11.469 7.677l5.708 9.807c2.203 3.785 1.773 7.766-1.107 10.126l-73.856 61.031c-1.12.93-2.575 1.589-4.207 1.907-2.089.407-4.429.269-6.78-.381-4.279-1.184-8.029-3.936-10.015-7.347l-8.46-14.534c-2.213-3.802-1.773-7.765 1.116-10.148L335.97 66l-68.73-12.607c-4.782-.869-9.287-3.889-11.5-7.691l-8.46-14.534c-1.986-3.411-1.865-6.897.293-9.355 1.211-1.361 2.953-2.272 5.003-2.671z" fill="#b0c3ff"/><path d="M316.095 133.725c-1.483 0-3.033-.216-4.586-.646-4.529-1.254-8.496-4.172-10.612-7.808l-8.46-14.534c-2.464-4.233-1.936-8.717 1.344-11.423l39.886-32.72-66.607-12.217c-5.045-.917-9.828-4.125-12.184-8.172l-8.46-14.534c-2.204-3.786-2.052-7.718.406-10.517 1.344-1.512 3.267-2.546 5.563-2.993 1.785-.348 3.709-.334 5.718.042l122.628 22.762c5.045.941 9.814 4.143 12.151 8.157l5.708 9.808c2.467 4.238 1.942 8.714-1.337 11.403L323.4 131.36c-1.246 1.035-2.856 1.768-4.653 2.118-.849.165-1.738.247-2.652.247zM252.768 20.123c-1.862.363-3.399 1.177-4.446 2.354-1.859 2.117-1.927 5.18-.177 8.187l8.46 14.534c2.074 3.563 6.319 6.393 10.814 7.21l68.732 12.607a1 1 0 0 1 .454 1.757l-41.552 34.086c-2.521 2.079-2.861 5.479-.886 8.872l8.46 14.534c1.86 3.195 5.38 5.769 9.417 6.886 2.213.612 4.399.738 6.322.363 1.469-.286 2.769-.872 3.759-1.695l73.858-61.032c2.482-2.035 2.826-5.509.879-8.852l-5.708-9.808c-2.057-3.533-6.291-6.358-10.789-7.197L257.737 20.168c-1.737-.325-3.454-.34-4.969-.045zm-.192-.981h.01z" fill="#111"/><path d="M318.556 132.496c-2.089.407-4.429.269-6.779-.381-4.279-1.184-8.029-3.935-10.015-7.347l-8.46-14.534c-1.591-2.734-1.811-5.551-.734-7.804l-15.862 33.198c-1.076 2.253-.857 5.07.734 7.804l8.46 14.534c1.986 3.411 5.736 6.163 10.015 7.347 2.35.65 4.69.787 6.779.381 1.632-.318 3.087-.977 4.207-1.907l15.861-33.198c-1.12.93-2.575 1.589-4.206 1.907z" fill="#3658c1"/><path d="M300.234 166.922a17.25 17.25 0 0 1-4.586-.646c-4.529-1.254-8.496-4.172-10.612-7.808l-8.46-14.534c-1.727-2.967-2.008-6.152-.772-8.739l15.862-33.198a1 1 0 0 1 1.804.862l-.001.002c-.945 1.98-.691 4.483.697 6.867l8.46 14.534c1.859 3.194 5.379 5.769 9.417 6.886 2.213.612 4.399.738 6.322.363 1.469-.287 2.77-.873 3.76-1.695a1 1 0 0 1 1.541 1.2l-15.862 33.198a.998.998 0 0 1-.263.338c-1.247 1.036-2.857 1.769-4.655 2.12-.849.168-1.738.25-2.652.25zm-9.056-59.264-13.57 28.4c-.946 1.98-.692 4.484.696 6.87l8.46 14.534c1.86 3.194 5.38 5.769 9.417 6.886 2.212.612 4.397.737 6.322.363 1.389-.271 2.626-.81 3.594-1.562l14.41-30.159c-.56.204-1.149.367-1.76.487-2.225.434-4.727.296-7.237-.398-4.53-1.254-8.497-4.173-10.612-7.808l-8.46-14.534a11.548 11.548 0 0 1-1.26-3.079zm27.378 24.838h.01z" fill="#111"/><path d="M167.809 13.313c-.394-1.771-.216-3.414.451-4.809l-15.861 33.198c-.667 1.396-.845 3.038-.451 4.809l36.303 163.885 15.861-33.197z" fill="#3658c1"/><path d="M188.251 211.396a1.001 1.001 0 0 1-.977-.783L150.971 46.727c-.433-1.945-.251-3.832.525-5.457l15.862-33.198a1 1 0 0 1 1.804.862c-.582 1.217-.712 2.656-.377 4.161v.001l36.303 163.886c.048.218.022.446-.074.647l-15.862 33.197a.999.999 0 0 1-.901.57zM166.875 13.721 153.3 42.133c-.581 1.217-.712 2.656-.377 4.161l35.676 161.053 14.462-30.267z" fill="#111"/><path d="M190.042 1.229c3.502-.682 7.704.181 11.232 2.283 3.558 2.116 6.078 5.265 6.78 8.452l36.044 163.935c.968 4.441-1.647 8.056-6.523 9.005l-15.462 3.011c-3.482.678-7.674-.167-11.222-2.265-3.538-2.12-6.058-5.269-6.78-8.452L167.809 13.314c-.987-4.437 1.617-8.069 6.493-9.019z" fill="#b0c3ff"/><path d="M219.657 189.144c-3.069 0-6.382-.922-9.274-2.633-3.758-2.252-6.465-5.649-7.247-9.091L166.832 13.53c-.519-2.333-.165-4.526 1.023-6.341 1.286-1.964 3.508-3.34 6.255-3.875L189.85.248c3.727-.727 8.189.173 11.935 2.405 3.776 2.246 6.484 5.646 7.245 9.096l36.044 163.936c.509 2.334.148 4.522-1.042 6.33-1.29 1.961-3.515 3.335-6.267 3.871l-15.462 3.011c-.847.166-1.736.247-2.646.247zM192.516 1.998c-.786 0-1.552.07-2.283.212l-15.74 3.066c-2.245.438-3.962 1.478-4.964 3.008-.886 1.353-1.143 3.017-.744 4.812l36.303 163.886c.662 2.915 3.024 5.836 6.318 7.81 3.335 1.973 7.267 2.774 10.517 2.142l15.462-3.011c2.251-.438 3.972-1.478 4.978-3.007.887-1.349 1.15-3.01.759-4.803L207.078 12.179c-.644-2.92-3.005-5.838-6.315-7.807-2.587-1.542-5.535-2.374-8.247-2.374zm-2.474-.769h.01z" fill="#111"/><path d="m237.575 184.904-15.462 3.012c-3.482.678-7.674-.167-11.221-2.265-3.538-2.12-6.058-5.269-6.781-8.451l-15.861 33.197c.722 3.182 3.243 6.332 6.781 8.451 3.548 2.099 7.739 2.944 11.221 2.265l15.462-3.011c2.939-.572 5.057-2.113 6.063-4.22l15.861-33.197c-1.006 2.106-3.123 3.647-6.063 4.219z" fill="#3658c1"/><path d="M203.794 222.341c-3.069 0-6.381-.922-9.273-2.633-3.758-2.251-6.465-5.648-7.247-9.091a1.002 1.002 0 0 1 .073-.653l15.861-33.197a1.001 1.001 0 0 1 1.877.209c.663 2.92 3.026 5.842 6.32 7.815 3.335 1.972 7.267 2.773 10.516 2.141l15.462-3.012c2.557-.498 4.457-1.799 5.35-3.665l.002-.005a1 1 0 0 1 1.804.862l-.004.01-15.857 33.188c-1.172 2.454-3.578 4.148-6.774 4.771l-15.462 3.011c-.849.168-1.737.249-2.648.249zm-14.487-11.838c.76 2.81 3.067 5.587 6.238 7.486 3.334 1.973 7.266 2.774 10.516 2.142l15.462-3.011c2.559-.499 4.46-1.802 5.352-3.67l13.58-28.423c-.814.38-1.715.669-2.689.858l-15.462 3.012c-3.715.724-8.172-.168-11.922-2.386-2.886-1.729-5.153-4.135-6.403-6.717z" fill="#111"/><path d="m121.538 81.771-41.532 34.082-15.862 33.197 41.532-34.082a6.828 6.828 0 0 0 1.866-2.351l15.862-33.198a6.834 6.834 0 0 1-1.866 2.352z" fill="#3658c1"/><path d="M64.144 150.05a1 1 0 0 1-.903-1.431l15.862-33.198c.063-.132.155-.249.268-.342l41.532-34.082.002-.002a5.803 5.803 0 0 0 1.595-2.007 1 1 0 0 1 1.804.862l-.005.011-15.856 33.186a7.815 7.815 0 0 1-2.136 2.695l-41.53 34.081a.993.993 0 0 1-.633.227zm16.668-33.565-13.828 28.942 38.058-31.231a5.838 5.838 0 0 0 1.598-2.01l13.28-27.793z" fill="#111"/><path d="m169.453 158.445-15.861 33.197a6.74 6.74 0 0 1-1.071 1.599c-1.172 1.336-2.911 2.268-5.001 2.675-1.632.318-3.48.302-5.325-.051l15.861-33.197c1.845.353 3.693.368 5.325.051 2.089-.407 3.829-1.339 5.001-2.675a6.74 6.74 0 0 0 1.071-1.599" fill="#3658c1"/><path d="M145.07 197.143c-1.002 0-2.033-.099-3.063-.296a1 1 0 0 1-.715-1.413l15.861-33.197c.196-.41.645-.636 1.09-.551 1.72.329 3.43.347 4.946.052 1.875-.365 3.41-1.179 4.44-2.353a5.79 5.79 0 0 0 .92-1.371 1 1 0 0 1 1.804.862l-.004.008-15.858 33.189a7.754 7.754 0 0 1-1.228 1.834c-1.318 1.503-3.241 2.539-5.555 2.99-.838.164-1.726.246-2.638.246zm-1.388-2.07c1.273.129 2.514.083 3.646-.138 1.875-.365 3.41-1.179 4.44-2.353.38-.424.687-.883.92-1.37l13.555-28.37c-.812.382-1.708.671-2.671.859-1.535.299-3.228.324-4.938.078z" fill="#111"/><path d="m158.057 162.668-15.862 33.197-122.629-22.762 15.862-33.197z" fill="#3658c1"/><path d="M142.196 196.865a.945.945 0 0 1-.183-.017L19.384 174.086a1.001 1.001 0 0 1-.719-1.415l15.862-33.197c.195-.408.64-.634 1.085-.552l122.629 22.762a1.001 1.001 0 0 1 .719 1.415l-15.861 33.197c-.17.352-.524.569-.903.569zM21.031 172.358l120.593 22.384 14.969-31.329-120.594-22.384z" fill="#111"/><path d="m23.958 132.229-5.708-9.807c-1.582-2.717-1.799-5.546-.72-7.804L1.669 147.815c-1.079 2.258-.862 5.086.72 7.804l5.708 9.807c2.203 3.785 6.708 6.805 11.469 7.678l15.861-33.198c-4.761-.873-9.266-3.893-11.469-7.677z" fill="#3658c1"/><path d="M19.567 174.103c-.06 0-.12-.005-.181-.016-5.036-.923-9.806-4.125-12.154-8.158l-5.708-9.806c-1.721-2.958-1.998-6.143-.758-8.739l15.858-33.191.003-.007a1 1 0 0 1 1.804.862c-.951 1.989-.702 4.493.682 6.87l5.708 9.808c2.067 3.55 6.3 6.375 10.785 7.196a1 1 0 0 1 .722 1.415l-15.861 33.198a.996.996 0 0 1-.9.568zm-3.434-54.243L2.571 148.246c-.95 1.989-.702 4.493.682 6.87l5.708 9.806c1.951 3.354 5.836 6.06 10.041 7.042l14.981-31.356c-4.556-1.187-8.739-4.183-10.889-7.877l-5.708-9.808a11.44 11.44 0 0 1-1.253-3.063z" fill="#111"/><path d="M97.414 49.362c2.045-.398 4.378-.281 6.766.38 4.309 1.198 8.049 3.932 10.034 7.343l8.46 14.534c2.213 3.802 1.763 7.787-1.136 10.152l-41.532 34.082 68.71 12.611c4.792.887 9.306 3.885 11.52 7.687l8.46 14.534c1.986 3.411 1.876 6.914-.313 9.358-1.172 1.336-2.911 2.268-5.001 2.675-1.632.318-3.48.302-5.325-.051L35.428 139.906c-4.762-.872-9.267-3.892-11.469-7.677l-5.708-9.807c-2.193-3.767-1.762-7.748 1.107-10.126l73.856-61.031c1.141-.949 2.58-1.588 4.2-1.903z" fill="#b0c3ff"/><path d="M160.932 163.946c-1.002 0-2.033-.099-3.063-.296L35.245 140.889c-5.033-.922-9.804-4.124-12.151-8.157l-5.708-9.808c-2.455-4.218-1.932-8.693 1.333-11.399l73.857-61.032c1.261-1.047 2.825-1.758 4.647-2.113 2.222-.433 4.72-.295 7.223.397 4.55 1.266 8.524 4.183 10.632 7.804l8.46 14.534c2.473 4.248 1.936 8.734-1.368 11.43l-39.863 32.713 66.59 12.222c5.072.939 9.862 4.145 12.203 8.168l8.46 14.534c2.219 3.812 2.057 7.748-.432 10.529-1.318 1.502-3.241 2.539-5.555 2.989-.841.164-1.729.246-2.641.246zM97.605 50.343c-1.489.29-2.752.859-3.754 1.69l-73.858 61.032c-2.471 2.049-2.817 5.524-.88 8.853l5.708 9.807c2.066 3.55 6.3 6.374 10.785 7.196l122.631 22.763c1.725.329 3.435.347 4.951.052 1.875-.365 3.41-1.179 4.44-2.353 1.889-2.11 1.961-5.171.2-8.196l-8.46-14.534c-2.061-3.541-6.315-6.37-10.837-7.207l-68.709-12.611a1 1 0 0 1-.454-1.756L120.9 80.997c2.502-2.041 2.857-5.524.906-8.876l-8.46-14.534c-1.852-3.181-5.38-5.754-9.438-6.883-2.201-.609-4.382-.735-6.303-.361z" fill="#111"/></svg></g></svg>